{
.appVersion = "3151";
.formatVersion = 3;
DisplayStrings = (
HHLTHHLVHHHLTLTLTHHHLVLVLVLHHHLYLYLYHHH
);
classes = (
{
automatic = 1;
code = "A Aacute Abreve Acircumflex Adieresis Agrave Amacron Aogonek Aring Atilde AE B C Cacute Ccaron Ccedilla Cdotaccent D Eth Dcaron Dcroat E Eacute Ecaron Ecircumflex Edieresis Edotaccent Egrave Emacron Eogonek F G Gbreve Gcommaaccent Gdotaccent H Hbar I Iacute Icircumflex Idieresis Idotaccent Igrave Imacron Iogonek J K Kcommaaccent L Lacute Lcaron Lcommaaccent Lslash M N Nacute Ncaron Ncommaaccent Ntilde O Oacute Ocircumflex Odieresis Ograve Ohungarumlaut Oslash Otilde OE P Thorn Q R Racute Rcaron S Sacute Scaron Scedilla Scommaaccent Germandbls T Tcaron Tcommaaccent U Uacute Ucircumflex Udieresis Ugrave Uhungarumlaut Umacron Uogonek Uring V W Wacute Wcircumflex Wdieresis Wgrave X Y Yacute Ycircumflex Ydieresis Ygrave Z Zacute Zcaron Zdotaccent";
name = Uppercase;
}
);
customParameters = (
{
name = trademark;
value = "Sedan is a trademark of Sebastian Salazar.";
},
{
name = "Use Typo Metrics";
value = 1;
},
{
name = fsType;
value = (
);
}
);
date = "2023-03-27 12:29:59 +0000";
familyName = Sedan;
featurePrefixes = (
{
automatic = 1;
code = "languagesystem DFLT dflt;

languagesystem latn dflt;
languagesystem latn AZE;
languagesystem latn CRT;
languagesystem latn KAZ;
languagesystem latn TAT;
languagesystem latn TRK;
languagesystem latn ROM;
languagesystem latn MOL;
languagesystem latn CAT;
";
name = Languagesystems;
}
);
features = (
{
automatic = 1;
code = "feature locl;
feature sups;
feature frac;
feature ordn;
feature lnum;
feature onum;
feature case;
feature ss01;
feature ss02;
";
tag = aalt;
},
{
automatic = 1;
code = "lookup ccmp_Other_1 {
	@CombiningTopAccents = [acutecomb brevecomb caroncomb circumflexcomb commaturnedabovecomb dieresiscomb dotaccentcomb gravecomb hungarumlautcomb macroncomb ringcomb tildecomb];
	@CombiningNonTopAccents = [cedillacomb ogonekcomb];
	sub [j]' @CombiningTopAccents by [jdotless];

glyphs = (
{
glyphname = A;
kernLeft = A;
kernRight = A;
lastChange = "2024-02-08 10:53:58 +0000";
layers = (
{
anchors = (
{
name = bottom;
pos = (265,0);
},
{
name = ogonek;
pos = (588,10);
},
{
name = top;
pos = (451,675);
}
);
hints = (
{
horizontal = 1;
place = (-2, 23);
place = (-2, 23);
type = Stem;
},
{
horizontal = 1;
place = (240, 32);
place = (240, 32);
type = Stem;
},
{
horizontal = 1;
place = (676, -20);
target = down;
type = TopGhost;
},
{
place = (-108, 133);
place = (-108, 133);
type = Stem;
},
{
place = (-108, 706);
place = (-108, 706);
type = Stem;
}
);
layerId = "EE525628-5027-49A8-B1A1-7E2F3B98E9F5";
shapes = (
{
closed = 1;
nodes = (
(437,41,o),
(430,32,o),
(412,32,cs),
(357,32,ls),
(347,32,o),
(342,17,o),
(342,7,cs),
(342,1,o),
(346,-2,o),
(350,-2,cs),
(390,-2,o),
(443,1,o),
(478,1,cs),
(514,1,o),
(556,0,o),
(608,0,cs),
(617,0,o),
(621,11,o),
(621,21,cs),
(621,27,o),
(618,33,o),
(613,33,cs),
(581,33,ls),
(525,33,o),
(475,350,o),
(475,593,cs),
(475,626,o),
(491,646,o),
(535,659,c),
(535,676,o),
(528,687,o),
(507,687,cs),
(457,687,o),
(394,635,o),
(342,545,cs),
(206,309,o),
(131,218,o),
(20,54,cs),
(9,38,o),
(-2,32,o),
(-18,32,cs),
(-65,32,ls),
(-75,32,o),
(-80,20,o),
(-80,8,cs),
(-80,0,o),
(-76,-2,o),
(-72,-2,cs),
(-36,-2,o),
(0,1,o),
(39,1,cs),
(73,1,o),
(137,0,o),
(169,0,cs),
(179,0,o),
(185,11,o),
(185,21,cs),
(185,26,o),
(184,33,o),
(178,33,cs),
(111,33,ls),
(106,33,o),
(100,38,o),
(105,48,cs),
(152,144,o),
(200,226,o),
(242,297,c),
(285,299,o),
(356,300,o),
(404,299,c),
(419,190,o),
(437,85,o),
(437,57,cs)
);
},
{
closed = 1;
nodes = (
(382,523,l),
(382,480,o),
(389,409,o),
(399,336,c),
(357,335,o),
(306,336,o),
(266,337,c),
(317,421,o),
(356,485,o),
(378,523,c)
);
}
);
width = 648;
}
);
unicode = 65;
},
{
glyphname = AE;
lastChange = "2024-02-08 10:53:47 +0000";
layers = (
{
hints = (
{
horizontal = 1;
place = (-2, 23);
place = (-2, 23);
type = Stem;
},
{
horizontal = 1;
place = (0, 23);
place = (0, 23);
type = Stem;
},
{
horizontal = 1;
place = (240, 32);
place = (240, 32);
type = Stem;
},
{
horizontal = 1;
place = (328, 27);
place = (328, 27);
type = Stem;
},
{
horizontal = 1;
place = (478, -20);
target = down;
type = TopGhost;
},
{
horizontal = 1;
place = (676, -20);
target = down;
type = TopGhost;
},
{
place = (-218, 133);
place = (-218, 133);
type = Stem;
},
{
place = (593, 103);
place = (593, 103);
type = Stem;
},
{
place = (859, 23);
place = (859, 23);
type = Stem;
},
{
place = (971, 23);
place = (971, 23);
type = Stem;
}
);
layerId = "EE525628-5027-49A8-B1A1-7E2F3B98E9F5";
shapes = (
{
closed = 1;
nodes = (
(628,588,ls,{
name = .hr01;
}),
(635,620,o),
(646,634,o),
(671,634,cs),
(757,633,o),
(805,626,o),
(836,613,c),
(857,601,o),
(857,564,o),
(857,541,c),
(858,533,o),
(870,532,o),
(875,532,cs),
(883,532,o),
(889,534,o),
(889,540,cs),
(889,597,o),
(915,682,o),
(915,693,cs),
(915,698,o),
(910,701,o),
(904,701,cs),
(897,701,o),
(887,698,o),
(886,692,c),
(880,671,l),
(593,671,ls),
(542,671,o),
(504,673,o),
(469,673,cs),
(459,673,o),
(456,659,o),
(456,649,cs),
(456,645,o),
(458,640,o),
(461,640,cs),
(519,640,ls),
(523,640,o),
(530,636,o),
(531,628,c),
(531,626,o),
(531,622,o),
(530,620,c),
(342,459,o),
(118,225,o),
(-78,54,cs),
(-93,41,o),
(-131,32,o),
(-176,32,cs),
(-186,32,o),
(-191,20,o),
(-190,8,c),
(-190,0,o),
(-185,-2,o),
(-181,-2,cs),
(-145,-2,o),
(-111,1,o),
(-59,1,cs),
(-6,1,o),
(28,0,o),
(60,0,cs,{
name = .hr02;
}),
(70,0,o),
(76,11,o),
(75,21,c,{
name = .hr03;
}),
(75,26,o),
(73,33,o),
(67,33,cs),
(8,33,ls),
(4,33,o),
(0,34,o),
(0,37,cs),
(0,62,o),
(143,180,o),
(271,316,c),
(285,317,o),
(362,320,o),
(466,320,c),
(410,78,ls),
(402,43,o),
(393,32,o),
(359,32,cs),
(316,32,ls),
(306,32,o),
(302,17,o),
(302,7,cs),
(302,2,o),
(304,-2,o),
(308,-2,cs),
(337,-2,o),
(360,0,o),
(531,0,cs,{
name = .hr04;
}),
(778,0,l),
(772,-23,l),
(772,-27,o),
(778,-29,o),
(785,-29,cs),
(793,-29,o),
(802,-27,o),
(803,-22,cs),
(822,69,o),
(849,132,o),
(848,139,c),
(848,143,o),
(843,145,o),
(836,145,cs),
(827,145,o),
(817,142,o),
(815,137,cs),
(795,82,l),
(752,56,o),
(660,40,o),
(573,40,cs),
(524,40,ls),
(517,40,o),
(512,45,o),
(512,59,cs),
(512,102,o),
(567,320,o),
(567,320,c),
(656,318,o),
(739,309,o),
(746,305,c),
(746,305,o),
(745,246,o),
(745,244,cs),
(745,240,o),
(749,239,o),
(755,239,cs),
(764,239,o),
(775,242,o),
(776,247,cs),
(779,278,o),
(785,310,o),
(792,339,cs),
(801,380,o),
(816,421,o),
(816,425,cs),
(816,429,o),
(810,432,o),
(803,432,cs),
(795,432,o),
(788,430,o),
(785,425,c),
(761,366,l),
(755,362,o),
(661,354,o),
(573,352,c)
);
},
{
closed = 1;
nodes = (
(473,352,l),
(391,352,o),
(327,357,o),
(314,358,c),
(386,428,o),
(457,493,o),
(518,546,c)
);
}
);
width = 886;
}
);
unicode = 198;
},
{
glyphname = B;
lastChange = "2024-02-02 14:36:21 +0000";
layers = (
{
hints = (
{
horizontal = 1;
place = (-2, 23);
place = (-2, 23);
type = Stem;
},
{
horizontal = 1;
place = (332, 27);
place = (332, 27);
type = Stem;
},
{
horizontal = 1;
place = (631, 29);
place = (631, 29);
type = Stem;
},
{
horizontal = 1;
place = (637, 23);
place = (637, 23);
type = Stem;
},
{
place = (109, 103);
place = (109, 103);
type = Stem;
},
{
place = (414, 109);
place = (414, 109);
type = Stem;
}
);
layerId = "EE525628-5027-49A8-B1A1-7E2F3B98E9F5";
shapes = (
{
closed = 1;
nodes = (
(617,599,o),
(545,671,o),
(400,671,cs),
(173,671,o),
(98,624,o),
(98,593,cs),
(98,584,o),
(103,579,o),
(103,579,c),
(179,616,o),
(243,618,o),
(243,618,c),
(141,207,l),
(112,86,o),
(79,51,o),
(37,44,cs),
(-16,35,o),
(-15,4,o),
(-15,4,c),
(14,12,o),
(41,15,o),
(67,15,cs),
(148,15,o),
(219,-14,o),
(317,-14,cs),
(411,-14,o),
(579,61,o),
(579,195,cs),
(579,263,o),
(517,312,o),
(433,340,c),
(553,362,o),
(617,444,o),
(617,521,cs,{
name = .hr01;
})
);
},
{
closed = 1;
nodes = (
(483,107,o),
(439,50,o),
(376,50,cs),
(303,50,o),
(251,68,o),
(196,68,cs),
(181,68,o),
(168,67,o),
(158,64,c),
(159,67,l),
(229,102,o),
(252,269,o),
(272,336,c),
(407,331,o),
(483,251,o),
(483,162,cs)
);
},
{
closed = 1;
nodes = (
(333,585,ls),
(341,618,o),
(354,631,o),
(374,631,cs,{
name = .hr02;
}),
(467,631,o),
(508,581,o),
(508,525,cs),
(508,454,o),
(444,375,o),
(341,375,cs),
(323,375,o),
(303,378,o),
(283,383,c)
);
}
);
width = 632;
}
);
unicode = 66;
},
{
glyphname = C;
kernLeft = O;
kernRight = C;
lastChange = "2024-02-02 14:39:03 +0000";
layers = (
{
anchors = (
{
name = bottom;
pos = (325,0);
},
{
name = top;
pos = (481,675);
}
);
hints = (
{
horizontal = 1;
place = (-13, 23);
place = (-13, 23);
type = Stem;
},
{
horizontal = 1;
place = (649, 23);
place = (649, 23);
type = Stem;
},
{
horizontal = 1;
place = (657, -20);
target = down;
type = TopGhost;
},
{
place = (-56, 125);
place = (-56, 125);
type = Stem;
},
{
place = (497, 35);
place = (497, 35);
type = Stem;
},
{
place = (530, 13);
place = (530, 13);
type = Stem;
}
);
layerId = "EE525628-5027-49A8-B1A1-7E2F3B98E9F5";
shapes = (
{
closed = 1;
nodes = (
(545,177,o),
(541,172,o),
(519,111,c),
(468,71,o),
(405,46,o),
(351,46,cs),
(237,46,o),
(138,128,o),
(138,262,cs),
(138,449,o),
(259,630,o),
(465,630,cs),
(555,630,o),
(602,603,o),
(603,565,c),
(603,547,o),
(598,530,o),
(591,509,c),
(591,508,o),
(590,507,o),
(590,506,c),
(589,504,o),
(589,503,o),
(589,502,cs),
(589,496,o),
(596,493,o),
(604,493,cs),
(618,493,o),
(638,501,o),
(638,513,cs),
(638,515,ls),
(638,567,o),
(673,655,o),
(701,685,c),
(701,685,o),
(691,697,o),
(680,697,cs),
(676,697,o),
(673,695,o),
(669,692,cs),
(656,679,o),
(648,675,o),
(609,675,c),
(526,684,ls),
(513,685,o),
(500,686,o),
(486,686,cs),
(263,686,o),
(17,498,o),
(17,243,cs),
(17,87,o),
(155,-11,o),
(326,-11,cs),
(399,-11,o),
(458,16,o),
(476,16,cs),
(483,16,o),
(484,12,o),
(484,8,c),
(478,-21,l),
(481,-23,o),
(500,-26,o),
(503,-26,cs),
(526,-26,o),
(523,52,o),
(584,162,c),
(577,178,o),
(569,189,o),
(560,189,cs),
(555,189,o),
(550,185,o),
(545,177,c)
);
}
);
width = 638;
}
);
unicode = 67;
},
{
glyphname = D;
kernRight = O;
lastChange = "2024-02-02 14:36:23 +0000";
layers = (
{
anchors = (
{
name = bottom;
pos = (291,0);
},
{
name = center;
pos = (374,338);
},
{
name = top;
pos = (417,675);
}
);
hints = (
{
horizontal = 1;
place = (-2, 23);
place = (-2, 23);
type = Stem;
},
{
horizontal = 1;
place = (-2, 27);
place = (-2, 27);
type = Stem;
},
{
horizontal = 1;
place = (633, 27);
place = (633, 27);
type = Stem;
},
{
place = (66, 103);
place = (66, 103);
type = Stem;
},
{
place = (506, 125);
place = (506, 125);
type = Stem;
}
);
layerId = "EE525628-5027-49A8-B1A1-7E2F3B98E9F5";
shapes = (
{
closed = 1;
nodes = (
(130,671,o),
(51,624,o),
(51,593,c),
(52,584,o),
(57,579,o),
(57,579,c),
(132,616,o),
(196,618,o),
(196,618,c),
(110,207,ls),
(85,86,o),
(53,51,o),
(11,44,cs),
(-38,35,o),
(-37,4,o),
(-37,4,c),
(-9,12,o),
(18,15,o),
(44,15,cs),
(125,15,o),
(200,-14,o),
(298,-14,cs),
(479,-14,o),
(674,156,o),
(674,362,cs),
(674,624,o),
(502,671,o),
(357,671,cs)
);
},
{
closed = 1;
nodes = (
(266,51,o),
(231,69,o),
(176,69,cs),
(161,69,o),
(148,68,o),
(138,65,c),
(139,68,l),
(208,103,o),
(223,269,o),
(293,585,cs),
(300,618,o),
(312,631,o),
(332,631,cs),
(430,631,o),
(571,596,o),
(571,343,cs),
(571,169,o),
(446,51,o),
(339,51,cs)
);
}
);
width = 690;
}
);
unicode = 68;
},
{
glyphname = Eth;
kernRight = O;
lastChange = "2024-02-02 14:36:25 +0000";
layers = (
{
hints = (
{
horizontal = 1;
place = (-2, 23);
place = (-2, 23);
type = Stem;
},
{
horizontal = 1;
place = (-2, 27);
place = (-2, 27);
type = Stem;
},
{
horizontal = 1;
place = (633, 27);
place = (633, 27);
type = Stem;
},
{
place = (66, 103);
place = (66, 103);
type = Stem;
},
{
place = (506, 125);
place = (506, 125);
type = Stem;
}
);
layerId = "EE525628-5027-49A8-B1A1-7E2F3B98E9F5";
shapes = (
{
closed = 1;
nodes = (
(43,357,o),
(46,311,o),
(77,311,cs),
(90,311,o),
(110,314,o),
(133,317,c),
(110,207,ls),
(85,86,o),
(53,51,o),
(11,44,cs),
(-38,35,o),
(-37,4,o),
(-37,4,c),
(-9,12,o),
(18,15,o),
(44,15,cs),
(125,15,o),
(200,-14,o),
(298,-14,cs),
(479,-14,o),
(674,156,o),
(674,362,cs),
(674,624,o),
(502,671,o),
(357,671,cs),
(130,671,o),
(51,624,o),
(51,593,c),
(52,584,o),
(57,579,o),
(57,579,c),
(132,616,o),
(196,618,o),
(196,618,c),
(143,363,l),
(107,359,o),
(72,357,o),
(43,357,c)
);
},
{
closed = 1;
nodes = (
(266,51,o),
(231,69,o),
(176,69,cs),
(161,69,o),
(148,68,o),
(138,65,c),
(139,68,l),
(186,92,o),
(209,180,o),
(241,335,c),
(284,343,o),
(327,348,o),
(358,350,c),
(359,356,o),
(360,361,o),
(360,366,cs),
(360,380,o),
(353,390,o),
(331,390,cs),
(314,390,o),
(285,384,o),
(250,379,c),
(262,438,o),
(276,507,o),
(293,585,cs),
(300,618,o),
(312,631,o),
(332,631,cs),
(430,631,o),
(571,596,o),
(571,343,cs),
(571,169,o),
(446,51,o),
(339,51,cs)
);
}
);
width = 690;
}
);
unicode = 208;
},
{
glyphname = E;
lastChange = "2024-02-02 14:36:27 +0000";
layers = (
{
anchors = (
{
name = bottom;
pos = (238,0);
},
{
name = ogonek;
pos = (428,10);
},
{
name = top;
pos = (404,675);
},
{
name = topleft;
pos = (132,675);
}
);
hints = (
{
horizontal = 1;
place = (0, 23);
place = (0, 23);
type = Stem;
},
{
horizontal = 1;
place = (0, 27);
place = (0, 27);
type = Stem;
},
{
horizontal = 1;
place = (328, 27);
place = (328, 27);
type = Stem;
},
{
horizontal = 1;
place = (478, -20);
target = down;
type = TopGhost;
},
{
horizontal = 1;
place = (633, 27);
place = (633, 27);
type = Stem;
},
{
place = (62, 103);
place = (62, 103);
type = Stem;
},
{
place = (328, 23);
place = (328, 23);
type = Stem;
},
{
place = (440, 23);
place = (440, 23);
type = Stem;
}
);
layerId = "EE525628-5027-49A8-B1A1-7E2F3B98E9F5";
shapes = (
{
closed = 1;
nodes = (
(525,134,l),
(524,140,o),
(519,142,o),
(513,142,cs),
(504,142,o),
(492,136,o),
(492,131,c),
(467,81,l),
(435,57,o),
(390,47,o),
(350,47,cs),
(277,47,o),
(226,65,o),
(171,65,cs),
(156,65,o),
(143,64,o),
(133,61,c),
(134,64,l),
(205,99,o),
(229,251,o),
(251,318,c),
(261,318,o),
(376,316,o),
(428,303,c),
(426,273,o),
(425,252,o),
(425,246,cs),
(425,239,o),
(432,239,o),
(437,239,c),
(456,240,o),
(460,249,o),
(461,263,cs),
(463,293,o),
(469,317,o),
(476,338,cs),
(489,376,o),
(507,408,o),
(507,426,cs),
(507,430,o),
(500,432,o),
(493,432,cs),
(487,432,o),
(480,431,o),
(478,429,cs),
(468,421,o),
(460,395,o),
(449,366,c),
(395,361,o),
(332,359,o),
(295,359,cs),
(279,359,o),
(268,359,o),
(264,360,c),
(326,585,ls),
(335,618,o),
(349,631,o),
(369,631,cs),
(456,631,o),
(536,626,o),
(548,602,cs),
(554,591,o),
(555,579,o),
(555,568,cs),
(555,558,o),
(554,549,o),
(554,540,cs),
(554,533,o),
(568,532,o),
(572,532,cs),
(585,532,o),
(586,537,o),
(586,542,cs),
(586,592,o),
(620,673,o),
(620,694,cs),
(620,697,o),
(616,701,o),
(609,701,cs),
(585,701,o),
(587,671,o),
(584,671,c),
(553,670,o),
(528,670,o),
(505,670,cs),
(460,670,o),
(427,671,o),
(396,671,cs),
(169,671,o),
(89,624,o),
(88,593,c),
(88,584,o),
(93,579,o),
(93,579,c),
(170,616,o),
(236,618,o),
(236,618,c),
(119,207,ls),
(85,86,o),
(51,51,o),
(9,44,cs),
(-43,35,o),
(-43,4,o),
(-43,4,c),
(-14,12,o),
(13,15,o),
(39,15,cs),
(120,15,o),
(191,-14,o),
(289,-14,cs),
(374,-14,o),
(444,13,o),
(444,13,c),
(439,0,o),
(434,-16,o),
(434,-24,cs),
(434,-41,o),
(453,-37,o),
(463,-37,c)
);
}
);
width = 584;
}
);
unicode = 69;
},
{
glyphname = F;
layers = (
{
hints = (
{
horizontal = 1;
place = (-2, 23);
place = (-2, 23);
type = Stem;
},
{
horizontal = 1;
place = (313, 32);
place = (313, 32);
type = Stem;
},
{
horizontal = 1;
place = (466, -20);
target = down;
type = TopGhost;
},
{
horizontal = 1;
place = (625, 35);
place = (625, 35);
type = Stem;
},
{
horizontal = 1;
place = (637, 23);
place = (637, 23);
type = Stem;
},
{
place = (74, 103);
place = (74, 103);
type = Stem;
},
{
place = (340, 23);
place = (340, 23);
type = Stem;
}
);
layerId = "EE525628-5027-49A8-B1A1-7E2F3B98E9F5";
shapes = (
{
closed = 1;
nodes = (
(203,29,o),
(171,39,o),
(125,39,c),
(191,95,o),
(219,240,o),
(236,307,c),
(246,307,o),
(361,305,o),
(414,292,c),
(414,262,o),
(415,241,o),
(415,235,c),
(416,228,o),
(425,228,o),
(430,228,c),
(449,229,o),
(450,238,o),
(450,252,cs),
(450,282,o),
(454,306,o),
(460,327,cs),
(470,364,o),
(485,395,o),
(485,413,c),
(484,419,o),
(477,421,o),
(470,421,cs),
(464,421,o),
(457,420,o),
(456,418,c),
(446,410,o),
(440,384,o),
(431,355,c),
(377,350,o),
(314,348,o),
(277,348,cs),
(261,348,o),
(250,348,o),
(246,349,c),
(294,585,ls),
(301,618,o),
(313,631,o),
(333,631,cs),
(420,631,o),
(501,626,o),
(514,602,c),
(521,591,o),
(523,579,o),
(524,568,c),
(524,558,o),
(524,549,o),
(525,540,c),
(525,533,o),
(539,532,o),
(543,532,cs),
(556,532,o),
(557,537,o),
(557,542,cs),
(557,552,ls),
(557,601,o),
(580,671,o),
(580,693,cs),
(580,694,o),
(573,701,o),
(568,701,cs),
(544,701,o),
(549,671,o),
(546,671,c),
(515,670,o),
(490,670,o),
(467,670,cs),
(422,670,o),
(389,671,o),
(358,671,cs),
(152,671,o),
(57,630,o),
(57,594,cs),
(57,589,o),
(59,584,o),
(63,579,c),
(137,616,o),
(201,618,o),
(201,618,c),
(115,207,ls),
(89,86,o),
(58,51,o),
(16,44,cs),
(-34,35,o),
(-32,4,o),
(-32,4,c),
(-3,12,o),
(22,15,o),
(48,15,c),
(208,-4,l),
(239,-4,o),
(250,29,o),
(250,29,c)
);
}
);
width = 544;
}
);
unicode = 70;
},
{
glyphname = G;
kernLeft = O;
kernRight = G;
lastChange = "2024-02-02 12:31:02 +0000";
layers = (
{
anchors = (
{
name = bottom;
pos = (279,0);
},
{
name = top;
pos = (475,675);
}
);
hints = (
{
horizontal = 1;
place = (-13, 27);
place = (-13, 27);
type = Stem;
},
{
horizontal = 1;
place = (249, 23);
place = (249, 23);
type = Stem;
},
{
horizontal = 1;
place = (649, 23);
place = (649, 23);
type = Stem;
},
{
place = (-34, 125);
place = (-34, 125);
type = Stem;
},
{
place = (486, 114);
place = (486, 114);
type = Stem;
},
{
place = (524, 26);
place = (524, 26);
type = Stem;
}
);
layerId = "EE525628-5027-49A8-B1A1-7E2F3B98E9F5";
shapes = (
{
closed = 1;
nodes = (
(614,293,o),
(569,291,o),
(526,291,cs),
(445,291,o),
(432,294,o),
(389,297,c),
(381,297,o),
(376,284,o),
(376,272,cs),
(376,263,o),
(376,250,o),
(386,250,c),
(408,252,o),
(416,253,o),
(430,253,cs),
(474,253,ls),
(490,253,o),
(494,247,o),
(494,233,c),
(494,233,o),
(492,133,o),
(469,72,c),
(430,55,o),
(391,43,o),
(345,43,cs),
(227,43,o),
(130,131,o),
(130,262,cs),
(130,450,o),
(254,630,o),
(463,630,cs),
(553,630,o),
(600,603,o),
(600,565,cs,{
name = .hr02;
}),
(600,546,o),
(594,528,o),
(586,506,c),
(577,485,o),
(634,492,o),
(634,513,cs),
(634,565,o),
(672,655,o),
(700,685,c),
(700,685,o),
(684,706,o),
(669,692,cs),
(655,679,o),
(647,675,o),
(608,675,c),
(525,684,ls),
(291,709,o),
(8,510,o),
(8,243,cs),
(8,81,o),
(145,-11,o),
(333,-11,cs),
(435,-11,o),
(483,21,o),
(501,21,cs),
(508,21,o),
(509,17,o),
(509,13,cs),
(509,-20,o),
(487,-72,o),
(463,-117,c),
(468,-125,o),
(474,-127,o),
(479,-127,cs),
(509,-127,o),
(552,-65,o),
(552,26,cs),
(552,59,o),
(553,74,o),
(553,88,cs),
(553,178,o),
(561,238,o),
(596,253,cs),
(606,258,o),
(627,262,o),
(640,262,cs),
(653,262,o),
(663,283,o),
(663,293,cs),
(663,296,o),
(661,300,o),
(658,300,c,{
name = .hr01;
})
);
}
);
width = 666;
}
);
unicode = 71;
},
{
glyphname = H;
layers = (
{
hints = (
{
horizontal = 1;
place = (-2, 23);
place = (-2, 23);
type = Stem;
},
{
horizontal = 1;
place = (322, 32);
place = (322, 32);
type = Stem;
},
{
horizontal = 1;
place = (637, 23);
place = (637, 23);
type = Stem;
},
{
place = (56, 103);
place = (56, 103);
type = Stem;
},
{
place = (516, 103);
place = (516, 103);
type = Stem;
}
);
layerId = "EE525628-5027-49A8-B1A1-7E2F3B98E9F5";
shapes = (
{
closed = 1;
nodes = (
(618,31,o),
(586,41,o),
(540,41,c),
(608,97,o),
(643,241,o),
(723,586,cs),
(731,619,o),
(737,636,o),
(753,636,cs),
(799,636,l),
(805,643,o),
(806,649,o),
(806,658,cs),
(806,665,o),
(794,673,o),
(776,670,cs),
(689,656,o),
(625,668,o),
(588,668,cs),
(569,668,o),
(562,665,o),
(562,646,cs),
(562,641,o),
(565,635,o),
(569,630,c),
(605,637,o),
(629,631,o),
(629,631,c),
(564,364,l),
(498,357,o),
(361,350,o),
(258,354,c),
(275,419,o),
(293,495,o),
(314,586,cs),
(322,619,o),
(328,636,o),
(344,636,cs),
(364,636,o),
(390,635,o),
(390,635,c),
(400,635,o),
(422,628,o),
(422,667,cs),
(422,674,o),
(304,665,o),
(286,665,cs),
(207,665,o),
(75,649,o),
(72,598,c),
(72,593,o),
(74,589,o),
(78,584,c),
(153,621,o),
(219,623,o),
(219,623,c),
(117,207,ls),
(88,86,o),
(60,43,o),
(15,44,cs),
(-34,45,o),
(-31,4,o),
(-31,4,c),
(6,10,o),
(20,13,o),
(231,-4,c),
(250,-4,o),
(256,3,o),
(256,14,cs),
(256,20,o),
(255,32,o),
(251,33,c),
(197,33,o),
(174,41,o),
(128,41,c),
(174,79,o),
(207,158,o),
(248,313,c),
(264,313,o),
(440,317,o),
(551,311,c),
(526,207,ls),
(497,86,o),
(482,53,o),
(436,46,cs),
(387,39,o),
(388,4,o),
(388,4,c),
(416,12,o),
(431,15,o),
(457,15,c),
(621,-4,l),
(652,-4,o),
(665,31,o),
(665,31,c)
);
}
);
width = 738;
}
);
unicode = 72;
},
{
glyphname = Hbar;
lastChange = "2024-02-02 12:41:17 +0000";
layers = (
{
layerId = "EE525628-5027-49A8-B1A1-7E2F3B98E9F5";
shapes = (
{
closed = 1;
nodes = (
(638,31,o),
(606,41,o),
(560,41,c),
(628,97,o),
(663,241,o),
(743,586,cs),
(751,619,o),
(757,636,o),
(773,636,cs),
(819,636,l),
(825,643,o),
(826,649,o),
(826,658,cs),
(826,665,o),
(814,673,o),
(796,670,cs),
(709,656,o),
(645,668,o),
(608,668,cs),
(589,668,o),
(582,665,o),
(582,646,cs),
(582,641,o),
(585,635,o),
(589,630,c),
(625,637,o),
(649,631,o),
(649,631,c),
(584,364,l),
(518,357,o),
(381,350,o),
(278,354,c),
(295,419,o),
(313,495,o),
(334,586,cs),
(342,619,o),
(348,636,o),
(364,636,cs),
(384,636,o),
(410,635,o),
(410,635,c),
(420,635,o),
(442,628,o),
(442,667,cs),
(442,674,o),
(324,665,o),
(306,665,cs),
(227,665,o),
(95,649,o),
(92,598,c),
(92,593,o),
(94,589,o),
(98,584,c),
(173,621,o),
(239,623,o),
(239,623,c),
(137,207,ls),
(107,86,o),
(80,43,o),
(35,44,cs),
(-14,45,o),
(-11,4,o),
(-11,4,c),
(26,10,o),
(40,13,o),
(251,-4,c),
(270,-4,o),
(276,3,o),
(276,14,cs),
(276,20,o),
(275,32,o),
(271,33,c),
(217,33,o),
(194,41,o),
(148,41,c),
(194,79,o),
(227,158,o),
(268,313,c),
(284,313,o),
(460,317,o),
(571,311,c),
(546,207,ls),
(517,86,o),
(502,53,o),
(456,46,cs),
(407,39,o),
(408,4,o),
(408,4,c),
(436,12,o),
(451,15,o),
(477,15,c),
(641,-4,l),
(672,-4,o),
(685,31,o),
(685,31,c)
);
},
{
closed = 1;
nodes = (
(772,526,o),
(174,521,o),
(83,521,c),
(83,521,o),
(82,477,o),
(120,477,cs),
(819,477,l),
(822,511,o),
(807,526,o),
(772,526,c)
);
}
);
width = 778;
}
);
unicode = 294;
},
{
glyphname = I;
lastChange = "2024-02-02 12:04:57 +0000";
layers = (
{
anchors = (
{
name = bottom;
pos = (143,0);
},
{
name = ogonek;
pos = (304,10);
},
{
name = top;
pos = (309,675);
},
{
name = topleft;
pos = (132,675);
}
);
hints = (
{
horizontal = 1;
place = (-2, 23);
place = (-2, 23);
type = Stem;
},
{
horizontal = 1;
place = (637, 23);
place = (637, 23);
type = Stem;
},
{
place = (99, 103);
place = (99, 103);
type = Stem;
}
);
layerId = "EE525628-5027-49A8-B1A1-7E2F3B98E9F5";
shapes = (
{
closed = 1;
nodes = (
(227,31,o),
(195,41,o),
(149,41,c),
(217,97,o),
(252,241,o),
(332,586,cs),
(340,619,o),
(346,636,o),
(362,636,cs),
(382,636,o),
(420,636,o),
(420,636,c),
(425,644,o),
(433,649,o),
(433,658,cs),
(433,665,o),
(430,671,o),
(412,671,cs),
(234,671,o),
(96,649,o),
(93,598,c),
(93,593,o),
(95,589,o),
(99,584,c),
(174,621,o),
(240,623,o),
(240,623,c),
(138,207,ls),
(109,86,o),
(81,53,o),
(35,46,cs),
(-14,39,o),
(-13,4,o),
(-13,4,c),
(15,12,o),
(40,15,o),
(66,15,c),
(230,-4,l),
(261,-4,o),
(274,31,o),
(274,31,c)
);
}
);
width = 394;
}
);
unicode = 73;
},
{
glyphname = J;
lastChange = "2024-02-02 14:39:11 +0000";
layers = (
{
anchors = (
{
name = bottom;
pos = (120,0);
},
{
name = top;
pos = (286,675);
}
);
hints = (
{
horizontal = 1;
place = (-263, 22);
place = (-263, 22);
type = Stem;
},
{
horizontal = 1;
place = (637, 23);
place = (637, 23);
type = Stem;
},
{
place = (42, 103);
place = (42, 103);
type = Stem;
}
);
layerId = "EE525628-5027-49A8-B1A1-7E2F3B98E9F5";
shapes = (
{
closed = 1;
nodes = (
(139,-54,o),
(165,44,o),
(309,586,cs),
(318,619,o),
(324,636,o),
(340,636,cs),
(360,636,o),
(398,636,o),
(398,636,c),
(403,644,o),
(411,649,o),
(411,658,cs),
(411,665,o),
(408,671,o),
(390,671,cs),
(212,671,o),
(77,649,o),
(73,598,c),
(73,593,o),
(75,589,o),
(79,584,c),
(154,621,o),
(220,623,o),
(220,623,c),
(68,64,o),
(8,-208,o),
(-94,-208,cs),
(-128,-208,o),
(-167,-196,o),
(-194,-173,c),
(-216,-184,o),
(-228,-207,o),
(-228,-228,cs),
(-228,-252,o),
(-216,-273,o),
(-180,-273,cs),
(-80,-273,o),
(-9,-212,o),
(41,-158,cs)
);
}
);
width = 348;
}
);
unicode = 74;
},
{
glyphname = K;
kernRight = K;
lastChange = "2024-02-02 12:31:07 +0000";
layers = (
{
anchors = (
{
name = bottom;
pos = (339,0);
},
{
name = top;
pos = (444,675);
}
);
hints = (
{
horizontal = 1;
place = (-2, 23);
place = (-2, 23);
type = Stem;
},
{
horizontal = 1;
place = (637, 23);
place = (637, 23);
type = Stem;
},
{
place = (63, 103);
place = (63, 103);
type = Stem;
},
{
place = (407, 148);
place = (407, 148);
type = Stem;
}
);
layerId = "EE525628-5027-49A8-B1A1-7E2F3B98E9F5";
shapes = (
{
closed = 1;
nodes = (
(203,31,o),
(171,41,o),
(125,41,c),
(167,75,o),
(198,145,o),
(234,274,c),
(250,287,o),
(268,301,o),
(289,319,c),
(395,262,o),
(449,-2,o),
(481,-2,cs),
(500,-2,ls),
(549,-2,o),
(645,-2,o),
(645,12,cs),
(645,20,o),
(639,33,o),
(639,33,c),
(639,33,o),
(585,27,o),
(566,27,cs),
(544,27,o),
(491,301,o),
(367,380,c),
(367,383,l),
(447,452,o),
(538,533,o),
(611,603,c),
(632,621,o),
(663,630,o),
(688,630,c),
(688,630,o),
(692,640,o),
(692,649,cs),
(692,657,o),
(689,664,o),
(678,664,c),
(646,659,o),
(606,656,o),
(568,656,cs),
(548,656,o),
(539,657,o),
(512,657,cs),
(501,657,o),
(496,649,o),
(496,627,c),
(512,629,o),
(516,630,o),
(526,630,cs),
(541,630,o),
(549,627,o),
(549,620,cs),
(549,613,o),
(542,597,o),
(524,577,cs),
(432,475,o),
(342,412,o),
(252,342,c),
(270,413,o),
(287,486,o),
(311,589,cs),
(319,622,o),
(325,639,o),
(341,639,cs),
(361,639,o),
(370,638,o),
(370,638,c),
(370,638,o),
(376,646,o),
(376,656,cs),
(376,664,o),
(357,666,o),
(335,666,cs),
(311,666,o),
(284,663,o),
(277,663,cs),
(156,663,o),
(120,649,o),
(120,626,cs),
(120,622,o),
(121,618,o),
(123,613,c),
(175,628,o),
(209,629,o),
(215,629,cs),
(216,629,o),
(219,628,o),
(114,207,cs),
(84,87,o),
(57,53,o),
(11,46,cs),
(-38,39,o),
(-37,4,o),
(-37,4,c),
(-9,12,o),
(16,15,o),
(42,15,c),
(206,-4,l),
(237,-4,o),
(250,31,o),
(250,31,c)
);
}
);
width = 664;
}
);
unicode = 75;
},
{
glyphname = L;
kernRight = L;
lastChange = "2024-02-08 10:55:27 +0000";
layers = (
{
anchors = (
{
name = bottom;
pos = (225,0);
},
{
name = center;
pos = (308,338);
},
{
name = top;
pos = (371,675);
},
{
name = topright;
pos = (500,675);
}
);
hints = (
{
horizontal = 1;
place = (-2, 23);
place = (-2, 23);
type = Stem;
},
{
horizontal = 1;
place = (-2, 27);
place = (-2, 27);
type = Stem;
},
{
horizontal = 1;
place = (637, 23);
place = (637, 23);
type = Stem;
},
{
place = (83, 103);
place = (83, 103);
type = Stem;
},
{
place = (540, 20);
place = (540, 20);
type = Stem;
}
);
layerId = "EE525628-5027-49A8-B1A1-7E2F3B98E9F5";
shapes = (
{
closed = 1;
nodes = (
(542,141,l),
(542,147,o),
(537,149,o),
(531,149,cs),
(522,149,o),
(509,143,o),
(509,138,c),
(483,85,l),
(441,56,o),
(390,52,o),
(343,52,cs),
(274,52,o),
(244,73,o),
(201,73,cs),
(185,73,o),
(167,70,o),
(144,62,c),
(145,65,l),
(219,100,o),
(262,251,o),
(286,318,cs),
(390,615,ls),
(399,642,o),
(425,642,o),
(445,642,cs),
(468,642,o),
(469,674,o),
(469,674,c),
(245,673,o),
(145,625,o),
(145,591,cs),
(145,583,o),
(149,579,o),
(149,579,c),
(229,616,o),
(287,620,o),
(287,620,c),
(151,210,l),
(110,89,o),
(70,51,o),
(28,44,cs),
(-24,35,o),
(-26,4,o),
(-26,4,c),
(3,12,o),
(30,15,o),
(56,15,cs),
(137,15,o),
(203,-14,o),
(301,-14,cs),
(386,-14,o),
(452,13,o),
(452,13,c),
(447,0,o),
(440,-16,o),
(440,-24,cs),
(440,-37,o),
(458,-37,o),
(468,-37,c)
);
}
);
width = 558;
}
);
unicode = 76;
},
{
glyphname = Lslash;
kernRight = L;
lastChange = "2024-02-02 12:31:12 +0000";
layers = (
{
hints = (
{
horizontal = 1;
place = (-2, 23);
place = (-2, 23);
type = Stem;
},
{
horizontal = 1;
place = (-2, 27);
place = (-2, 27);
type = Stem;
},
{
horizontal = 1;
place = (637, 23);
place = (637, 23);
type = Stem;
},
{
place = (83, 103);
place = (83, 103);
type = Stem;
},
{
place = (540, 20);
place = (540, 20);
type = Stem;
}
);
layerId = "EE525628-5027-49A8-B1A1-7E2F3B98E9F5";
shapes = (
{
closed = 1;
nodes = (
(542,141,l),
(542,147,o),
(537,149,o),
(531,149,cs),
(522,149,o),
(509,143,o),
(509,138,c),
(483,85,l),
(441,56,o),
(390,52,o),
(343,52,cs),
(274,52,o),
(244,73,o),
(201,73,cs),
(185,73,o),
(167,70,o),
(144,62,c),
(145,65,l),
(219,100,o),
(262,251,o),
(286,318,cs),
(296,346,l),
(436,413,l),
(447,420,o),
(451,433,o),
(451,443,cs),
(451,451,o),
(448,457,o),
(444,454,c),
(310,386,l),
(390,615,ls),
(399,642,o),
(425,642,o),
(445,642,cs),
(468,642,o),
(469,674,o),
(469,674,c),
(245,673,o),
(145,625,o),
(145,591,cs),
(145,583,o),
(149,579,o),
(149,579,c),
(229,616,o),
(287,620,o),
(287,620,c),
(194,343,l),
(160,327,o),
(60,284,o),
(51,279,cs),
(42,275,o),
(38,262,o),
(38,251,cs),
(38,241,o),
(41,234,o),
(48,236,c),
(54,239,o),
(133,275,o),
(179,297,c),
(151,212,ls),
(110,91,o),
(70,51,o),
(28,44,cs),
(-24,35,o),
(-26,4,o),
(-26,4,c),
(3,12,o),
(30,15,o),
(56,15,cs),
(137,15,o),
(203,-14,o),
(301,-14,cs),
(386,-14,o),
(452,13,o),
(452,13,c),
(447,0,o),
(440,-16,o),
(440,-24,cs),
(440,-37,o),
(458,-37,o),
(468,-37,c)
);
}
);
width = 558;
}
);
unicode = 321;
},
{
glyphname = M;
lastChange = "2024-02-02 14:38:32 +0000";
layers = (
{
hints = (
{
horizontal = 1;
place = (0, 27);
place = (0, 27);
type = Stem;
},
{
horizontal = 1;
place = (751, 53);
place = (751, 53);
type = Stem;
},
{
place = (-34, 1094);
place = (-34, 1094);
type = Stem;
}
);
layerId = "EE525628-5027-49A8-B1A1-7E2F3B98E9F5";
shapes = (
{
closed = 1;
nodes = (
(526,225,o),
(679,433,o),
(768,559,c),
(738,444,o),
(661,127,o),
(639,57,cs),
(635,43,o),
(620,32,o),
(600,32,cs),
(559,32,ls),
(547,32,o),
(542,16,o),
(541,6,c),
(541,1,o),
(543,-2,o),
(546,-2,cs),
(590,-2,o),
(650,1,o),
(687,1,cs),
(719,1,o),
(810,0,o),
(810,0,c),
(820,0,o),
(827,13,o),
(828,23,c),
(828,29,o),
(825,33,o),
(818,33,cs),
(769,33,ls),
(757,33,o),
(756,37,o),
(756,61,cs),
(756,177,o),
(816,431,o),
(877,608,cs),
(886,635,o),
(903,641,o),
(918,641,c),
(962,639,l),
(971,639,o),
(974,649,o),
(974,658,cs),
(974,661,o),
(975,666,o),
(975,671,cs),
(975,677,o),
(974,683,o),
(968,682,c),
(907,678,o),
(854,673,o),
(779,678,c),
(744,584,o),
(618,411,o),
(467,213,c),
(467,213,o),
(399,450,o),
(399,588,cs),
(399,628,o),
(400,643,o),
(405,676,c),
(350,686,o),
(264,687,o),
(192,691,c),
(192,691,o),
(189,680,o),
(189,673,cs),
(189,658,o),
(198,656,o),
(214,656,cs),
(253,656,o),
(277,656,o),
(277,621,cs),
(277,565,o),
(206,402,o),
(170,319,cs),
(125,214,o),
(66,67,o),
(60,57,cs),
(53,45,o),
(45,32,o),
(15,32,cs),
(-16,32,ls),
(-24,32,o),
(-30,19,o),
(-31,9,c),
(-31,3,o),
(-30,-2,o),
(-25,-2,cs),
(8,-2,o),
(40,2,o),
(86,2,cs),
(124,2,o),
(160,0,o),
(193,0,cs),
(205,0,o),
(214,13,o),
(215,23,c),
(215,29,o),
(213,33,o),
(206,33,cs),
(149,33,ls),
(140,33,o),
(130,36,o),
(131,53,cs),
(134,89,o),
(167,173,o),
(223,317,cs),
(243,367,o),
(286,469,o),
(307,533,c),
(329,361,o),
(364,218,o),
(392,123,c),
(382,108,o),
(360,77,o),
(360,77,c),
(367,63,o),
(387,63,o),
(397,74,cs)
);
}
);
width = 897;
}
);
unicode = 77;
},
{
glyphname = N;
kernLeft = N;
kernRight = N;
lastChange = "2024-02-02 14:24:24 +0000";
layers = (
{
anchors = (
{
name = bottom;
pos = (320,0);
},
{
name = top;
pos = (486,675);
}
);
hints = (
{
horizontal = 1;
place = (0, 27);
place = (0, 27);
type = Stem;
},
{
horizontal = 1;
place = (706, 66);
place = (706, 66);
type = Stem;
},
{
place = (-9, 945);
place = (-9, 945);
type = Stem;
}
);
layerId = "EE525628-5027-49A8-B1A1-7E2F3B98E9F5";
shapes = (
{
closed = 1;
nodes = (
(185,35,o),
(147,45,o),
(101,45,c),
(169,103,o),
(202,229,o),
(270,513,c),
(468,163,o),
(578,-3,o),
(615,-3,cs),
(623,-3,o),
(626,2,o),
(626,11,c),
(626,11,o),
(597,76,o),
(597,138,cs),
(597,261,o),
(649,606,o),
(822,606,c),
(834,618,o),
(843,637,o),
(843,654,cs),
(843,673,o),
(831,689,o),
(795,689,cs),
(655,689,o),
(594,467,o),
(545,222,c),
(365,486,o),
(340,684,o),
(194,684,cs),
(115,684,o),
(35,618,o),
(35,618,c),
(35,613,o),
(38,605,o),
(45,605,cs),
(68,605,o),
(95,630,o),
(141,630,cs),
(170,630,o),
(199,629,o),
(229,585,c),
(124,207,l),
(94,86,o),
(64,56,o),
(22,49,cs),
(-27,40,o),
(-29,4,o),
(-29,4,c),
(0,12,o),
(24,15,o),
(50,15,c),
(185,-3,l),
(216,-3,o),
(232,35,o),
(232,35,c)
);
}
);
width = 747;
}
);
unicode = 78;
},
{
glyphname = O;
kernLeft = O;
kernRight = O;
lastChange = "2024-02-08 10:54:03 +0000";
layers = (
{
anchors = (
{
name = bottom;
pos = (292,0);
},
{
name = center;
pos = (375,338);
},
{
name = ogonek;
pos = (548,10);
},
{
name = top;
pos = (458,675);
},
{
name = topleft;
pos = (162,675);
},
{
name = topright;
pos = (754,675);
}
);
hints = (
{
horizontal = 1;
place = (-12, 54);
place = (-12, 54);
type = Stem;
},
{
horizontal = 1;
place = (721, 53);
place = (721, 53);
type = Stem;
},
{
place = (29, 118);
place = (29, 118);
type = Stem;
},
{
place = (569, 120);
place = (569, 120);
type = Stem;
}
);
layerId = "EE525628-5027-49A8-B1A1-7E2F3B98E9F5";
shapes = (
{
closed = 1;
nodes = (
(205,684,o),
(44,426,o),
(44,225,cs),
(44,97,o),
(110,-9,o),
(269,-9,cs),
(504,-9,o),
(654,235,o),
(654,434,cs),
(654,570,o),
(584,684,o),
(422,684,cs)
);
},
{
closed = 1;
nodes = (
(508,625,o),
(548,537,o),
(548,430,cs),
(548,262,o),
(448,46,o),
(297,46,cs),
(196,46,o),
(152,138,o),
(152,249,cs),
(152,416,o),
(253,625,o),
(414,625,cs)
);
}
);
width = 662;
}
);
unicode = 79;
},
{
glyphname = Oslash;
kernLeft = O;
kernRight = O;
lastChange = "2024-02-02 14:37:02 +0000";
layers = (
{
hints = (
{
horizontal = 1;
place = (-12, 54);
place = (-12, 54);
type = Stem;
},
{
horizontal = 1;
place = (721, 53);
place = (721, 53);
type = Stem;
},
{
place = (29, 118);
place = (29, 118);
type = Stem;
},
{
place = (569, 120);
place = (569, 120);
type = Stem;
}
);
layerId = "EE525628-5027-49A8-B1A1-7E2F3B98E9F5";
shapes = (
{
closed = 1;
nodes = (
(699,749,l),
(699,749,o),
(688,766,o),
(672,766,cs),
(663,766,o),
(656,762,o),
(644,746,cs),
(565,641,l),
(529,668,o),
(482,684,o),
(422,684,cs),
(205,684,o),
(44,426,o),
(44,225,cs),
(44,151,o),
(66,84,o),
(115,41,c),
(-6,-120,l),
(3,-132,o),
(11,-137,o),
(20,-137,cs),
(31,-137,o),
(40,-129,o),
(51,-113,c),
(149,18,l),
(181,1,o),
(221,-9,o),
(269,-9,cs),
(504,-9,o),
(654,235,o),
(654,434,cs),
(654,503,o),
(636,567,o),
(596,612,c)
);
},
{
closed = 1;
nodes = (
(459,625,o),
(491,605,o),
(513,572,c),
(177,124,l),
(160,158,o),
(152,202,o),
(152,249,cs),
(152,416,o),
(253,625,o),
(414,625,cs)
);
},
{
closed = 1;
nodes = (
(548,262,o),
(448,46,o),
(297,46,cs),
(256,46,o),
(224,61,o),
(201,86,c),
(534,529,l),
(543,500,o),
(548,466,o),
(548,430,cs)
);
}
);
width = 662;
}
);
unicode = 216;
},
{
glyphname = OE;
kernLeft = O;
lastChange = "2024-02-02 14:33:04 +0000";
layers = (
{
hints = (
{
horizontal = 1;
place = (-13, 27);
place = (-13, 27);
type = Stem;
},
{
horizontal = 1;
place = (0, 23);
place = (0, 23);
type = Stem;
},
{
horizontal = 1;
place = (0, 27);
place = (0, 27);
type = Stem;
},
{
horizontal = 1;
place = (328, 27);
place = (328, 27);
type = Stem;
},
{
horizontal = 1;
place = (478, -20);
target = down;
type = TopGhost;
},
{
horizontal = 1;
place = (633, 27);
place = (633, 27);
type = Stem;
},
{
horizontal = 1;
place = (645, 27);
place = (645, 27);
type = Stem;
},
{
place = (-183, 125);
place = (-183, 125);
type = Stem;
},
{
place = (418, 125);
place = (418, 125);
type = Stem;
},
{
place = (735, 103);
place = (735, 103);
type = Stem;
},
{
place = (1001, 23);
place = (1001, 23);
type = Stem;
},
{
place = (1113, 23);
place = (1113, 23);
type = Stem;
}
);
layerId = "EE525628-5027-49A8-B1A1-7E2F3B98E9F5";
shapes = (
{
closed = 1;
nodes = (
(205,684,o),
(44,426,o),
(44,225,cs),
(44,97,o),
(110,-9,o),
(269,-9,cs),
(340,-9,o),
(403,13,o),
(457,50,c),
(524,48,o),
(701,38,o),
(812,11,c),
(804,-17,l),
(804,-18,o),
(813,-24,o),
(818,-24,cs),
(826,-24,o),
(834,-22,o),
(835,-17,cs),
(848,36,o),
(867,98,o),
(885,138,c),
(885,144,o),
(880,146,o),
(873,146,cs),
(864,146,o),
(854,143,o),
(852,138,cs),
(840,105,l),
(838,105,o),
(835,104,o),
(833,104,c),
(794,96,o),
(751,88,o),
(670,88,cs),
(628,88,o),
(577,90,o),
(512,95,c),
(573,156,o),
(623,245,o),
(642,335,c),
(731,333,o),
(814,311,o),
(821,307,c),
(821,261,ls),
(821,256,o),
(829,255,o),
(832,255,cs),
(841,255,o),
(851,258,o),
(851,263,c),
(854,294,o),
(860,326,o),
(866,355,cs),
(872,385,o),
(879,410,o),
(890,441,c),
(890,448,o),
(884,450,o),
(877,450,cs),
(869,450,o),
(862,448,o),
(859,443,c),
(838,388,l),
(831,384,o),
(736,372,o),
(650,370,c),
(652,390,o),
(654,408,o),
(654,434,cs),
(654,505,o),
(635,570,o),
(593,616,c),
(606,616,o),
(620,617,o),
(635,617,cs),
(741,617,o),
(877,600,o),
(914,586,c),
(914,586,o),
(925,567,o),
(928,546,cs),
(929,534,o),
(934,533,o),
(942,533,cs),
(950,533,o),
(957,536,o),
(957,540,cs),
(957,580,o),
(966,652,o),
(974,705,c),
(974,712,o),
(968,714,o),
(962,714,cs),
(955,714,o),
(947,714,o),
(946,708,c),
(937,673,l),
(556,648,l),
(521,670,o),
(477,684,o),
(422,684,cs)
);
},
{
closed = 1;
nodes = (
(508,625,o),
(548,537,o),
(548,430,cs),
(548,262,o),
(448,46,o),
(297,46,cs),
(196,46,o),
(152,138,o),
(152,249,cs),
(152,416,o),
(253,625,o),
(414,625,cs)
);
}
);
width = 951;
}
);
unicode = 338;
},
{
glyphname = P;
lastChange = "2024-02-02 14:33:08 +0000";
layers = (
{
hints = (
{
horizontal = 1;
place = (0, 27);
place = (0, 27);
type = Stem;
},
{
horizontal = 1;
place = (349, 45);
place = (349, 45);
type = Stem;
},
{
horizontal = 1;
place = (754, 20);
place = (754, 20);
type = Stem;
},
{
place = (469, 111);
place = (469, 111);
type = Stem;
}
);
layerId = "EE525628-5027-49A8-B1A1-7E2F3B98E9F5";
shapes = (
{
closed = 1;
nodes = (
(266,30,o),
(241,39,o),
(195,39,c),
(254,92,o),
(276,250,o),
(289,312,c),
(319,303,o),
(350,299,o),
(380,299,cs),
(510,299,o),
(625,376,o),
(625,477,cs),
(625,608,o),
(482,671,o),
(384,671,cs),
(161,671,o),
(85,626,o),
(85,595,c),
(86,584,o),
(92,579,o),
(92,579,c),
(163,616,o),
(227,618,o),
(227,618,c),
(169,207,ls),
(152,86,o),
(123,44,o),
(83,41,cs),
(38,38,o),
(35,13,o),
(35,6,c),
(35,9,o),
(48,11,o),
(67,11,cs),
(131,11,o),
(274,-3,o),
(284,-4,c),
(311,-4,o),
(320,29,o),
(320,29,c)
);
},
{
closed = 1;
nodes = (
(326,585,ls),
(331,618,o),
(342,631,o),
(362,631,cs),
(440,631,o),
(515,572,o),
(515,482,cs),
(515,397,o),
(444,341,o),
(361,341,cs),
(339,341,o),
(316,345,o),
(294,353,c)
);
}
);
width = 604;
}
);
unicode = 80;
},
{
glyphname = Thorn;
lastChange = "2024-02-02 14:33:11 +0000";
layers = (
{
hints = (
{
horizontal = 1;
place = (-4, 21);
target = up;
type = BottomGhost;
},
{
horizontal = 1;
place = (31, 160);
place = (31, 160);
type = Stem;
},
{
horizontal = 1;
place = (191, 42);
place = (191, 42);
type = Stem;
},
{
horizontal = 1;
place = (513, 41);
place = (513, 41);
type = Stem;
},
{
horizontal = 1;
place = (554, 82);
place = (554, 82);
type = Stem;
},
{
horizontal = 1;
place = (636, 35);
place = (636, 35);
type = Stem;
},
{
place = (458, 109);
place = (458, 109);
type = Stem;
}
);
layerId = "EE525628-5027-49A8-B1A1-7E2F3B98E9F5";
shapes = (
{
closed = 1;
nodes = (
(245,31,o),
(212,41,o),
(166,41,c),
(198,69,o),
(221,119,o),
(244,205,c),
(273,196,o),
(312,191,o),
(342,191,cs),
(472,191,o),
(587,256,o),
(587,369,cs),
(587,485,o),
(474,554,o),
(335,554,cs),
(315,554,l),
(321,586,ls),
(327,619,o),
(332,636,o),
(348,636,cs),
(406,636,l),
(411,644,o),
(418,649,o),
(418,658,cs),
(418,665,o),
(414,671,o),
(396,671,cs,{
name = .hr02;
}),
(218,671,o),
(81,649,o),
(81,598,cs),
(81,593,o),
(84,589,o),
(88,584,c),
(161,621,o),
(227,623,o),
(227,623,c),
(147,207,ls),
(124,86,o),
(98,53,o),
(52,46,cs),
(4,39,o),
(7,4,o),
(7,4,c),
(34,12,o),
(59,15,o),
(85,15,c),
(250,-4,l),
(281,-4,o),
(292,31,o),
(292,31,c,{
name = .hr01;
})
);
},
{
closed = 1;
nodes = (
(414,513,o),
(478,458,o),
(478,372,c),
(473,279,o),
(408,233,o),
(325,233,cs,{
name = .hr03;
}),
(303,233,o),
(276,238,o),
(255,246,c),
(271,313,o),
(282,377,o),
(304,489,c),
(312,506,o),
(323,513,o),
(338,513,cs)
);
}
);
width = 574;
}
);
unicode = 222;
},
{
glyphname = Q;
kernLeft = O;
lastChange = "2024-02-02 14:37:12 +0000";
layers = (
{
hints = (
{
horizontal = 1;
place = (-309, 58);
place = (-309, 58);
type = Stem;
},
{
horizontal = 1;
place = (721, 53);
place = (721, 53);
type = Stem;
},
{
place = (-80, 118);
place = (-80, 118);
type = Stem;
},
{
place = (460, 120);
place = (460, 120);
type = Stem;
}
);
layerId = "EE525628-5027-49A8-B1A1-7E2F3B98E9F5";
shapes = (
{
closed = 1;
nodes = (
(218,684,o),
(59,458,o),
(59,277,cs),
(59,171,o),
(125,68,o),
(253,68,cs),
(328,68,o),
(378,109,o),
(378,128,cs),
(378,132,o),
(373,137,o),
(367,137,c),
(367,137,o),
(347,119,o),
(300,119,cs),
(211,119,o),
(171,203,o),
(171,297,cs),
(171,450,o),
(271,633,o),
(424,633,cs),
(521,633,o),
(559,558,o),
(559,440,cs),
(559,267,o),
(428,-60,o),
(188,-60,cs),
(175,-60,o),
(169,-55,o),
(169,-48,cs),
(169,-39,o),
(183,-29,o),
(218,-29,cs),
(414,-29,o),
(596,-343,o),
(840,-343,cs),
(935,-343,o),
(989,-273,o),
(989,-198,cs),
(989,-156,o),
(957,-132,o),
(918,-132,cs),
(862,-132,o),
(851,-186,o),
(851,-186,c),
(898,-186,o),
(943,-219,o),
(943,-242,cs),
(943,-264,o),
(922,-281,o),
(891,-281,cs),
(720,-281,o),
(471,15,o),
(242,15,cs),
(138,15,o),
(97,-28,o),
(97,-68,cs),
(97,-93,o),
(121,-117,o),
(160,-117,cs),
(412,-117,o),
(666,252,o),
(666,448,cs),
(666,582,o),
(597,684,o),
(428,684,cs)
);
}
);
width = 676;
}
);
unicode = 81;
},
{
glyphname = R;
kernRight = R;
lastChange = "2024-02-02 14:27:32 +0000";
layers = (
{
anchors = (
{
name = bottom;
pos = (324,0);
},
{
name = top;
pos = (356,675);
}
);
hints = (
{
horizontal = 1;
place = (-22, 20);
place = (-22, 20);
type = Stem;
},
{
horizontal = 1;
place = (0, 27);
place = (0, 27);
type = Stem;
},
{
horizontal = 1;
place = (720, 54);
place = (720, 54);
type = Stem;
},
{
place = (457, 118);
place = (457, 118);
type = Stem;
}
);
layerId = "EE525628-5027-49A8-B1A1-7E2F3B98E9F5";
shapes = (
{
closed = 1;
nodes = (
(185,31,o),
(159,39,o),
(129,39,c),
(190,92,o),
(221,250,o),
(237,312,c),
(248,308,o),
(260,305,o),
(272,303,c),
(354,160,ls),
(393,91,o),
(450,-12,o),
(525,-12,cs),
(586,-12,o),
(638,18,o),
(638,34,cs),
(638,42,o),
(629,45,o),
(629,45,c),
(629,45,o),
(607,29,o),
(588,29,cs),
(549,29,o),
(490,114,o),
(468,150,cs),
(422,225,ls),
(402,258,o),
(379,283,o),
(361,300,c),
(477,312,o),
(581,385,o),
(581,486,cs),
(581,611,o),
(447,671,o),
(351,671,cs),
(128,671,o),
(49,626,o),
(48,595,c),
(48,584,o),
(52,578,o),
(52,578,c),
(125,615,o),
(186,617,o),
(186,617,c),
(177,518,o),
(111,207,o),
(111,207,c),
(89,86,o),
(57,44,o),
(17,41,cs),
(-27,38,o),
(-32,14,o),
(-32,6,c),
(-31,9,o),
(-18,11,o),
(0,11,cs),
(63,11,o),
(191,-2,o),
(201,-3,c),
(228,-3,o),
(239,30,o),
(239,30,c)
);
},
{
closed = 1;
nodes = (
(288,585,l),
(295,618,o),
(307,631,o),
(327,631,cs),
(403,631,o),
(472,575,o),
(472,489,c),
(467,397,o),
(393,341,o),
(310,341,cs),
(288,341,o),
(266,345,o),
(244,353,c)
);
}
);
width = 628;
}
);
unicode = 82;
},
{
glyphname = S;
kernLeft = S;
kernRight = S;
lastChange = "2024-02-02 14:38:40 +0000";
layers = (
{
anchors = (
{
name = bottom;
pos = (236,0);
},
{
name = top;
pos = (362,675);
}
);
hints = (
{
horizontal = 1;
place = (-15, 65);
place = (-15, 65);
type = Stem;
},
{
horizontal = 1;
place = (713, 63);
place = (713, 63);
type = Stem;
},
{
place = (132, 104);
place = (132, 104);
type = Stem;
},
{
place = (359, 107);
place = (359, 107);
type = Stem;
}
);
layerId = "EE525628-5027-49A8-B1A1-7E2F3B98E9F5";
shapes = (
{
closed = 1;
nodes = (
(343,67,o),
(284,32,o),
(227,32,cs),
(178,32,o),
(123,68,o),
(98,115,c),
(102,132,o),
(113,167,o),
(113,167,c),
(84,180,o),
(77,155,o),
(71,137,cs),
(43,54,o),
(17,28,o),
(17,9,cs),
(17,0,o),
(24,-3,o),
(31,-3,cs),
(33,-3,o),
(34,-3,o),
(36,-2,cs),
(40,-1,o),
(44,1,o),
(45,3,c),
(45,3,o),
(48,19,o),
(62,44,c),
(102,9,o),
(157,-13,o),
(219,-13,cs),
(330,-13,o),
(438,46,o),
(438,176,cs),
(438,351,o),
(221,417,o),
(221,532,cs),
(221,600,o),
(286,640,o),
(343,640,cs),
(385,640,o),
(421,614,o),
(443,577,c),
(449,557,o),
(448,534,o),
(448,534,c),
(448,520,o),
(476,524,o),
(476,532,c),
(473,578,o),
(484,629,o),
(502,682,c),
(502,682,o),
(482,704,o),
(477,687,c),
(468,665,l),
(434,683,o),
(396,691,o),
(357,691,cs),
(246,691,o),
(136,619,o),
(136,489,cs),
(136,329,o),
(343,250,o),
(343,137,cs)
);
}
);
width = 500;
}
);
unicode = 83;
},
{
color = 4;
glyphname = Germandbls;
lastChange = "2024-02-02 14:27:38 +0000";
layers = (
{
background = {
shapes = (
{
closed = 1;
nodes = (
(404,376,ls),
(394,362,o),
(396,353,o),
(409,351,cs),
(505,331,o),
(634,277,o),
(600,132,cs),
(588,78,o),
(542,25,o),
(479,25,cs),
(381,25,o),
(367,125,o),
(364,176,cs),
(364,181,o),
(357,183,o),
(350,183,cs),
(341,183,o),
(332,180,o),
(331,173,c,{
name = .hr04;
}),
(321,113,o),
(319,28,o),
(326,-15,cs),
(327,-19,o),
(331,-20,o),
(336,-20,cs),
(348,-20,o),
(364,-12,o),
(362,-3,cs),
(359,17,l),
(386,3,o),
(415,-13,o),
(473,-13,cs,{
name = .hr05;
}),
(558,-13,o),
(685,43,o),
(714,171,cs,{
name = .hr01;
}),
(756,351,o),
(605,397,o),
(521,411,c),
(710,647,l),
(717,651,o),
(721,655,o),
(722,660,cs),
(723,666,o),
(723,671,o),
(715,671,cs),
(270,671,ls),
(223,671,o),
(182,673,o),
(144,673,cs),
(137,673,o),
(134,665,o),
(133,659,cs),
(130,647,o),
(131,640,o),
(136,640,cs),
(194,640,ls),
(203,640,o),
(213,629,o),
(195,552,cs,{
name = .hr02;
}),
(86,78,ls),
(78,43,o),
(68,32,o),
(34,32,cs),
(-9,32,ls),
(-14,32,o),
(-19,23,o),
(-21,14,cs),
(-23,6,o),
(-23,-2,o),
(-17,-2,cs,{
name = .hr03;
}),
(15,-2,o),
(39,1,o),
(124,1,cs,{
name = .hr04;
}),
(164,1,o),
(208,0,o),
(250,0,cs,{
name = .hr05;
}),
(257,0,o),
(259,8,o),
(261,14,cs),
(264,26,o),
(264,40,o),
(259,40,cs),
(201,40,ls),
(192,40,o),
(182,51,o),
(200,128,cs),
(306,588,ls),
(315,624,o),
(326,632,o),
(350,634,c),
(601,634,l)
);
}
);
};
layerId = "EE525628-5027-49A8-B1A1-7E2F3B98E9F5";
shapes = (
{
closed = 1;
nodes = (
(234,671,o),
(96,649,o),
(93,598,c),
(93,593,o),
(95,589,o),
(99,584,c),
(174,621,o),
(240,623,o),
(240,623,c),
(138,207,ls),
(108,86,o),
(81,53,o),
(35,46,cs),
(-14,39,o),
(-13,4,o),
(-13,4,c),
(15,12,o),
(40,15,o),
(66,15,c),
(230,-4,l),
(261,-4,o),
(274,31,o),
(274,31,c),
(227,31,o),
(195,41,o),
(149,41,c),
(217,97,o),
(252,241,o),
(332,586,cs),
(340,619,o),
(346,637,o),
(362,636,cs),
(590,623,l),
(403,377,ls),
(395,367,o),
(395,354,o),
(409,351,cs),
(505,331,o),
(623,255,o),
(623,149,cs),
(623,72,o),
(564,32,o),
(507,32,cs),
(458,32,o),
(403,68,o),
(378,115,c),
(382,132,o),
(393,167,o),
(393,167,c),
(364,180,o),
(357,155,o),
(351,137,cs),
(323,54,o),
(297,28,o),
(297,9,cs),
(297,0,o),
(304,-3,o),
(311,-3,cs),
(313,-3,o),
(314,-3,o),
(316,-2,cs),
(320,-1,o),
(324,1,o),
(325,3,c),
(325,3,o),
(328,19,o),
(342,44,c),
(382,9,o),
(437,-13,o),
(499,-13,cs),
(610,-13,o),
(718,48,o),
(718,190,cs),
(718,333,o),
(605,397,o),
(521,411,c),
(710,647,l),
(716,651,o),
(721,655,o),
(722,660,cs),
(723,666,o),
(721,671,o),
(715,671,cs),
(412,671,l)
);
}
);
width = 778;
}
);
metricLeft = I;
metricRight = S;
unicode = 7838;
},
{
glyphname = T;
kernLeft = T;
kernRight = T;
lastChange = "2024-02-08 10:55:58 +0000";
layers = (
{
anchors = (
{
name = bottom;
pos = (297,0);
},
{
name = center;
pos = (380,338);
},
{
name = top;
pos = (423,675);
}
);
hints = (
{
horizontal = 1;
place = (0, 27);
place = (0, 27);
type = Stem;
},
{
horizontal = 1;
place = (586, 65);
place = (586, 65);
type = Stem;
},
{
horizontal = 1;
place = (763, 52);
place = (763, 52);
type = Stem;
},
{
place = (-9, 95);
place = (-9, 95);
type = Stem;
},
{
place = (519, 99);
place = (519, 99);
type = Stem;
}
);
layerId = "EE525628-5027-49A8-B1A1-7E2F3B98E9F5";
shapes = (
{
closed = 1;
nodes = (
(465,607,l),
(536,600,o),
(588,595,o),
(657,595,cs),
(671,595,o),
(683,613,o),
(693,634,cs),
(705,657,o),
(714,685,o),
(714,694,cs),
(714,697,o),
(712,698,o),
(707,698,cs),
(701,698,o),
(698,696,o),
(694,687,cs),
(681,658,o),
(642,649,o),
(616,649,cs),
(596,649,o),
(421,667,o),
(281,667,cs),
(144,667,o),
(62,561,o),
(62,498,cs),
(62,463,o),
(80,448,o),
(102,448,cs),
(122,448,o),
(146,460,o),
(165,482,c),
(151,512,o),
(148,531,o),
(148,550,cs),
(148,607,o),
(192,620,o),
(265,620,cs),
(325,620,o),
(355,614,o),
(356,598,c),
(356,583,o),
(353,563,o),
(347,535,cs),
(252,78,l),
(246,43,o),
(237,32,o),
(203,32,cs),
(160,32,ls),
(154,32,o),
(146,24,o),
(147,8,c),
(147,1,o),
(149,-2,o),
(153,-2,cs),
(185,-2,o),
(209,1,o),
(294,1,cs),
(333,1,o),
(422,0,o),
(422,0,c),
(431,1,o),
(431,21,o),
(431,27,cs),
(431,31,o),
(429,33,o),
(427,33,cs),
(369,33,ls),
(364,33,o),
(359,36,o),
(358,53,cs),
(356,79,o),
(360,101,o),
(364,121,cs)
);
}
);
width = 642;
}
);
unicode = 84;
},
{
glyphname = U;
kernLeft = U;
kernRight = U;
lastChange = "2024-02-02 14:39:30 +0000";
layers = (
{
anchors = (
{
name = bottom;
pos = (308,0);
},
{
name = ogonek;
pos = (404,6);
},
{
name = top;
pos = (484,675);
},
{
name = topright;
pos = (816,675);
}
);
hints = (
{
horizontal = 1;
place = (-17, 84);
place = (-17, 84);
type = Stem;
},
{
horizontal = 1;
place = (732, 27);
place = (732, 27);
type = Stem;
},
{
place = (-12, 100);
place = (-12, 100);
type = Stem;
}
);
layerId = "EE525628-5027-49A8-B1A1-7E2F3B98E9F5";
shapes = (
{
closed = 1;
nodes = (
(790,640,ls),
(795,640,o),
(804,649,o),
(804,665,cs),
(804,668,ls),
(804,671,o),
(803,674,o),
(800,674,cs),
(768,674,o),
(742,671,o),
(699,671,cs),
(630,671,o),
(602,673,o),
(576,673,c),
(563,672,o),
(564,646,o),
(562,637,c),
(625,639,l),
(631,639,o),
(634,635,o),
(635,619,c),
(635,521,o),
(583,54,o),
(337,54,cs),
(262,54,o),
(218,104,o),
(213,197,c),
(213,350,o),
(288,595,o),
(288,595,c),
(295,630,o),
(305,641,o),
(339,641,cs),
(376,641,ls),
(386,641,o),
(393,660,o),
(393,671,cs),
(393,676,o),
(391,680,o),
(389,680,cs),
(357,680,o),
(333,672,o),
(248,672,cs),
(216,672,o),
(109,677,o),
(109,677,c),
(90,677,o),
(83,660,o),
(83,639,c),
(187,635,l),
(187,561,o),
(113,404,o),
(105,178,c),
(105,58,o),
(194,-15,o),
(304,-15,cs),
(670,-15,o),
(693,640,o),
(762,640,cs)
);
}
);
width = 724;
}
);
unicode = 85;
},
{
glyphname = V;
kernLeft = V;
kernRight = V;
lastChange = "2024-02-08 10:55:53 +0000";
layers = (
{
hints = (
{
horizontal = 1;
place = (-23, 20);
place = (-23, 20);
type = Stem;
},
{
horizontal = 1;
place = (732, 27);
place = (732, 27);
type = Stem;
},
{
horizontal = 1;
place = (830, 66);
place = (830, 66);
type = Stem;
},
{
place = (-70, 869);
place = (-70, 869);
type = Stem;
}
);
layerId = "EE525628-5027-49A8-B1A1-7E2F3B98E9F5";
shapes = (
{
closed = 1;
nodes = (
(332,681,l),
(254,670,o),
(189,670,o),
(112,670,cs),
(80,670,o),
(68,628,o),
(68,628,c),
(149,635,l),
(159,635,o),
(159,631,o),
(159,624,cs),
(159,614,o),
(132,452,o),
(132,261,cs),
(132,113,o),
(148,-19,o),
(180,-19,cs),
(275,-19,o),
(615,474,o),
(615,654,cs),
(615,670,o),
(607,675,o),
(587,675,cs),
(557,675,o),
(514,669,o),
(480,655,cs),
(468,650,o),
(460,639,o),
(460,626,c),
(460,626,o),
(485,634,o),
(500,634,cs),
(517,634,o),
(523,624,o),
(523,603,cs),
(523,443,o),
(344,181,o),
(250,74,c),
(244,74,l),
(231,151,o),
(228,239,o),
(228,327,cs),
(228,437,o),
(236,551,o),
(273,637,c),
(282,644,o),
(290,645,o),
(303,645,cs),
(308,645,l)
);
}
);
width = 570;
}
);
unicode = 86;
},
{
glyphname = W;
kernLeft = V;
kernRight = V;
lastChange = "2024-02-08 10:50:21 +0000";
layers = (
{
anchors = (
{
name = bottom;
pos = (398,0);
},
{
name = top;
pos = (564,675);
}
);
hints = (
{
horizontal = 1;
place = (-24, 20);
place = (-24, 20);
type = Stem;
},
{
horizontal = 1;
place = (732, 27);
place = (732, 27);
type = Stem;
},
{
horizontal = 1;
place = (830, 66);
place = (830, 66);
type = Stem;
},
{
place = (353, 69);
place = (353, 69);
type = Stem;
},
{
place = (498, 58);
place = (498, 58);
type = Stem;
}
);
layerId = "EE525628-5027-49A8-B1A1-7E2F3B98E9F5";
shapes = (
{
closed = 1;
nodes = (
(917,663,o),
(913,674,o),
(899,674,cs),
(870,674,o),
(780,676,o),
(780,676,c),
(773,676,o),
(764,661,o),
(764,652,cs),
(764,648,o),
(768,644,o),
(772,644,cs),
(830,644,ls),
(833,644,o),
(836,641,o),
(836,634,c),
(831,589,o),
(780,357,o),
(553,99,c),
(548,99,l),
(548,292,o),
(556,485,o),
(609,667,c),
(545,662,l),
(501,662,o),
(445,658,o),
(445,658,c),
(437,658,o),
(431,642,o),
(430,634,c),
(430,629,o),
(432,626,o),
(436,626,cs),
(470,626,ls),
(479,626,o),
(489,624,o),
(489,610,cs),
(489,509,o),
(343,219,o),
(225,91,c),
(221,91,l),
(221,154,o),
(219,230,o),
(219,305,cs),
(219,476,o),
(230,642,o),
(301,642,c),
(318,643,o),
(337,657,o),
(337,673,cs),
(337,677,o),
(335,679,o),
(332,679,c),
(332,679,o),
(218,671,o),
(190,671,cs),
(159,671,o),
(94,666,o),
(94,666,c),
(72,666,o),
(62,622,o),
(62,622,c),
(129,629,ls),
(147,631,o),
(152,626,o),
(152,609,cs),
(152,350,o),
(139,181,o),
(139,83,cs),
(139,40,o),
(141,10,o),
(145,-8,cs),
(147,-14,o),
(156,-17,o),
(166,-17,cs),
(176,-17,o),
(187,-13,o),
(192,-8,cs),
(330,135,o),
(408,263,o),
(485,442,c),
(468,387,o),
(457,262,o),
(457,156,cs),
(457,62,o),
(466,-16,o),
(486,-16,cs),
(529,-16,o),
(786,239,o),
(917,650,c)
);
}
);
width = 834;
}
);
unicode = 87;
},
{
glyphname = X;
lastChange = "2024-02-02 14:38:48 +0000";
layers = (
{
hints = (
{
horizontal = 1;
place = (0, 27);
place = (0, 27);
type = Stem;
},
{
horizontal = 1;
place = (732, 27);
place = (732, 27);
type = Stem;
},
{
place = (-159, 1022);
place = (-159, 1022);
type = Stem;
}
);
layerId = "EE525628-5027-49A8-B1A1-7E2F3B98E9F5";
shapes = (
{
closed = 1;
nodes = (
(694,91,o),
(693,92,o),
(691,92,cs),
(679,92,o),
(663,56,o),
(624,56,cs),
(500,56,o),
(469,263,o),
(443,368,c),
(566,489,o),
(611,526,o),
(684,597,cs),
(719,632,o),
(735,642,o),
(758,642,cs),
(786,642,ls),
(792,642,o),
(799,649,o),
(799,660,cs),
(799,667,o),
(799,678,o),
(781,678,cs),
(749,678,o),
(704,671,o),
(669,671,cs),
(642,671,o),
(589,678,o),
(554,678,cs),
(546,678,o),
(541,665,o),
(541,654,cs),
(541,645,o),
(556,645,o),
(572,645,cs),
(587,645,o),
(603,641,o),
(603,616,cs),
(603,571,o),
(432,411,o),
(432,411,c),
(429,426,o),
(425,440,o),
(422,453,cs),
(386,607,o),
(370,685,o),
(270,685,cs),
(184,685,o),
(112,607,o),
(112,591,cs),
(112,587,o),
(114,584,o),
(117,584,cs),
(126,584,o),
(152,615,o),
(191,615,cs),
(261,615,o),
(324,552,o),
(363,343,c),
(254,258,o),
(135,149,o),
(49,63,cs),
(35,49,o),
(4,29,o),
(-14,29,cs),
(-33,29,ls),
(-44,29,o),
(-52,12,o),
(-52,4,cs),
(-52,-1,o),
(-51,-4,o),
(-45,-4,cs),
(-16,-4,o),
(28,1,o),
(66,1,cs),
(125,1,o),
(147,-3,o),
(187,-5,c),
(197,-5,o),
(205,8,o),
(207,17,cs),
(208,19,o),
(208,21,o),
(208,23,cs),
(208,29,o),
(204,30,o),
(200,30,cs),
(138,30,ls),
(134,30,o),
(133,32,o),
(133,35,cs),
(133,61,o),
(229,185,o),
(372,302,c),
(394,200,o),
(437,-14,o),
(552,-14,cs),
(640,-14,o),
(698,59,o),
(698,84,cs),
(698,86,o),
(697,88,o),
(696,89,cs)
);
}
);
width = 750;
}
);
unicode = 88;
},
{
glyphname = Y;
kernLeft = Y;
kernRight = Y;
lastChange = "2024-02-08 10:56:01 +0000";
layers = (
{
anchors = (
{
name = bottom;
pos = (213,0);
},
{
name = top;
pos = (339,675);
},
{
name = topleft;
pos = (132,675);
}
);
hints = (
{
horizontal = 1;
place = (-2, 23);
place = (-2, 23);
type = Stem;
},
{
horizontal = 1;
place = (637, 23);
place = (637, 23);
type = Stem;
},
{
place = (149, 103);
place = (149, 103);
type = Stem;
},
{
place = (398, 133);
place = (398, 133);
type = Stem;
}
);
layerId = "EE525628-5027-49A8-B1A1-7E2F3B98E9F5";
shapes = (
{
closed = 1;
nodes = (
(69,688,o),
(3,637,o),
(3,615,cs),
(3,606,o),
(16,603,o),
(16,603,c),
(16,603,o),
(47,643,o),
(94,643,cs),
(178,643,o),
(209,529,o),
(209,399,cs),
(209,229,o),
(155,32,o),
(94,32,cs),
(72,32,ls),
(62,32,o),
(55,13,o),
(54,7,c),
(54,5,o),
(53,3,o),
(53,2,cs),
(53,-1,o),
(54,-3,o),
(57,-3,cs),
(89,-3,o),
(116,1,o),
(166,1,cs),
(189,1,o),
(301,0,o),
(301,0,c),
(315,0,o),
(327,39,o),
(327,39,c),
(327,39,o),
(274,33,o),
(235,33,c),
(235,33,o),
(283,160,o),
(309,302,c),
(415,410,o),
(513,515,o),
(599,624,cs),
(613,642,o),
(625,642,o),
(642,642,cs),
(661,642,o),
(669,662,o),
(672,676,c),
(672,676,o),
(631,672,o),
(604,672,cs),
(572,672,o),
(517,673,o),
(492,673,cs),
(483,673,o),
(474,657,o),
(473,648,c),
(473,643,o),
(475,641,o),
(478,641,cs),
(506,641,ls),
(510,641,o),
(513,640,o),
(513,635,c),
(505,597,o),
(464,506,o),
(319,366,c),
(322,393,o),
(324,420,o),
(324,447,cs),
(324,576,o),
(280,688,o),
(129,688,cs)
);
}
);
width = 534;
}
);
unicode = 89;
},
{
glyphname = Z;
kernLeft = Z;
kernRight = Z;
lastChange = "2024-02-02 14:33:32 +0000";
layers = (
{
anchors = (
{
name = bottom;
pos = (283,0);
},
{
name = center;
pos = (366,338);
},
{
name = top;
pos = (449,675);
}
);
hints = (
{
horizontal = 1;
place = (0, 27);
place = (0, 27);
type = Stem;
},
{
horizontal = 1;
place = (633, 27);
place = (633, 27);
type = Stem;
},
{
place = (-71, 528);
place = (-71, 528);
type = Stem;
}
);
layerId = "EE525628-5027-49A8-B1A1-7E2F3B98E9F5";
shapes = (
{
closed = 1;
nodes = (
(402,54,o),
(244,85,o),
(189,85,cs),
(174,85,o),
(161,84,o),
(151,81,c),
(152,84,l),
(185,101,o),
(218,141,o),
(651,654,c),
(661,664,o),
(666,672,o),
(666,676,cs),
(666,679,o),
(664,681,o),
(659,681,cs),
(650,681,o),
(635,669,o),
(568,669,cs),
(225,669,ls),
(160,669,o),
(154,675,o),
(148,701,c),
(148,701,o),
(130,702,o),
(130,682,cs),
(130,621,o),
(126,591,o),
(115,522,c),
(115,508,o),
(124,505,o),
(133,505,cs),
(143,505,o),
(154,509,o),
(154,509,c),
(154,557,o),
(157,583,o),
(168,597,c),
(196,617,o),
(262,619,o),
(298,619,cs),
(427,619,o),
(483,620,o),
(523,629,c),
(165,209,o),
(36,53,o),
(5,40,cs),
(-30,25,o),
(-34,4,o),
(-34,4,c),
(-5,12,o),
(22,15,o),
(48,15,cs),
(129,15,o),
(314,-22,o),
(412,-22,cs),
(526,-22,o),
(580,58,o),
(606,108,c),
(606,108,o),
(600,120,o),
(592,120,cs),
(588,120,o),
(584,118,o),
(580,112,cs),
(543,63,o),
(530,54,o),
(475,54,cs)
);
}
);
width = 624;
}
);
unicode = 90;
},
{
export = 0;
glyphname = Eng;
kernLeft = N;
kernRight = N;
lastChange = "2024-02-02 12:57:44 +0000";
layers = (
{
background = {
shapes = (
{
closed = 0;
nodes = (
(653,623,l),
(501,64,o),
(441,-208,o),
(339,-208,cs),
(305,-208,o),
(266,-196,o),
(239,-173,c),
(217,-184,o),
(205,-207,o),
(205,-228,cs),
(205,-252,o),
(217,-273,o),
(253,-273,cs),
(353,-273,o),
(424,-212,o),
(474,-158,cs),
(572,-54,o),
(598,44,o),
(742,586,cs)
);
}
);
};
layerId = "EE525628-5027-49A8-B1A1-7E2F3B98E9F5";
shapes = (
{
closed = 1;
nodes = (
(353,-273,o),
(424,-212,o),
(474,-158,cs),
(572,-54,o),
(617,134,o),
(677,345,cs),
(724,513,o),
(721,606,o),
(822,606,c),
(834,618,o),
(843,637,o),
(843,654,cs),
(843,673,o),
(831,689,o),
(795,689,cs),
(655,689,o),
(594,467,o),
(545,222,c),
(365,486,o),
(340,684,o),
(194,684,cs),
(115,684,o),
(35,618,o),
(35,618,c),
(35,613,o),
(38,605,o),
(45,605,cs),
(68,605,o),
(95,630,o),
(141,630,cs),
(170,630,o),
(199,629,o),
(229,585,c),
(124,207,l),
(94,86,o),
(64,56,o),
(22,49,cs),
(-27,40,o),
(-29,4,o),
(-29,4,c),
(0,12,o),
(24,15,o),
(50,15,c),
(185,-3,l),
(216,-3,o),
(232,35,o),
(232,35,c),
(185,35,o),
(147,45,o),
(101,45,c),
(169,103,o),
(202,229,o),
(270,513,c),
(386,308,o),
(472,166,o),
(530,84,c),
(529,163,l),
(501,64,o),
(432,-208,o),
(339,-208,cs),
(305,-208,o),
(266,-196,o),
(239,-173,c),
(217,-184,o),
(205,-207,o),
(205,-228,cs),
(205,-252,o),
(217,-273,o),
(253,-273,cs)
);
}
);
width = 747;
}
);
metricLeft = N;
metricRight = N;
unicode = 330;
},
{
glyphname = a;
kernLeft = c;
kernRight = a;
lastChange = "2024-02-08 10:50:24 +0000";
layers = (
{
anchors = (
{
name = bottom;
pos = (189,0);
},
{
name = ogonek;
pos = (386,10);
},
{
name = top;
pos = (327,438);
}
);
hints = (
{
horizontal = 1;
place = (-15, 93);
place = (-15, 93);
type = Stem;
},
{
horizontal = 1;
place = (391, 41);
place = (391, 41);
type = Stem;
},
{
horizontal = 1;
place = (457, 20);
place = (457, 20);
type = Stem;
},
{
place = (10, 93);
place = (10, 93);
type = Stem;
},
{
place = (292, 52);
place = (292, 52);
type = Stem;
}
);
layerId = "EE525628-5027-49A8-B1A1-7E2F3B98E9F5";
shapes = (
{
closed = 1;
nodes = (
(476,468,o),
(449,406,o),
(413,406,cs),
(399,406,o),
(377,450,o),
(303,450,cs),
(131,450,o),
(0,139,o),
(0,48,cs),
(0,5,o),
(26,-15,o),
(56,-15,cs),
(122,-15,o),
(254,149,o),
(325,241,c),
(300,177,o),
(241,57,o),
(241,19,cs),
(241,-1,o),
(255,-13,o),
(275,-13,cs),
(353,-12,o),
(474,132,o),
(475,147,c),
(475,152,o),
(474,158,o),
(466,158,cs),
(448,158,o),
(376,66,o),
(348,66,cs),
(342,66,o),
(337,69,o),
(337,80,cs),
(337,104,o),
(390,245,o),
(447,350,cs),
(485,420,o),
(509,441,o),
(509,457,cs),
(509,464,o),
(506,468,o),
(499,468,cs)
);
},
{
closed = 1;
nodes = (
(313,408,o),
(356,371,o),
(367,347,c),
(321,261,o),
(148,63,o),
(110,63,cs),
(94,63,o),
(87,78,o),
(87,97,cs),
(87,179,o),
(195,408,o),
(272,408,cs)
);
}
);
width = 486;
}
);
unicode = 97;
},
{
glyphname = ae;
kernLeft = c;
kernRight = e;
lastChange = "2024-02-02 14:48:26 +0000";
layers = (
{
hints = (
{
horizontal = 1;
place = (-17, 82);
place = (-17, 82);
type = Stem;
},
{
horizontal = 1;
place = (-15, 93);
place = (-15, 93);
type = Stem;
},
{
horizontal = 1;
place = (391, 41);
place = (391, 41);
type = Stem;
},
{
horizontal = 1;
place = (457, 20);
place = (457, 20);
type = Stem;
},
{
place = (10, 93);
place = (10, 93);
type = Stem;
},
{
place = (292, 52);
place = (292, 52);
type = Stem;
},
{
place = (470, 80);
place = (470, 80);
type = Stem;
},
{
place = (744, 77);
place = (744, 77);
type = Stem;
}
);
layerId = "EE525628-5027-49A8-B1A1-7E2F3B98E9F5";
shapes = (
{
closed = 1;
nodes = (
(467,99,o),
(425,63,o),
(382,63,cs),
(365,63,o),
(358,82,o),
(358,106,cs),
(358,131,o),
(369,172,o),
(380,207,c),
(484,239,o),
(644,335,o),
(644,399,cs),
(644,435,o),
(609,450,o),
(568,450,cs),
(526,450,o),
(476,433,o),
(435,386,c),
(433,387,l),
(463,440,o),
(481,481,o),
(481,495,cs),
(481,502,o),
(478,506,o),
(471,506,cs),
(448,506,o),
(421,413,o),
(399,413,cs),
(385,413,o),
(370,450,o),
(303,450,cs),
(131,450,o),
(0,139,o),
(0,48,cs),
(0,5,o),
(26,-15,o),
(56,-15,cs,{
name = .hr02;
}),
(122,-15,o),
(254,149,o),
(325,241,c),
(328,240,l),
(292,172,o),
(272,101,o),
(272,56,cs),
(272,14,o),
(293,-15,o),
(331,-15,cs),
(432,-15,o),
(525,121,o),
(525,136,cs),
(525,142,o),
(522,147,o),
(515,147,cs),
(511,147,o),
(507,145,o),
(502,139,cs,{
name = .hr01;
})
);
},
{
closed = 1;
nodes = (
(313,408,o),
(356,371,o),
(367,347,c),
(321,261,o),
(148,63,o),
(110,63,cs),
(94,63,o),
(87,78,o),
(87,97,cs),
(87,179,o),
(195,408,o),
(272,408,cs)
);
},
{
closed = 1;
nodes = (
(553,408,o),
(562,399,o),
(562,381,cs),
(562,329,o),
(442,262,o),
(392,236,c),
(428,323,o),
(487,408,o),
(536,408,cs)
);
}
);
width = 617;
}
);
unicode = 230;
},
{
glyphname = b;
kernLeft = l;
lastChange = "2024-02-08 10:52:07 +0000";
layers = (
{
hints = (
{
horizontal = 1;
place = (-19, 39);
place = (-19, 39);
type = Stem;
},
{
horizontal = 1;
place = (400, 57);
place = (400, 57);
type = Stem;
},
{
horizontal = 1;
place = (721, 53);
place = (721, 53);
type = Stem;
},
{
place = (19, 50);
place = (19, 50);
type = Stem;
},
{
place = (321, 73);
place = (321, 73);
type = Stem;
}
);
layerId = "EE525628-5027-49A8-B1A1-7E2F3B98E9F5";
shapes = (
{
closed = 1;
nodes = (
(91,2,o),
(132,-13,o),
(178,-13,cs),
(347,-13,o),
(446,282,o),
(446,380,cs),
(446,430,o),
(416,452,o),
(385,452,cs),
(320,452,o),
(205,295,o),
(141,202,c),
(198,433,o),
(321,683,o),
(387,683,cs),
(402,683,o),
(416,677,o),
(425,672,c),
(452,677,o),
(465,693,o),
(465,708,c),
(464,722,o),
(451,735,o),
(424,735,cs),
(196,735,o),
(125,332,o),
(40,132,cs),
(33,116,o),
(27,98,o),
(27,87,cs),
(27,79,o),
(32,69,o),
(37,63,cs)
);
},
{
closed = 1;
nodes = (
(164,29,o),
(118,66,o),
(105,90,c),
(143,176,o),
(299,374,o),
(337,374,cs),
(354,374,o),
(364,357,o),
(364,331,cs),
(364,242,o),
(281,29,o),
(205,29,cs)
);
}
);
width = 460;
}
);
unicode = 98;
},
{
glyphname = c;
kernLeft = c;
kernRight = c;
lastChange = "2024-02-02 14:51:45 +0000";
layers = (
{
anchors = (
{
name = bottom;
pos = (74,0);
},
{
name = top;
pos = (272,438);
}
);
hints = (
{
horizontal = 1;
place = (-17, 82);
place = (-17, 82);
type = Stem;
},
{
horizontal = 1;
place = (398, 58);
place = (398, 58);
type = Stem;
},
{
place = (-49, 80);
place = (-49, 80);
type = Stem;
}
);
layerId = "EE525628-5027-49A8-B1A1-7E2F3B98E9F5";
shapes = (
{
closed = 1;
nodes = (
(225,152,o),
(175,63,o),
(117,63,cs),
(99,63,o),
(91,87,o),
(91,109,cs),
(91,197,o),
(175,408,o),
(252,408,cs),
(286,408,o),
(310,382,o),
(323,354,c),
(354,355,o),
(378,374,o),
(378,395,cs),
(378,425,o),
(353,450,o),
(283,450,cs),
(108,450,o),
(7,156,o),
(7,61,cs),
(7,14,o),
(37,-15,o),
(68,-15,cs),
(155,-15,o),
(252,124,o),
(252,140,cs),
(252,146,o),
(249,152,o),
(241,152,cs)
);
}
);
width = 335;
}
);
unicode = 99;
},
{
glyphname = d;
kernLeft = c;
lastChange = "2024-02-02 14:43:56 +0000";
layers = (
{
anchors = (
{
name = bottom;
pos = (199,0);
},
{
name = center;
pos = (253,219);
},
{
name = top;
pos = (383,750);
},
{
name = topright;
pos = (726,750);
}
);
hints = (
{
horizontal = 1;
place = (-15, 93);
place = (-15, 93);
type = Stem;
},
{
horizontal = 1;
place = (721, 53);
place = (721, 53);
type = Stem;
},
{
place = (22, 94);
place = (22, 94);
type = Stem;
},
{
place = (293, 181);
place = (293, 181);
type = Stem;
}
);
layerId = "EE525628-5027-49A8-B1A1-7E2F3B98E9F5";
shapes = (
{
closed = 1;
nodes = (
(657,683,o),
(668,678,o),
(680,672,c),
(707,677,o),
(721,693,o),
(721,708,cs),
(721,722,o),
(708,735,o),
(679,735,cs),
(539,735,o),
(441,541,o),
(384,410,c),
(358,433,o),
(324,450,o),
(282,450,cs),
(110,450,o),
(0,146,o),
(0,53,cs),
(0,7,o),
(28,-15,o),
(59,-15,cs),
(125,-15,o),
(249,149,o),
(315,241,c),
(317,239,l),
(317,239,o),
(242,64,o),
(242,21,cs),
(242,0,o),
(257,-13,o),
(278,-13,cs),
(356,-12,o),
(470,132,o),
(470,147,cs),
(470,152,o),
(468,158,o),
(460,158,cs),
(442,158,o),
(375,66,o),
(347,66,cs),
(341,66,o),
(335,70,o),
(335,82,cs),
(335,101,o),
(361,189,o),
(396,277,cs),
(448,408,o),
(575,683,o),
(641,683,cs)
);
},
{
closed = 1;
nodes = (
(294,408,o),
(339,371,o),
(351,347,c),
(310,261,o),
(147,63,o),
(109,63,cs),
(92,63,o),
(84,80,o),
(84,101,cs),
(84,187,o),
(176,408,o),
(253,408,cs)
);
}
);
width = 506;
}
);
unicode = 100;
},
{
glyphname = eth;
lastChange = "2024-02-02 14:47:46 +0000";
layers = (
{
hints = (
{
horizontal = 1;
place = (-13, 60);
place = (-13, 60);
type = Stem;
},
{
horizontal = 1;
place = (413, 27);
place = (413, 27);
type = Stem;
},
{
horizontal = 1;
place = (747, -20);
target = down;
type = TopGhost;
},
{
place = (25, 89);
place = (25, 89);
type = Stem;
},
{
place = (364, 83);
place = (364, 83);
type = Stem;
}
);
layerId = "EE525628-5027-49A8-B1A1-7E2F3B98E9F5";
shapes = (
{
closed = 1;
nodes = (
(488,695,l),
(487,707,o),
(480,718,o),
(467,718,cs),
(460,718,o),
(450,715,o),
(433,704,cs),
(335,643,l),
(279,708,o),
(218,747,o),
(191,747,cs),
(179,747,o),
(170,742,o),
(170,737,cs),
(170,735,o),
(171,734,o),
(172,733,c),
(211,699,o),
(249,657,o),
(280,611,c),
(170,547,l),
(173,534,o),
(178,524,o),
(189,524,cs),
(198,524,o),
(211,531,o),
(229,542,cs),
(297,586,l),
(343,515,o),
(364,437,o),
(364,362,cs),
(364,168,o),
(252,47,o),
(178,47,cs),
(142,47,o),
(114,76,o),
(114,140,cs),
(114,247,o),
(190,413,o),
(317,413,cs),
(324,413,o),
(330,418,o),
(330,424,cs),
(330,432,o),
(320,440,o),
(290,440,cs),
(133,440,o),
(25,263,o),
(25,130,cs),
(25,50,o),
(68,-13,o),
(158,-13,cs),
(329,-13,o),
(447,159,o),
(447,349,cs),
(447,441,o),
(419,536,o),
(355,619,c)
);
}
);
width = 470;
}
);
unicode = 240;
},
{
glyphname = dcroat;
kernLeft = c;
lastChange = "2024-02-02 12:41:17 +0000";
layers = (
{
layerId = "EE525628-5027-49A8-B1A1-7E2F3B98E9F5";
shapes = (
{
closed = 1;
nodes = (
(657,683,o),
(668,678,o),
(680,672,c),
(707,677,o),
(721,693,o),
(721,708,cs),
(721,722,o),
(708,735,o),
(679,735,cs),
(539,735,o),
(441,541,o),
(384,410,c),
(358,433,o),
(324,450,o),
(282,450,cs),
(110,450,o),
(0,146,o),
(0,53,cs),
(0,7,o),
(28,-15,o),
(59,-15,cs),
(125,-15,o),
(249,149,o),
(315,241,c),
(317,239,l),
(317,239,o),
(242,64,o),
(242,21,cs),
(242,0,o),
(257,-13,o),
(278,-13,cs),
(356,-12,o),
(470,132,o),
(470,147,cs),
(470,152,o),
(468,158,o),
(460,158,cs),
(442,158,o),
(375,66,o),
(347,66,cs),
(341,66,o),
(335,70,o),
(335,82,cs),
(335,101,o),
(361,189,o),
(396,277,cs),
(448,408,o),
(575,683,o),
(641,683,cs)
);
},
{
closed = 1;
nodes = (
(294,408,o),
(339,371,o),
(351,347,c),
(310,261,o),
(147,63,o),
(109,63,cs),
(92,63,o),
(84,80,o),
(84,101,cs),
(84,187,o),
(176,408,o),
(253,408,cs)
);
},
{
closed = 1;
nodes = (
(623,605,o),
(417,600,o),
(326,600,c),
(326,600,o),
(325,556,o),
(363,556,cs),
(670,556,l),
(673,590,o),
(658,605,o),
(623,605,c)
);
}
);
width = 506;
}
);
metricLeft = d;
metricRight = d;
unicode = 273;
},
{
glyphname = e;
kernLeft = c;
kernRight = e;
lastChange = "2024-02-02 14:41:18 +0000";
layers = (
{
anchors = (
{
name = bottom;
pos = (58,0);
},
{
name = ogonek;
pos = (104,0);
},
{
name = top;
pos = (252,438);
}
);
hints = (
{
horizontal = 1;
place = (-17, 82);
place = (-17, 82);
type = Stem;
},
{
horizontal = 1;
place = (398, 58);
place = (398, 58);
type = Stem;
},
{
place = (-16, 80);
place = (-16, 80);
type = Stem;
},
{
place = (258, 77);
place = (258, 77);
type = Stem;
}
);
layerId = "EE525628-5027-49A8-B1A1-7E2F3B98E9F5";
shapes = (
{
closed = 1;
nodes = (
(185,99,o),
(143,63,o),
(100,63,cs),
(83,63,o),
(76,82,o),
(76,106,cs),
(76,131,o),
(87,172,o),
(98,207,c),
(202,239,o),
(362,335,o),
(362,399,cs),
(362,435,o),
(327,450,o),
(286,450,cs),
(122,450,o),
(-10,172,o),
(-10,56,cs),
(-10,14,o),
(11,-15,o),
(49,-15,cs),
(150,-15,o),
(243,121,o),
(243,136,cs),
(243,142,o),
(240,147,o),
(233,147,cs),
(229,147,o),
(225,145,o),
(220,139,cs)
);
},
{
closed = 1;
nodes = (
(271,408,o),
(280,399,o),
(280,381,cs),
(280,329,o),
(160,262,o),
(110,236,c),
(146,323,o),
(205,408,o),
(254,408,cs)
);
}
);
width = 336;
}
);
unicode = 101;
},
{
glyphname = f;
kernLeft = f;
lastChange = "2024-02-08 10:51:06 +0000";
layers = (
{
hints = (
{
horizontal = 1;
place = (-312, 53);
place = (-312, 53);
type = Stem;
},
{
horizontal = 1;
place = (411, 27);
place = (411, 27);
type = Stem;
},
{
horizontal = 1;
place = (721, 53);
place = (721, 53);
type = Stem;
},
{
place = (-174, 766);
place = (-174, 766);
type = Stem;
}
);
layerId = "EE525628-5027-49A8-B1A1-7E2F3B98E9F5";
shapes = (
{
closed = 1;
nodes = (
(355,399,ls),
(366,399,o),
(371,415,o),
(371,426,c),
(370,433,o),
(368,438,o),
(363,438,cs),
(255,438,l),
(311,598,o),
(352,682,o),
(414,682,cs),
(453,682,o),
(482,653,o),
(505,625,c),
(540,629,o),
(559,650,o),
(559,677,cs),
(559,726,o),
(494,735,o),
(460,735,cs),
(329,735,o),
(259,639,o),
(186,456,cs),
(176,432,o),
(127,432,o),
(91,432,cs),
(82,432,o),
(78,419,o),
(78,409,cs),
(78,403,o),
(81,399,o),
(85,399,cs),
(166,399,l),
(61,106,o),
(5,-226,o),
(-100,-226,cs),
(-134,-226,o),
(-156,-206,o),
(-185,-180,c),
(-204,-190,o),
(-211,-204,o),
(-211,-219,c),
(-210,-252,o),
(-177,-279,o),
(-135,-279,cs),
(60,-279,o),
(167,198,o),
(242,399,c)
);
}
);
width = 288;
}
);
unicode = 102;
},
{
glyphname = g;
kernLeft = g;
kernRight = g;
lastChange = "2024-02-08 10:51:55 +0000";
layers = (
{
anchors = (
{
name = bottom;
pos = (67,-250);
},
{
name = top;
pos = (236,438);
}
);
hints = (
{
horizontal = 1;
place = (-333, 49);
place = (-333, 49);
type = Stem;
},
{
horizontal = 1;
place = (-90, 17);
place = (-90, 17);
type = Stem;
},
{
horizontal = 1;
place = (417, 39);
place = (417, 39);
type = Stem;
},
{
horizontal = 1;
place = (480, 97);
place = (480, 97);
type = Stem;
},
{
place = (-221, 72);
place = (-221, 72);
type = Stem;
},
{
place = (-105, 73);
place = (-105, 73);
type = Stem;
},
{
place = (161, 64);
place = (161, 64);
type = Stem;
}
);
layerId = "EE525628-5027-49A8-B1A1-7E2F3B98E9F5";
shapes = (
{
closed = 1;
nodes = (
(78,-24,ls),
(6,-24,o),
(-96,-71,o),
(-96,-138,cs),
(-96,-219,o),
(-1,-279,o),
(104,-279,cs),
(226,-279,o),
(324,-214,o),
(324,-151,cs),
(324,-50,o),
(95,37,o),
(95,79,cs),
(95,103,o),
(159,122,o),
(183,126,cs),
(298,146,o),
(326,274,o),
(326,322,cs),
(326,389,o),
(363,459,o),
(397,459,cs),
(416,459,o),
(430,451,o),
(438,441,c),
(460,453,o),
(470,473,o),
(470,491,cs),
(470,512,o),
(456,531,o),
(429,531,cs),
(365,531,o),
(327,454,o),
(315,385,c),
(299,424,o),
(267,450,o),
(221,450,cs),
(110,450,o),
(42,318,o),
(42,243,cs),
(42,171,o),
(95,134,o),
(122,127,c),
(57,102,o),
(21,83,o),
(21,66,cs),
(21,38,o),
(51,6,o),
(90,-24,c)
);
},
{
closed = 1;
nodes = (
(243,-221,o),
(201,-241,o),
(136,-241,cs),
(56,-241,o),
(-17,-194,o),
(-17,-131,cs),
(-17,-83,o),
(28,-45,o),
(90,-45,cs),
(100,-45,o),
(111,-46,o),
(122,-48,c),
(180,-93,o),
(243,-136,o),
(243,-173,cs)
);
},
{
closed = 1;
nodes = (
(126,155,o),
(112,180,o),
(112,222,cs),
(112,292,o),
(160,419,o),
(216,419,cs),
(241,419,o),
(256,396,o),
(256,353,cs),
(256,286,o),
(222,155,o),
(154,155,cs)
);
}
);
width = 364;
}
);
unicode = 103;
},
{
glyphname = h;
kernLeft = l;
lastChange = "2024-02-02 14:53:14 +0000";
layers = (
{
hints = (
{
horizontal = 1;
place = (-15, 71);
place = (-15, 71);
type = Stem;
},
{
horizontal = 1;
place = (381, 72);
place = (381, 72);
type = Stem;
},
{
horizontal = 1;
place = (721, 53);
place = (721, 53);
type = Stem;
},
{
place = (185, 80);
place = (185, 80);
type = Stem;
},
{
place = (330, 97);
place = (330, 97);
type = Stem;
}
);
layerId = "EE525628-5027-49A8-B1A1-7E2F3B98E9F5";
shapes = (
{
closed = 1;
nodes = (
(385,683,o),
(396,678,o),
(409,672,c),
(434,677,o),
(447,691,o),
(447,706,cs),
(447,722,o),
(432,735,o),
(403,735,cs),
(178,735,o),
(36,146,o),
(7,-2,c),
(16,-8,o),
(28,-13,o),
(45,-13,cs),
(63,-13,o),
(71,16,o),
(82,43,cs),
(190,305,o),
(289,378,o),
(326,378,cs),
(339,378,o),
(348,368,o),
(348,352,cs),
(348,303,o),
(227,94,o),
(227,26,cs),
(227,-4,o),
(244,-15,o),
(269,-15,cs),
(320,-15,o),
(410,75,o),
(410,100,cs),
(410,106,o),
(406,113,o),
(400,113,cs),
(398,113,o),
(397,112,o),
(395,111,cs),
(377,94,o),
(345,56,o),
(317,56,cs),
(312,56,o),
(305,59,o),
(305,68,cs),
(305,99,o),
(442,315,o),
(442,390,cs),
(442,416,o),
(430,450,o),
(379,450,cs),
(281,450,o),
(191,314,o),
(140,232,c),
(138,232,l),
(150,272,o),
(171,330,o),
(186,371,cs),
(237,508,o),
(316,683,o),
(369,683,cs)
);
}
);
width = 446;
}
);
unicode = 104;
},
{
glyphname = hbar;
lastChange = "2024-02-02 12:41:17 +0000";
layers = (
{
layerId = "EE525628-5027-49A8-B1A1-7E2F3B98E9F5";
shapes = (
{
closed = 1;
nodes = (
(385,683,o),
(396,678,o),
(409,672,c),
(434,677,o),
(447,691,o),
(447,706,cs),
(447,722,o),
(432,735,o),
(403,735,cs),
(178,735,o),
(36,146,o),
(7,-2,c),
(16,-8,o),
(28,-13,o),
(45,-13,cs),
(63,-13,o),
(71,16,o),
(82,43,cs),
(190,305,o),
(289,378,o),
(326,378,cs),
(339,378,o),
(348,368,o),
(348,352,cs),
(348,303,o),
(227,94,o),
(227,26,cs),
(227,-4,o),
(244,-15,o),
(269,-15,cs),
(320,-15,o),
(410,75,o),
(410,100,cs),
(410,106,o),
(406,113,o),
(400,113,cs),
(398,113,o),
(397,112,o),
(395,111,cs),
(377,94,o),
(345,56,o),
(317,56,cs),
(312,56,o),
(305,59,o),
(305,68,cs),
(305,99,o),
(442,315,o),
(442,390,cs),
(442,416,o),
(430,450,o),
(379,450,cs),
(281,450,o),
(191,314,o),
(140,232,c),
(138,232,l),
(150,272,o),
(171,330,o),
(186,371,cs),
(237,508,o),
(316,683,o),
(369,683,cs)
);
},
{
closed = 1;
nodes = (
(403,605,o),
(197,600,o),
(106,600,c),
(106,600,o),
(105,556,o),
(143,556,cs),
(450,556,l),
(453,590,o),
(438,605,o),
(403,605,c)
);
}
);
width = 446;
}
);
metricRight = h;
unicode = 295;
},
{
glyphname = dotlessi;
lastChange = "2024-02-02 12:21:34 +0000";
layers = (
{
anchors = (
{
name = bottom;
pos = (84,0);
},
{
name = ogonek;
pos = (117,10);
},
{
name = top;
pos = (218,438);
}
);
hints = (
{
horizontal = 1;
place = (-18, 64);
place = (-18, 64);
type = Stem;
},
{
horizontal = 1;
place = (551, 96);
place = (551, 96);
type = Stem;
},
{
place = (3, 78);
place = (3, 78);
type = Stem;
},
{
place = (149, 96);
place = (149, 96);
type = Stem;
}
);
layerId = "EE525628-5027-49A8-B1A1-7E2F3B98E9F5";
shapes = (
{
closed = 1;
nodes = (
(254,473,o),
(251,478,o),
(246,478,cs),
(243,478,o),
(240,476,o),
(236,472,cs),
(153,389,o),
(37,347,o),
(37,317,cs),
(37,308,o),
(45,303,o),
(53,302,c),
(76,325,o),
(117,341,o),
(143,360,c),
(143,336,o),
(20,87,o),
(20,22,cs),
(20,-1,o),
(37,-13,o),
(54,-13,cs),
(130,-13,o),
(206,90,o),
(206,103,cs),
(206,112,o),
(202,115,o),
(196,115,cs),
(182,115,o),
(152,66,o),
(124,66,cs),
(117,66,o),
(114,72,o),
(114,81,cs),
(114,146,o),
(254,413,o),
(254,465,cs)
);
}
);
width = 275;
}
);
unicode = 305;
},
{
glyphname = jdotless;
kernLeft = j;
kernRight = j;
lastChange = "2024-02-02 14:53:17 +0000";
layers = (
{
anchors = (
{
name = bottom;
pos = (11,-250);
},
{
name = top;
pos = (233,438);
}
);
layerId = "EE525628-5027-49A8-B1A1-7E2F3B98E9F5";
shapes = (
{
closed = 1;
nodes = (
(-159,-226,o),
(-181,-206,o),
(-208,-180,c),
(-226,-191,o),
(-236,-201,o),
(-236,-221,cs),
(-236,-253,o),
(-205,-279,o),
(-164,-279,cs),
(-63,-279,o),
(21,-148,o),
(79,-32,cs),
(137,84,o),
(277,432,o),
(278,465,c),
(278,473,o),
(275,478,o),
(270,478,cs),
(267,478,o),
(264,476,o),
(260,472,cs),
(173,388,o),
(58,349,o),
(58,315,cs),
(58,308,o),
(65,303,o),
(73,302,c),
(97,325,o),
(142,344,o),
(167,360,c),
(71,138,o),
(-19,-226,o),
(-125,-226,cs)
);
}
);
width = 252;
}
);
unicode = 567;
},
{
glyphname = k;
kernLeft = l;
kernRight = k;
lastChange = "2024-02-02 12:33:28 +0000";
layers = (
{
anchors = (
{
name = bottom;
pos = (152,0);
},
{
name = top;
pos = (376,750);
}
);
hints = (
{
horizontal = 1;
place = (-15, 52);
place = (-15, 52);
type = Stem;
},
{
horizontal = 1;
place = (381, 75);
place = (381, 75);
type = Stem;
},
{
horizontal = 1;
place = (721, 53);
place = (721, 53);
type = Stem;
},
{
place = (344, 85);
place = (344, 85);
type = Stem;
}
);
layerId = "EE525628-5027-49A8-B1A1-7E2F3B98E9F5";
shapes = (
{
closed = 1;
nodes = (
(423,683,o),
(434,678,o),
(446,672,c),
(474,677,o),
(488,693,o),
(488,710,cs),
(488,723,o),
(475,735,o),
(447,735,cs),
(220,735,o),
(16,150,o),
(-21,-4,c),
(-12,-10,o),
(1,-13,o),
(12,-13,cs),
(52,-13,o),
(96,155,o),
(125,222,c),
(128,222,l),
(167,86,o),
(257,-13,o),
(389,-13,cs),
(442,-13,o),
(497,18,o),
(497,73,cs),
(497,107,o),
(470,138,o),
(429,138,cs),
(404,138,o),
(382,118,o),
(382,95,cs),
(382,82,o),
(392,70,o),
(410,70,c),
(418,78,o),
(428,83,o),
(441,83,cs),
(455,83,o),
(464,72,o),
(464,59,cs),
(464,27,o),
(432,19,o),
(409,19,cs),
(318,19,o),
(222,145,o),
(201,228,c),
(378,256,o),
(452,329,o),
(452,389,cs),
(452,424,o),
(426,450,o),
(385,450,cs),
(335,450,o),
(244,415,o),
(151,276,c),
(148,276,l),
(202,399,o),
(336,683,o),
(407,683,cs)
);
},
{
closed = 1;
nodes = (
(152,247,l),
(204,305,o),
(277,375,o),
(331,375,cs),
(353,375,o),
(365,364,o),
(365,348,c),
(363,313,o),
(303,263,o),
(153,245,c)
);
}
);
width = 492;
}
);
unicode = 107;
},
{
glyphname = l;
kernLeft = l;
kernRight = l;
lastChange = "2024-02-02 14:51:17 +0000";
layers = (
{
anchors = (
{
name = bottom;
pos = (76,0);
},
{
name = center;
pos = (168,375);
},
{
name = top;
pos = (380,750);
},
{
name = topright;
pos = (449,750);
}
);
hints = (
{
horizontal = 1;
place = (-18, 64);
place = (-18, 64);
type = Stem;
},
{
horizontal = 1;
place = (721, 53);
place = (721, 53);
type = Stem;
},
{
place = (28, 78);
place = (28, 78);
type = Stem;
}
);
layerId = "EE525628-5027-49A8-B1A1-7E2F3B98E9F5";
shapes = (
{
closed = 1;
nodes = (
(379,683,o),
(390,678,o),
(403,672,c),
(428,677,o),
(441,691,o),
(441,706,cs),
(441,721,o),
(426,735,o),
(397,735,cs),
(176,735,o),
(28,121,o),
(28,28,cs),
(28,-1,o),
(44,-13,o),
(65,-13,cs),
(143,-12,o),
(241,132,o),
(240,147,cs),
(239,152,o),
(237,158,o),
(229,158,cs),
(211,158,o),
(152,66,o),
(124,66,cs),
(118,66,o),
(110,70,o),
(110,87,cs),
(110,183,o),
(274,683,o),
(363,683,cs)
);
}
);
width = 259;
}
);
unicode = 108;
},
{
glyphname = lslash;
kernLeft = l;
kernRight = l;
lastChange = "2024-02-02 12:33:36 +0000";
layers = (
{
hints = (
{
horizontal = 1;
place = (-18, 64);
place = (-18, 64);
type = Stem;
},
{
horizontal = 1;
place = (721, 53);
place = (721, 53);
type = Stem;
},
{
place = (33, 78);
place = (33, 78);
type = Stem;
}
);
layerId = "EE525628-5027-49A8-B1A1-7E2F3B98E9F5";
shapes = (
{
closed = 1;
nodes = (
(384,683,o),
(395,678,o),
(408,672,c),
(433,677,o),
(446,691,o),
(446,706,cs),
(446,721,o),
(431,735,o),
(402,735,cs),
(283,735,o),
(186,561,o),
(121,383,c),
(106,378,o),
(60,358,o),
(40,345,cs),
(32,340,o),
(28,329,o),
(28,319,cs),
(28,310,o),
(32,303,o),
(38,303,c),
(108,344,l),
(60,203,o),
(33,68,o),
(33,28,cs),
(33,-1,o),
(49,-13,o),
(70,-13,cs),
(148,-12,o),
(246,132,o),
(245,147,cs),
(244,152,o),
(242,158,o),
(234,158,cs),
(216,158,o),
(157,66,o),
(129,66,cs),
(123,66,o),
(115,70,o),
(115,87,cs),
(115,129,o),
(147,250,o),
(190,372,c),
(214,382,o),
(241,394,o),
(265,410,cs),
(277,418,o),
(282,429,o),
(282,438,cs),
(282,445,o),
(279,450,o),
(275,450,cs),
(274,450,o),
(273,450,o),
(272,449,c),
(204,408,l),
(255,549,o),
(322,683,o),
(368,683,cs)
);
}
);
width = 264;
}
);
unicode = 322;
},
{
glyphname = m;
kernLeft = n;
kernRight = n;
lastChange = "2024-02-02 14:52:27 +0000";
layers = (
{
hints = (
{
horizontal = 1;
place = (-15, 71);
place = (-15, 71);
type = Stem;
},
{
horizontal = 1;
place = (381, 72);
place = (381, 72);
type = Stem;
},
{
horizontal = 1;
place = (458, 20);
place = (458, 20);
type = Stem;
},
{
place = (339, 84);
place = (339, 84);
type = Stem;
},
{
place = (553, 97);
place = (553, 97);
type = Stem;
}
);
layerId = "EE525628-5027-49A8-B1A1-7E2F3B98E9F5";
shapes = (
{
closed = 1;
nodes = (
(307,-15,o),
(527,378,o),
(623,378,cs),
(635,378,o),
(641,369,o),
(641,357,cs),
(641,307,o),
(474,82,o),
(474,17,cs),
(474,-5,o),
(487,-15,o),
(510,-15,cs),
(562,-15,o),
(667,77,o),
(669,101,c),
(669,106,o),
(665,113,o),
(659,113,cs),
(656,113,o),
(654,111,o),
(654,111,c),
(629,90,o),
(596,56,o),
(568,56,cs),
(563,56,o),
(558,59,o),
(558,67,c),
(560,97,o),
(741,326,o),
(741,401,cs),
(741,423,o),
(732,450,o),
(686,450,cs),
(577,450,o),
(465,276,o),
(410,207,c),
(407,207,l),
(443,269,o),
(491,360,o),
(491,400,cs),
(491,423,o),
(482,450,o),
(436,450,cs),
(327,450,o),
(215,276,o),
(160,207,c),
(157,207,l),
(177,262,o),
(265,433,o),
(265,468,cs),
(265,474,o),
(262,478,o),
(258,478,cs),
(255,478,o),
(252,476,o),
(248,472,cs),
(159,389,o),
(38,344,o),
(38,316,cs),
(38,309,o),
(42,304,o),
(53,302,c),
(79,324,o),
(125,345,o),
(154,363,c),
(152,339,o),
(15,23,o),
(13,-2,c),
(23,-8,o),
(35,-13,o),
(52,-13,cs),
(70,-13,o),
(82,16,o),
(97,43,cs),
(241,305,o),
(336,378,o),
(373,378,cs),
(385,378,o),
(391,369,o),
(391,357,cs),
(391,311,o),
(273,92,o),
(236,-2,c),
(246,-12,o),
(257,-15,o),
(270,-15,cs)
);
}
);
width = 749;
}
);
unicode = 109;
},
{
glyphname = n;
kernLeft = n;
kernRight = n;
lastChange = "2024-02-08 10:51:12 +0000";
layers = (
{
anchors = (
{
name = bottom;
pos = (185,0);
},
{
name = top;
pos = (323,438);
}
);
hints = (
{
horizontal = 1;
place = (-15, 71);
place = (-15, 71);
type = Stem;
},
{
horizontal = 1;
place = (381, 72);
place = (381, 72);
type = Stem;
},
{
horizontal = 1;
place = (458, 20);
place = (458, 20);
type = Stem;
},
{
place = (211, 80);
place = (211, 80);
type = Stem;
},
{
place = (356, 97);
place = (356, 97);
type = Stem;
}
);
layerId = "EE525628-5027-49A8-B1A1-7E2F3B98E9F5";
shapes = (
{
closed = 1;
nodes = (
(226,473,o),
(223,478,o),
(218,478,cs),
(215,478,o),
(212,476,o),
(208,472,cs),
(125,389,o),
(9,345,o),
(9,317,cs),
(9,307,o),
(18,303,o),
(25,302,c),
(49,323,o),
(95,346,o),
(122,363,c),
(122,339,o),
(7,23,o),
(7,-2,c),
(17,-8,o),
(29,-13,o),
(46,-13,cs),
(64,-13,o),
(74,16,o),
(87,43,cs),
(213,305,o),
(313,378,o),
(350,378,cs),
(363,378,o),
(370,368,o),
(370,354,cs),
(370,307,o),
(226,86,o),
(226,22,cs),
(226,-4,o),
(240,-15,o),
(265,-15,cs),
(317,-15,o),
(415,77,o),
(415,101,cs),
(415,106,o),
(411,113,o),
(405,113,cs),
(403,113,o),
(402,112,o),
(400,111,cs),
(381,94,o),
(346,56,o),
(318,56,cs),
(313,56,o),
(307,59,o),
(307,67,cs),
(307,97,o),
(467,323,o),
(467,394,cs),
(467,416,o),
(459,450,o),
(408,450,cs),
(299,450,o),
(189,276,o),
(139,207,c),
(136,207,l),
(141,234,o),
(226,430,o),
(226,465,cs)
);
}
);
width = 477;
}
);
unicode = 110;
},
{
glyphname = o;
kernLeft = o;
kernRight = o;
lastChange = "2024-02-08 10:50:45 +0000";
layers = (
{
anchors = (
{
name = bottom;
pos = (116,0);
},
{
name = center;
pos = (170,219);
},
{
name = ogonek;
pos = (255,10);
},
{
name = top;
pos = (234,438);
},
{
name = topright;
pos = (374,438);
}
);
hints = (
{
horizontal = 1;
place = (-19, 39);
place = (-19, 39);
type = Stem;
},
{
horizontal = 1;
place = (400, 56);
place = (400, 56);
type = Stem;
},
{
place = (25, 69);
place = (25, 69);
type = Stem;
},
{
place = (270, 74);
place = (270, 74);
type = Stem;
}
);
layerId = "EE525628-5027-49A8-B1A1-7E2F3B98E9F5";
shapes = (
{
closed = 1;
nodes = (
(256,-19,o),
(327,198,o),
(327,316,cs),
(327,402,o),
(284,450,o),
(224,450,cs),
(94,450,o),
(13,259,o),
(13,126,cs),
(13,33,o),
(59,-19,o),
(111,-19,cs)
);
},
{
closed = 1;
nodes = (
(78,33,o),
(57,53,o),
(57,92,cs),
(57,168,o),
(150,404,o),
(236,404,cs),
(264,404,o),
(282,384,o),
(282,342,cs),
(282,265,o),
(191,33,o),
(102,33,cs)
);
}
);
width = 340;
}
);
unicode = 111;
},
{
glyphname = oslash;
kernLeft = o;
kernRight = o;
lastChange = "2024-02-02 14:50:23 +0000";
layers = (
{
hints = (
{
horizontal = 1;
place = (-19, 39);
place = (-19, 39);
type = Stem;
},
{
horizontal = 1;
place = (400, 56);
place = (400, 56);
type = Stem;
},
{
place = (25, 69);
place = (25, 69);
type = Stem;
},
{
place = (270, 74);
place = (270, 74);
type = Stem;
}
);
layerId = "EE525628-5027-49A8-B1A1-7E2F3B98E9F5";
shapes = (
{
closed = 1;
nodes = (
(256,-19,o),
(327,198,o),
(327,316,cs),
(327,346,o),
(322,371,o),
(312,392,c),
(408,525,l),
(408,525,o),
(397,542,o),
(381,542,cs),
(372,542,o),
(365,538,o),
(353,522,cs),
(286,427,l),
(269,442,o),
(248,450,o),
(224,450,cs),
(94,450,o),
(13,259,o),
(13,126,cs),
(13,100,o),
(16,78,o),
(22,59,c),
(-64,-62,l),
(-55,-74,o),
(-47,-79,o),
(-38,-79,cs),
(-27,-79,o),
(-18,-71,o),
(-7,-55,cs),
(44,16,l),
(62,-7,o),
(86,-19,o),
(111,-19,cs)
);
},
{
closed = 1;
nodes = (
(78,33,o),
(57,53,o),
(57,92,cs),
(57,168,o),
(150,404,o),
(236,404,cs),
(264,404,o),
(282,384,o),
(282,342,cs),
(282,265,o),
(191,33,o),
(102,33,cs)
);
}
);
width = 340;
}
);
unicode = 248;
},
{
glyphname = oe;
kernLeft = o;
kernRight = e;
lastChange = "2024-02-02 14:45:20 +0000";
layers = (
{
hints = (
{
horizontal = 1;
place = (-19, 39);
place = (-19, 39);
type = Stem;
},
{
horizontal = 1;
place = (-17, 82);
place = (-17, 82);
type = Stem;
},
{
horizontal = 1;
place = (400, 56);
place = (400, 56);
type = Stem;
},
{
place = (28, 69);
place = (28, 69);
type = Stem;
},
{
place = (273, 74);
place = (273, 74);
type = Stem;
},
{
place = (326, 80);
place = (326, 80);
type = Stem;
},
{
place = (600, 77);
place = (600, 77);
type = Stem;
}
);
layerId = "EE525628-5027-49A8-B1A1-7E2F3B98E9F5";
shapes = (
{
closed = 1;
nodes = (
(406,99,o),
(364,63,o),
(321,63,cs),
(304,63,o),
(297,82,o),
(297,106,cs),
(297,131,o),
(308,172,o),
(319,207,c),
(423,239,o),
(583,335,o),
(583,399,cs),
(583,435,o),
(548,450,o),
(507,450,cs),
(442,450,o),
(376,405,o),
(330,336,c),
(326,336,l,{
name = .hr02;
}),
(323,410,o),
(279,450,o),
(227,450,cs),
(97,450,o),
(16,259,o),
(16,126,cs),
(16,33,o),
(62,-19,o),
(114,-19,cs,{
name = .hr03;
}),
(151,-19,o),
(182,-7,o),
(213,29,c),
(218,28,l),
(224,-2,o),
(244,-15,o),
(270,-15,cs),
(371,-15,o),
(464,121,o),
(464,136,cs),
(464,142,o),
(461,147,o),
(454,147,cs),
(450,147,o),
(446,145,o),
(441,139,cs,{
name = .hr01;
})
);
},
{
closed = 1;
nodes = (
(81,33,o),
(60,53,o),
(60,92,cs),
(60,168,o),
(153,404,o),
(239,404,cs),
(267,404,o),
(285,384,o),
(285,342,cs),
(285,313,o),
(272,261,o),
(251,209,cs),
(242,187,l),
(207,108,o),
(155,33,o),
(105,33,cs)
);
},
{
closed = 1;
nodes = (
(492,408,o),
(501,399,o),
(501,381,cs),
(501,329,o),
(381,262,o),
(331,236,c),
(367,323,o),
(426,408,o),
(475,408,cs)
);
}
);
width = 546;
}
);
unicode = 339;
},
{
glyphname = p;
lastChange = "2024-02-08 10:52:25 +0000";
layers = (
{
hints = (
{
horizontal = 1;
place = (-312, 20);
place = (-312, 20);
type = Stem;
},
{
horizontal = 1;
place = (-289, 31);
place = (-289, 31);
type = Stem;
},
{
horizontal = 1;
place = (348, 93);
place = (348, 93);
type = Stem;
},
{
place = (385, 84);
place = (385, 84);
type = Stem;
}
);
layerId = "EE525628-5027-49A8-B1A1-7E2F3B98E9F5";
shapes = (
{
closed = 1;
nodes = (
(14,166,l),
(36,206,o),
(89,255,o),
(150,296,c),
(82,90,o),
(1,-119,o),
(-34,-222,cs),
(-38,-234,o),
(-44,-241,o),
(-58,-241,cs),
(-95,-241,ls),
(-104,-241,o),
(-114,-247,o),
(-114,-257,cs),
(-114,-267,o),
(-109,-270,o),
(-105,-270,c),
(-105,-270,o),
(-24,-269,o),
(5,-269,cs),
(40,-269,o),
(138,-270,o),
(138,-270,c),
(152,-270,o),
(162,-264,o),
(162,-255,cs),
(162,-246,o),
(157,-241,o),
(151,-241,cs),
(79,-241,ls),
(70,-241,o),
(65,-230,o),
(64,-216,c),
(64,-214,ls),
(64,-177,o),
(114,-15,o),
(127,26,c),
(147,6,o),
(174,-13,o),
(203,-13,cs),
(381,-13,o),
(488,282,o),
(488,365,cs),
(488,421,o),
(467,450,o),
(423,450,cs),
(389,450,o),
(323,423,o),
(251,384,c),
(267,438,o),
(278,481,o),
(278,505,cs),
(278,544,o),
(254,563,o),
(224,563,cs),
(219,563,o),
(215,563,o),
(210,562,c),
(210,562,o),
(212,554,o),
(212,547,cs),
(212,493,o),
(179,378,o),
(167,343,c),
(77,285,o),
(0,221,o),
(0,186,cs),
(0,177,o),
(6,170,o),
(12,166,c)
);
},
{
closed = 1;
nodes = (
(387,375,o),
(401,355,o),
(401,310,cs),
(401,218,o),
(303,30,o),
(242,30,cs),
(217,30,o),
(168,72,o),
(153,94,c),
(180,171,o),
(213,262,o),
(238,339,c),
(284,362,o),
(326,375,o),
(357,375,cs)
);
}
);
width = 500;
}
);
unicode = 112;
},
{
glyphname = thorn;
lastChange = "2024-02-02 14:53:29 +0000";
layers = (
{
hints = (
{
horizontal = 1;
place = (-250, 21);
target = up;
type = BottomGhost;
},
{
horizontal = 1;
place = (-19, 39);
place = (-19, 39);
type = Stem;
},
{
horizontal = 1;
place = (400, 57);
place = (400, 57);
type = Stem;
},
{
horizontal = 1;
place = (721, 53);
place = (721, 53);
type = Stem;
},
{
place = (-114, 50);
place = (-114, 50);
type = Stem;
},
{
place = (81, 67);
place = (81, 67);
type = Stem;
},
{
place = (188, 73);
place = (188, 73);
type = Stem;
}
);
layerId = "EE525628-5027-49A8-B1A1-7E2F3B98E9F5";
shapes = (
{
closed = 1;
nodes = (
(29,90,o),
(-52,-119,o),
(-87,-222,cs),
(-91,-234,o),
(-97,-241,o),
(-111,-241,cs),
(-148,-241,ls),
(-157,-241,o),
(-167,-247,o),
(-167,-257,cs),
(-167,-267,o),
(-162,-270,o),
(-158,-270,c),
(-158,-270,o),
(-77,-269,o),
(-48,-269,cs),
(-13,-269,o),
(85,-270,o),
(85,-270,c),
(99,-270,o),
(109,-264,o),
(109,-255,cs),
(109,-246,o),
(104,-241,o),
(98,-241,cs),
(26,-241,ls),
(17,-241,o),
(12,-230,o),
(11,-216,c),
(11,-214,ls),
(11,-177,o),
(61,-15,o),
(74,26,c),
(94,6,o),
(121,-13,o),
(150,-13,cs),
(328,-13,o),
(435,282,o),
(435,365,cs),
(435,421,o),
(414,450,o),
(370,450,cs),
(336,450,o),
(272,423,o),
(201,385,c),
(255,535,o),
(325,683,o),
(374,683,cs),
(390,683,o),
(401,678,o),
(414,672,c),
(439,677,o),
(452,691,o),
(452,706,cs),
(452,721,o),
(437,735,o),
(408,735,cs),
(277,735,o),
(174,520,o),
(97,296,c)
);
},
{
closed = 1;
nodes = (
(334,375,o),
(348,355,o),
(348,310,cs),
(348,218,o),
(250,30,o),
(189,30,cs),
(164,30,o),
(115,72,o),
(100,94,c),
(185,339,l),
(231,362,o),
(273,375,o),
(304,375,cs)
);
}
);
width = 414;
}
);
unicode = 254;
},
{
glyphname = q;
kernLeft = c;
lastChange = "2024-02-02 12:34:16 +0000";
layers = (
{
hints = (
{
horizontal = 1;
place = (-312, 20);
place = (-312, 20);
type = Stem;
},
{
horizontal = 1;
place = (-289, 31);
place = (-289, 31);
type = Stem;
},
{
horizontal = 1;
place = (-15, 93);
place = (-15, 93);
type = Stem;
},
{
horizontal = 1;
place = (391, 41);
place = (391, 41);
type = Stem;
},
{
place = (13, 93);
place = (13, 93);
type = Stem;
}
);
layerId = "EE525628-5027-49A8-B1A1-7E2F3B98E9F5";
shapes = (
{
closed = 1;
nodes = (
(493,434,o),
(529,467,o),
(530,481,c),
(530,488,o),
(525,492,o),
(520,492,cs),
(515,492,o),
(511,490,o),
(507,486,cs),
(476,457,o),
(428,406,o),
(413,406,cs),
(399,406,o),
(372,450,o),
(307,450,cs),
(126,450,o),
(0,134,o),
(0,48,cs),
(0,8,o),
(23,-15,o),
(54,-15,cs),
(125,-15,o),
(257,154,o),
(325,241,c),
(327,239,l),
(266,114,o),
(179,-62,o),
(104,-222,cs),
(98,-234,o),
(92,-241,o),
(78,-241,cs),
(41,-241,ls),
(32,-241,o),
(21,-247,o),
(20,-258,c),
(20,-267,o),
(23,-270,o),
(27,-270,c),
(27,-270,o),
(108,-269,o),
(137,-269,cs),
(173,-269,o),
(271,-270,o),
(271,-270,c),
(285,-270,o),
(297,-264,o),
(297,-252,cs),
(297,-245,o),
(293,-241,o),
(288,-241,cs),
(216,-241,ls),
(208,-241,o),
(203,-234,o),
(203,-221,cs),
(203,-207,o),
(207,-193,o),
(220,-158,cs),
(265,-37,o),
(361,209,o),
(444,345,c)
);
},
{
closed = 1;
nodes = (
(319,408,o),
(356,369,o),
(367,347,c),
(321,261,o),
(149,63,o),
(110,63,cs),
(97,63,o),
(87,74,o),
(87,93,cs),
(87,180,o),
(195,408,o),
(272,408,cs)
);
}
);
width = 476;
}
);
unicode = 113;
},
{
glyphname = r;
kernLeft = r;
kernRight = r;
lastChange = "2024-02-08 10:51:18 +0000";
layers = (
{
anchors = (
{
name = bottom;
pos = (124,0);
},
{
name = top;
pos = (312,438);
}
);
hints = (
{
horizontal = 1;
place = (-19, 20);
place = (-19, 20);
type = Stem;
},
{
horizontal = 1;
place = (369, 87);
place = (369, 87);
type = Stem;
},
{
horizontal = 1;
place = (458, 20);
place = (458, 20);
type = Stem;
},
{
place = (16, 386);
place = (16, 386);
type = Stem;
}
);
layerId = "EE525628-5027-49A8-B1A1-7E2F3B98E9F5";
shapes = (
{
closed = 1;
nodes = (
(277,450,o),
(210,295,o),
(156,211,c),
(153,211,l),
(173,274,o),
(242,443,o),
(242,465,cs),
(242,473,o),
(239,478,o),
(234,478,cs),
(231,478,o),
(228,476,o),
(224,472,cs),
(138,389,o),
(20,346,o),
(20,315,cs),
(20,306,o),
(28,303,o),
(35,302,c),
(60,323,o),
(107,346,o),
(134,363,c),
(133,339,o),
(27,23,o),
(26,-2,c),
(36,-8,o),
(54,-13,o),
(71,-13,cs),
(97,-13,o),
(107,9,o),
(120,43,cs),
(172,180,o),
(265,371,o),
(312,371,cs),
(330,371,o),
(351,364,o),
(366,348,c),
(396,357,o),
(413,381,o),
(413,404,cs),
(413,428,o),
(398,450,o),
(366,450,cs)
);
}
);
width = 355;
}
);
unicode = 114;
},
{
glyphname = s;
kernLeft = s;
kernRight = s;
lastChange = "2024-02-08 10:51:20 +0000";
layers = (
{
anchors = (
{
name = bottom;
pos = (81,0);
},
{
name = top;
pos = (229,438);
}
);
hints = (
{
horizontal = 1;
place = (-17, 46);
place = (-17, 46);
type = Stem;
},
{
horizontal = 1;
place = (410, 46);
place = (410, 46);
type = Stem;
},
{
place = (94, 58);
place = (94, 58);
type = Stem;
}
);
layerId = "EE525628-5027-49A8-B1A1-7E2F3B98E9F5";
shapes = (
{
closed = 1;
nodes = (
(224,216,o),
(131,272,o),
(131,346,cs),
(131,382,o),
(163,404,o),
(187,404,cs),
(215,404,o),
(238,385,o),
(243,349,c),
(293,352,o),
(302,370,o),
(305,394,c),
(305,424,o),
(284,450,o),
(229,450,cs),
(161,450,o),
(73,395,o),
(73,300,cs),
(73,230,o),
(158,158,o),
(158,80,cs),
(158,50,o),
(141,29,o),
(114,29,cs),
(91,29,o),
(70,47,o),
(53,81,c),
(26,81,o),
(3,63,o),
(3,39,cs),
(3,9,o),
(25,-17,o),
(73,-17,cs),
(145,-17,o),
(224,35,o),
(224,129,cs)
);
}
);
width = 300;
}
);
unicode = 115;
},
{
glyphname = germandbls;
lastChange = "2024-02-02 14:53:36 +0000";
layers = (
{
hints = (
{
horizontal = 1;
place = (-279, 53);
place = (-279, 53);
type = Stem;
},
{
horizontal = 1;
place = (-17, 46);
place = (-17, 46);
type = Stem;
},
{
horizontal = 1;
place = (682, 52);
place = (682, 52);
type = Stem;
},
{
place = (304, 58);
place = (304, 58);
type = Stem;
},
{
place = (356, 66);
place = (356, 66);
type = Stem;
},
{
place = (458, 81);
place = (458, 81);
type = Stem;
}
);
layerId = "EE525628-5027-49A8-B1A1-7E2F3B98E9F5";
shapes = (
{
closed = 1;
nodes = (
(382,230,o),
(322,294,o),
(322,368,cs,{
name = .hr02;
}),
(322,492,o),
(499,527,o),
(499,641,cs),
(499,694,o),
(466,734,o),
(410,734,cs),
(76,734,o),
(40,-226,o),
(-140,-226,cs),
(-174,-226,o),
(-196,-206,o),
(-225,-180,c),
(-244,-190,o),
(-251,-204,o),
(-251,-219,c),
(-250,-252,o),
(-217,-279,o),
(-175,-279,cs),
(111,-279,o),
(186,682,o),
(379,682,cs),
(404,682,o),
(418,658,o),
(418,635,cs),
(418,548,o),
(264,462,o),
(264,335,cs),
(264,265,o),
(316,178,o),
(316,80,cs,{
name = .hr03;
}),
(316,50,o),
(299,29,o),
(272,29,cs),
(249,29,o),
(228,47,o),
(211,81,c),
(184,81,o),
(161,63,o),
(161,39,cs),
(161,9,o),
(183,-17,o),
(231,-17,cs),
(303,-17,o),
(382,35,o),
(382,129,cs,{
name = .hr01;
})
);
}
);
width = 429;
}
);
unicode = 223;
},
{
glyphname = t;
kernLeft = t;
kernRight = t;
lastChange = "2024-02-08 10:51:22 +0000";
layers = (
{
anchors = (
{
name = bottom;
pos = (52,0);
},
{
name = center;
pos = (146,219);
},
{
name = top;
pos = (200,438);
},
{
name = topright;
pos = (321,750);
}
);
hints = (
{
horizontal = 1;
place = (-18, 73);
place = (-18, 73);
type = Stem;
},
{
horizontal = 1;
place = (411, 27);
place = (411, 27);
type = Stem;
},
{
place = (31, 74);
place = (31, 74);
type = Stem;
}
);
layerId = "EE525628-5027-49A8-B1A1-7E2F3B98E9F5";
shapes = (
{
closed = 1;
nodes = (
(319,399,ls),
(328,399,o),
(334,415,o),
(334,426,cs),
(334,433,o),
(332,438,o),
(326,438,cs),
(222,438,l),
(232,467,o),
(242,495,o),
(251,522,cs),
(252,526,o),
(253,529,o),
(253,533,cs),
(253,552,o),
(235,559,o),
(215,559,cs),
(203,559,o),
(190,556,o),
(181,551,c),
(174,513,o),
(160,455,o),
(137,443,cs),
(116,432,o),
(84,432,o),
(55,432,cs),
(46,432,o),
(41,419,o),
(41,410,cs),
(41,405,o),
(43,399,o),
(48,399,cs),
(133,399,l),
(86,257,o),
(14,71,o),
(14,24,cs),
(14,-1,o),
(32,-13,o),
(48,-13,cs),
(133,-13,o),
(240,136,o),
(240,147,cs),
(240,154,o),
(236,158,o),
(231,158,cs),
(211,158,o),
(147,66,o),
(118,66,cs),
(108,66,o),
(106,74,o),
(106,85,cs),
(106,109,o),
(154,249,o),
(208,399,c)
);
}
);
width = 291;
}
);
unicode = 116;
},
{
glyphname = u;
kernLeft = u;
kernRight = u;
lastChange = "2024-02-08 10:51:29 +0000";
layers = (
{
anchors = (
{
name = bottom;
pos = (192,0);
},
{
name = ogonek;
pos = (391,10);
},
{
name = top;
pos = (339,438);
},
{
name = topright;
pos = (525,438);
}
);
hints = (
{
horizontal = 1;
place = (-15, 62);
place = (-15, 62);
type = Stem;
},
{
horizontal = 1;
place = (383, 71);
place = (383, 71);
type = Stem;
},
{
place = (-3, 97);
place = (-3, 97);
type = Stem;
},
{
place = (159, 80);
place = (159, 80);
type = Stem;
},
{
place = (248, 79);
place = (248, 79);
type = Stem;
}
);
layerId = "EE525628-5027-49A8-B1A1-7E2F3B98E9F5";
shapes = (
{
closed = 1;
nodes = (
(254,3,o),
(262,-15,o),
(290,-15,cs),
(364,-15,o),
(438,66,o),
(438,114,cs),
(438,119,o),
(434,125,o),
(427,125,cs),
(423,125,o),
(421,122,o),
(421,122,c),
(409,76,o),
(373,47,o),
(354,47,cs),
(340,47,o),
(336,54,o),
(336,63,cs),
(336,93,o),
(484,416,o),
(486,441,c),
(477,447,o),
(465,452,o),
(448,452,cs),
(430,452,o),
(418,423,o),
(402,396,cs),
(253,134,o),
(150,58,o),
(113,58,cs),
(101,58,o),
(95,65,o),
(95,77,cs),
(95,127,o),
(270,360,o),
(270,422,cs),
(270,444,o),
(257,454,o),
(234,454,cs),
(182,454,o),
(76,362,o),
(74,338,c),
(74,333,o),
(77,326,o),
(83,326,cs),
(85,326,o),
(86,327,o),
(88,328,cs),
(109,345,o),
(147,383,o),
(175,383,cs),
(180,383,o),
(185,381,o),
(185,374,cs),
(185,342,o),
(-6,109,o),
(-6,34,cs),
(-6,13,o),
(3,-14,o),
(48,-14,cs),
(157,-14,o),
(280,163,o),
(336,232,c),
(339,232,l),
(320,186,o),
(254,78,o),
(254,20,cs)
);
}
);
width = 491;
}
);
unicode = 117;
},
{
glyphname = v;
kernLeft = v;
kernRight = v;
lastChange = "2024-02-08 10:51:31 +0000";
layers = (
{
hints = (
{
horizontal = 1;
place = (-19, 20);
place = (-19, 20);
type = Stem;
},
{
horizontal = 1;
place = (366, 90);
place = (366, 90);
type = Stem;
},
{
place = (63, 29);
place = (63, 29);
type = Stem;
},
{
place = (204, 61);
place = (204, 61);
type = Stem;
},
{
place = (327, 63);
place = (327, 63);
type = Stem;
}
);
layerId = "EE525628-5027-49A8-B1A1-7E2F3B98E9F5";
shapes = (
{
closed = 1;
nodes = (
(41,21,o),
(67,-13,o),
(125,-13,cs),
(291,-13,o),
(432,274,o),
(432,390,cs),
(432,433,o),
(415,450,o),
(392,450,cs),
(369,450,o),
(350,435,o),
(344,414,c),
(357,397,o),
(373,376,o),
(373,337,cs),
(373,198,o),
(256,68,o),
(168,68,cs),
(136,68,o),
(117,92,o),
(117,124,cs),
(117,198,o),
(229,364,o),
(229,421,cs),
(229,443,o),
(223,450,o),
(191,450,cs),
(108,450,o),
(15,325,o),
(15,311,cs),
(15,306,o),
(20,297,o),
(25,297,cs),
(28,297,o),
(29,298,o),
(31,299,c),
(64,336,o),
(99,373,o),
(125,373,cs),
(131,373,o),
(136,372,o),
(136,358,cs),
(136,327,o),
(41,172,o),
(41,75,cs)
);
}
);
width = 449;
}
);
unicode = 118;
},
{
glyphname = w;
kernLeft = v;
kernRight = v;
lastChange = "2024-02-02 14:42:16 +0000";
layers = (
{
anchors = (
{
name = bottom;
pos = (271,0);
},
{
name = top;
pos = (409,438);
}
);
hints = (
{
horizontal = 1;
place = (-19, 20);
place = (-19, 20);
type = Stem;
},
{
horizontal = 1;
place = (366, 90);
place = (366, 90);
type = Stem;
},
{
place = (61, 29);
place = (61, 29);
type = Stem;
},
{
place = (202, 61);
place = (202, 61);
type = Stem;
},
{
place = (417, 56);
place = (417, 56);
type = Stem;
},
{
place = (535, 63);
place = (535, 63);
type = Stem;
}
);
layerId = "EE525628-5027-49A8-B1A1-7E2F3B98E9F5";
shapes = (
{
closed = 1;
nodes = (
(552,-13,o),
(641,204,o),
(641,347,cs),
(641,406,o),
(630,450,o),
(601,450,cs),
(577,450,o),
(560,432,o),
(555,414,c),
(579,389,o),
(594,342,o),
(594,289,cs),
(594,191,o),
(539,68,o),
(422,68,cs),
(377,68,o),
(348,84,o),
(333,108,c),
(415,195,o),
(474,310,o),
(474,380,cs),
(474,415,o),
(459,433,o),
(434,433,cs),
(320,433,o),
(266,233,o),
(266,149,cs),
(266,132,o),
(268,117,o),
(270,104,c),
(235,81,o),
(199,68,o),
(169,68,cs),
(139,68,o),
(121,85,o),
(121,115,cs),
(121,195,o),
(249,364,o),
(249,425,cs),
(249,444,o),
(242,450,o),
(212,450,cs),
(129,450,o),
(29,328,o),
(29,306,cs),
(29,300,o),
(33,297,o),
(38,297,cs),
(42,297,o),
(44,299,o),
(44,299,c),
(79,336,o),
(116,373,o),
(142,373,cs),
(147,373,o),
(152,372,o),
(152,361,cs),
(152,324,o),
(42,165,o),
(42,65,cs),
(42,17,o),
(64,-13,o),
(108,-13,cs),
(169,-13,o),
(228,16,o),
(282,59,c),
(304,2,o),
(358,-13,o),
(384,-13,cs)
);
},
{
closed = 1;
nodes = (
(419,265,o),
(367,187,o),
(319,141,c),
(314,159,o),
(312,178,o),
(312,197,cs),
(312,292,o),
(355,358,o),
(395,358,cs),
(409,358,o),
(419,346,o),
(419,327,cs)
);
}
);
width = 649;
}
);
unicode = 119;
},
{
glyphname = x;
lastChange = "2024-02-08 10:51:34 +0000";
layers = (
{
hints = (
{
horizontal = 1;
place = (-10, 110);
place = (-10, 110);
type = Stem;
},
{
horizontal = 1;
place = (346, 110);
place = (346, 110);
type = Stem;
},
{
place = (64, 28);
place = (64, 28);
type = Stem;
},
{
place = (423, 27);
place = (423, 27);
type = Stem;
}
);
layerId = "EE525628-5027-49A8-B1A1-7E2F3B98E9F5";
shapes = (
{
closed = 1;
nodes = (
(164,435,o),
(145,450,o),
(128,450,cs),
(86,450,o),
(68,362,o),
(68,318,cs),
(69,267,o),
(79,257,o),
(85,257,cs),
(91,257,o),
(97,261,o),
(97,265,cs),
(97,273,ls),
(97,338,o),
(109,357,o),
(119,357,cs),
(123,357,o),
(126,356,o),
(131,347,cs),
(134,342,o),
(174,274,o),
(219,199,c),
(148,123,o),
(78,58,o),
(59,58,cs),
(44,58,o),
(36,72,o),
(36,91,cs),
(36,96,o),
(36,100,o),
(37,108,c),
(33,109,o),
(29,109,o),
(24,109,cs),
(-18,109,o),
(-39,75,o),
(-39,44,cs),
(-39,14,o),
(-26,-13,o),
(7,-13,cs),
(77,-13,o),
(184,117,o),
(233,176,c),
(278,104,o),
(326,30,o),
(349,5,cs),
(360,-6,o),
(371,-13,o),
(381,-13,cs),
(421,-13,o),
(438,68,o),
(438,113,cs),
(438,167,o),
(425,171,o),
(419,171,cs),
(413,171,o),
(411,167,o),
(411,162,cs),
(411,154,ls),
(411,82,o),
(398,76,o),
(389,76,cs),
(386,76,o),
(382,78,o),
(375,87,cs),
(365,99,o),
(325,163,o),
(283,231,c),
(382,335,o),
(436,379,o),
(451,379,cs),
(462,379,o),
(467,372,o),
(467,360,cs),
(467,351,o),
(465,336,o),
(461,324,c),
(464,322,o),
(470,321,o),
(476,321,cs),
(520,321,o),
(557,366,o),
(557,404,cs),
(557,430,o),
(541,450,o),
(500,450,cs),
(422,450,o),
(316,305,o),
(270,254,c),
(235,313,o),
(201,370,o),
(188,394,c)
);
}
);
width = 514;
}
);
unicode = 120;
},
{
glyphname = y;
kernLeft = y;
kernRight = y;
lastChange = "2024-02-08 10:51:36 +0000";
layers = (
{
anchors = (
{
name = bottom;
pos = (136,0);
},
{
name = top;
pos = (224,438);
}
);
hints = (
{
horizontal = 1;
place = (-304, 62);
place = (-304, 62);
type = Stem;
},
{
horizontal = 1;
place = (366, 90);
place = (366, 90);
type = Stem;
},
{
place = (12, 29);
place = (12, 29);
type = Stem;
},
{
place = (184, 59);
place = (184, 59);
type = Stem;
},
{
place = (292, 59);
place = (292, 59);
type = Stem;
}
);
layerId = "EE525628-5027-49A8-B1A1-7E2F3B98E9F5";
shapes = (
{
closed = 1;
nodes = (
(307,450,o),
(287,440,o),
(272,417,c),
(295,380,o),
(304,344,o),
(304,281,cs),
(304,190,o),
(269,85,o),
(232,9,c),
(243,49,o),
(248,104,o),
(248,150,cs),
(248,310,o),
(194,450,o),
(87,450,cs),
(45,450,o),
(18,410,o),
(18,333,cs),
(18,290,o),
(26,267,o),
(37,267,cs),
(41,267,o),
(46,270,o),
(46,277,cs),
(46,284,o),
(45,298,o),
(45,312,c),
(47,345,o),
(55,360,o),
(81,360,cs),
(132,360,o),
(186,251,o),
(186,113,cs),
(186,-67,o),
(114,-242,o),
(-53,-242,cs),
(-94,-242,o),
(-121,-219,o),
(-148,-201,c),
(-177,-210,o),
(-191,-223,o),
(-191,-247,cs),
(-191,-281,o),
(-157,-304,o),
(-87,-304,cs),
(189,-304,o),
(364,153,o),
(364,360,cs),
(364,415,o),
(355,450,o),
(324,450,cs)
);
}
);
width = 380;
}
);
unicode = 121;
},
{
glyphname = z;
kernLeft = z;
kernRight = z;
lastChange = "2024-02-08 10:51:38 +0000";
layers = (
{
anchors = (
{
name = bottom;
pos = (166,0);
},
{
name = center;
pos = (220,219);
},
{
name = top;
pos = (274,438);
}
);
hints = (
{
horizontal = 1;
place = (-198, 39);
place = (-198, 39);
type = Stem;
},
{
horizontal = 1;
place = (346, 40);
place = (346, 40);
type = Stem;
},
{
horizontal = 1;
place = (407, 69);
place = (407, 69);
type = Stem;
},
{
place = (18, 43);
place = (18, 43);
type = Stem;
},
{
place = (430, 44);
place = (430, 44);
type = Stem;
}
);
layerId = "EE525628-5027-49A8-B1A1-7E2F3B98E9F5";
shapes = (
{
closed = 1;
nodes = (
(31,77,o),
(-33,51,o),
(-33,10,cs),
(-33,-2,o),
(-30,-13,o),
(-16,-13,cs),
(9,-13,o),
(13,-2,o),
(22,10,cs),
(32,24,o),
(45,32,o),
(74,32,cs),
(169,32,o),
(190,-15,o),
(287,-15,cs),
(379,-15,o),
(450,68,o),
(450,96,cs),
(450,112,o),
(440,115,o),
(440,115,c),
(405,71,o),
(365,44,o),
(323,44,cs),
(252,44,o),
(243,92,o),
(137,105,c),
(244,191,o),
(462,365,o),
(462,420,cs),
(462,428,o),
(459,434,o),
(452,439,c),
(452,439,o),
(439,422,o),
(408,391,c),
(369,389,o),
(333,388,o),
(302,388,cs),
(151,388,o),
(135,412,o),
(97,431,c),
(38,364,o),
(82,313,o),
(173,313,cs),
(237,313,o),
(274,322,o),
(361,345,c),
(222,231,o),
(143,159,o),
(64,97,c)
);
}
);
width = 439;
}
);
unicode = 122;
},
{
glyphname = g.ss01;
kernLeft = g.ss01;
kernRight = g.ss01;
lastChange = "2024-02-02 14:53:49 +0000";
layers = (
{
anchors = (
{
name = bottom;
pos = (117,-250);
},
{
name = top;
pos = (336,438);
}
);
hints = (
{
horizontal = 1;
place = (-280, 46);
place = (-280, 46);
type = Stem;
},
{
horizontal = 1;
place = (408, 42);
place = (408, 42);
type = Stem;
},
{
place = (-173, 76);
place = (-173, 76);
type = Stem;
},
{
place = (17, 84);
place = (17, 84);
type = Stem;
}
);
layerId = "EE525628-5027-49A8-B1A1-7E2F3B98E9F5";
shapes = (
{
closed = 1;
nodes = (
(520,447,o),
(508,450,o),
(500,450,cs),
(466,450,o),
(435,430,o),
(407,405,c),
(381,430,o),
(345,450,o),
(299,450,cs),
(127,450,o),
(17,146,o),
(17,53,cs),
(17,23,o),
(28,2,o),
(47,-8,c),
(-59,-63,o),
(-173,-112,o),
(-173,-175,cs),
(-173,-251,o),
(-94,-280,o),
(-35,-280,cs),
(166,-280,o),
(260,-190,o),
(313,-101,cs),
(360,-22,o),
(377,140,o),
(405,257,cs),
(427,348,o),
(481,423,o),
(520,438,c)
);
},
{
closed = 1;
nodes = (
(331,237,l),
(244,-151,o),
(214,-234,o),
(39,-234,cs),
(-4,-234,o),
(-97,-217,o),
(-97,-154,cs),
(-97,-105,o),
(50,-45,o),
(119,1,cs),
(186,45,o),
(275,162,o),
(330,238,c)
);
},
{
closed = 1;
nodes = (
(311,408,o),
(356,371,o),
(368,347,c),
(327,261,o),
(164,63,o),
(126,63,cs),
(109,63,o),
(101,80,o),
(101,101,cs),
(101,187,o),
(193,408,o),
(270,408,cs)
);
}
);
width = 464;
}
);
},
{
glyphname = z.ss02;
kernLeft = z.ss02;
kernRight = z.ss02;
lastChange = "2024-02-02 14:47:22 +0000";
layers = (
{
anchors = (
{
name = bottom;
pos = (172,0);
},
{
name = center;
pos = (226,219);
},
{
name = top;
pos = (310,438);
}
);
hints = (
{
horizontal = 1;
place = (-279, 62);
place = (-279, 62);
type = Stem;
},
{
horizontal = 1;
place = (-279, 210);
place = (-279, 210);
type = Stem;
},
{
horizontal = 1;
place = (15, 42);
place = (15, 42);
type = Stem;
},
{
horizontal = 1;
place = (239, 222);
place = (239, 222);
type = Stem;
},
{
horizontal = 1;
place = (334, 33);
place = (334, 33);
type = Stem;
},
{
horizontal = 1;
place = (393, 68);
place = (393, 68);
type = Stem;
},
{
horizontal = 1;
place = (450, -20);
target = down;
type = TopGhost;
},
{
place = (51, 34);
place = (51, 34);
type = Stem;
},
{
place = (51, 128);
place = (51, 128);
type = Stem;
},
{
place = (559, 117);
place = (559, 117);
type = Stem;
},
{
place = (639, 37);
place = (639, 37);
type = Stem;
}
);
layerId = "EE525628-5027-49A8-B1A1-7E2F3B98E9F5";
shapes = (
{
closed = 1;
nodes = (
(563,-128,o),
(566,-128,o),
(569,-128,cs),
(607,-128,o),
(639,-149,o),
(639,-176,cs,{
name = .hr02;
}),
(639,-196,o),
(619,-217,o),
(590,-217,cs),
(492,-217,o),
(322,57,o),
(177,57,cs),
(164,57,o),
(149,53,o),
(136,48,c),
(208,124,o),
(330,218,o),
(400,315,cs),
(431,357,o),
(471,376,o),
(471,426,cs),
(471,436,o),
(462,450,o),
(443,450,cs),
(382,450,o),
(407,367,o),
(373,367,cs),
(303,367,o),
(286,461,o),
(175,461,cs,{
name = .hr03;
}),
(84,461,o),
(51,389,o),
(51,330,cs),
(51,286,o),
(82,239,o),
(130,239,cs),
(158,239,o),
(179,259,o),
(179,282,cs),
(179,308,o),
(152,323,o),
(134,323,c),
(127,311,o),
(121,305,o),
(108,305,cs),
(97,305,o),
(85,324,o),
(85,340,cs,{
name = .hr04;
}),
(85,371,o),
(110,393,o),
(131,393,cs),
(191,393,o),
(240,334,o),
(343,334,cs),
(352,334,o),
(361,334,o),
(371,335,c),
(297,222,o),
(133,105,o),
(30,0,cs),
(18,-13,o),
(12,-23,o),
(12,-34,cs),
(12,-51,o),
(25,-62,o),
(41,-62,cs),
(54,-62,o),
(70,-57,o),
(77,-35,cs),
(86,-8,o),
(108,15,o),
(135,15,cs),
(278,15,o),
(384,-279,o),
(545,-279,cs),
(631,-279,o),
(676,-202,o),
(676,-147,cs),
(676,-95,o),
(641,-69,o),
(612,-69,cs),
(584,-69,o),
(559,-86,o),
(559,-129,c,{
name = .hr01;
})
);
}
);
width = 452;
}
);
},
{
glyphname = fi;
kernLeft = f;
lastChange = "2024-02-02 12:32:51 +0000";
layers = (
{
hints = (
{
horizontal = 1;
place = (-312, 53);
place = (-312, 53);
type = Stem;
},
{
horizontal = 1;
place = (-18, 64);
place = (-18, 64);
type = Stem;
},
{
horizontal = 1;
place = (411, 27);
place = (411, 27);
type = Stem;
},
{
horizontal = 1;
place = (551, 96);
place = (551, 96);
type = Stem;
},
{
horizontal = 1;
place = (721, 53);
place = (721, 53);
type = Stem;
},
{
place = (-141, 766);
place = (-141, 766);
type = Stem;
},
{
place = (291, 78);
place = (291, 78);
type = Stem;
},
{
place = (437, 96);
place = (437, 96);
type = Stem;
}
);
layerId = "EE525628-5027-49A8-B1A1-7E2F3B98E9F5";
shapes = (
{
closed = 1;
nodes = (
(405,399,l),
(393,353,o),
(265,84,o),
(265,22,cs),
(265,-1,o),
(282,-13,o),
(299,-13,cs),
(375,-13,o),
(451,90,o),
(451,103,cs),
(451,112,o),
(447,115,o),
(441,115,cs),
(427,115,o),
(397,66,o),
(369,66,cs,{
name = .hr02;
}),
(362,66,o),
(359,72,o),
(359,81,cs),
(359,146,o),
(499,413,o),
(499,465,cs),
(499,473,o),
(496,478,o),
(491,478,cs),
(488,478,o),
(485,476,o),
(481,472,cs),
(463,454,o),
(436,438,o),
(377,438,cs),
(255,438,l),
(311,598,o),
(352,682,o),
(414,682,cs),
(452,682,o),
(463,657,o),
(463,629,cs),
(463,616,o),
(460,602,o),
(457,589,c),
(469,586,o),
(480,584,o),
(491,584,cs),
(531,584,o),
(558,607,o),
(558,650,cs),
(558,693,o),
(526,735,o),
(460,735,cs),
(329,735,o),
(259,639,o),
(186,456,cs),
(176,432,o),
(127,432,o),
(91,432,cs),
(82,432,o),
(78,419,o),
(78,409,cs),
(78,403,o),
(81,399,o),
(85,399,cs),
(166,399,l),
(61,106,o),
(5,-226,o),
(-100,-226,cs),
(-134,-226,o),
(-156,-206,o),
(-185,-180,c),
(-204,-190,o),
(-211,-204,o),
(-211,-219,c),
(-210,-252,o),
(-177,-279,o),
(-135,-279,cs),
(60,-279,o),
(167,198,o),
(242,399,c,{
name = .hr01;
})
);
}
);
width = 523;
}
);
unicode = 64257;
},
{
glyphname = fl;
kernLeft = f;
lastChange = "2024-02-02 12:32:51 +0000";
layers = (
{
hints = (
{
horizontal = 1;
place = (-312, 53);
place = (-312, 53);
type = Stem;
},
{
horizontal = 1;
place = (-18, 64);
place = (-18, 64);
type = Stem;
},
{
horizontal = 1;
place = (411, 27);
place = (411, 27);
type = Stem;
},
{
horizontal = 1;
place = (721, 53);
place = (721, 53);
type = Stem;
},
{
place = (-174, 766);
place = (-174, 766);
type = Stem;
},
{
place = (316, 78);
place = (316, 78);
type = Stem;
}
);
layerId = "EE525628-5027-49A8-B1A1-7E2F3B98E9F5";
shapes = (
{
closed = 1;
nodes = (
(320,399,ls),
(331,399,o),
(336,415,o),
(336,426,c),
(335,433,o),
(333,438,o),
(328,438,cs),
(255,438,l),
(311,598,o),
(364,658,o),
(426,658,cs),
(478,658,o),
(505,620,o),
(505,620,c),
(378,438,o),
(300,95,o),
(300,28,cs),
(300,-1,o),
(316,-13,o),
(337,-13,cs),
(415,-12,o),
(513,132,o),
(512,147,cs),
(511,152,o),
(509,158,o),
(501,158,cs),
(483,158,o),
(424,66,o),
(396,66,cs),
(390,66,o),
(382,70,o),
(382,87,cs),
(382,183,o),
(546,683,o),
(635,683,cs),
(651,683,o),
(662,678,o),
(675,672,c),
(700,677,o),
(713,691,o),
(713,706,cs),
(713,721,o),
(698,735,o),
(669,735,cs),
(624,735,o),
(582,710,o),
(544,669,c),
(533,683,o),
(506,711,o),
(454,711,cs),
(340,711,o),
(259,639,o),
(186,456,cs),
(176,432,o),
(127,432,o),
(91,432,cs),
(82,432,o),
(78,419,o),
(78,409,cs),
(78,403,o),
(81,399,o),
(85,399,cs),
(166,399,l),
(61,106,o),
(5,-226,o),
(-100,-226,cs),
(-134,-226,o),
(-156,-206,o),
(-185,-180,c),
(-204,-190,o),
(-211,-204,o),
(-211,-219,c),
(-210,-252,o),
(-177,-279,o),
(-135,-279,cs),
(60,-279,o),
(167,198,o),
(242,399,c)
);
}
);
width = 531;
}
);
unicode = 64258;
},
{
glyphname = ordfeminine;
lastChange = "2024-02-02 15:12:32 +0000";
layers = (
{
hints = (
{
horizontal = 1;
place = (345, 42);
place = (345, 42);
type = Stem;
},
{
horizontal = 1;
place = (340, 21);
target = up;
type = BottomGhost;
},
{
horizontal = 1;
place = (427, 58);
place = (427, 58);
type = Stem;
},
{
horizontal = 1;
place = (645, 28);
place = (645, 28);
type = Stem;
},
{
horizontal = 1;
place = (685, -20);
target = down;
type = TopGhost;
},
{
place = (35, 54);
place = (35, 54);
type = Stem;
},
{
place = (89, 69);
place = (89, 69);
type = Stem;
}
);
layerId = "EE525628-5027-49A8-B1A1-7E2F3B98E9F5";
shapes = (
{
closed = 1;
nodes = (
(280,391,o),
(247,387,o),
(224,387,cs),
(190,387,o),
(154,391,o),
(124,391,cs),
(88,391,o),
(60,385,o),
(55,360,cs),
(54,354,o),
(55,347,o),
(58,340,c,{
name = .hr02;
}),
(70,344,o),
(85,345,o),
(107,345,cs,{
name = .hr03;
}),
(151,345,o),
(182,340,o),
(214,340,cs,{
name = .hr04;
}),
(244,340,o),
(296,348,o),
(304,382,cs),
(305,387,o),
(305,393,o),
(303,397,c,{
name = .hr01;
})
);
},
{
closed = 1;
nodes = (
(313,685,o),
(303,652,o),
(284,652,cs),
(276,652,o),
(267,673,o),
(228,673,cs,{
name = .hr05;
}),
(141,673,o),
(75,510,o),
(75,460,cs),
(75,438,o),
(88,427,o),
(104,427,cs),
(137,427,o),
(206,513,o),
(242,561,c),
(244,560,l),
(230,526,o),
(198,461,o),
(198,445,cs,{
name = .hr06;
}),
(198,434,o),
(204,428,o),
(215,428,cs),
(255,429,o),
(317,505,o),
(317,515,cs),
(317,521,o),
(316,523,o),
(311,523,cs),
(302,523,o),
(274,483,o),
(260,483,cs),
(258,483,o),
(254,484,o),
(254,490,cs),
(254,502,o),
(278,563,o),
(307,619,cs),
(326,655,o),
(334,664,o),
(334,673,cs),
(334,681,o),
(331,685,o),
(324,685,cs)
);
},
{
closed = 1;
nodes = (
(238,645,o),
(248,633,o),
(253,622,c),
(230,575,o),
(160,485,o),
(140,485,cs),
(132,485,o),
(129,492,o),
(129,501,cs),
(129,546,o),
(178,645,o),
(217,645,cs,{
name = .hr08;
})
);
}
);
width = 294;
}
);
unicode = 170;
},
{
glyphname = ordmasculine;
layers = (
{
hints = (
{
horizontal = 1;
place = (345, 42);
place = (345, 42);
type = Stem;
},
{
horizontal = 1;
place = (340, 21);
target = up;
type = BottomGhost;
},
{
horizontal = 1;
place = (429, 29);
place = (429, 29);
type = Stem;
},
{
horizontal = 1;
place = (653, 33);
place = (653, 33);
type = Stem;
},
{
place = (57, 49);
place = (57, 49);
type = Stem;
},
{
place = (220, 50);
place = (220, 50);
type = Stem;
}
);
layerId = "EE525628-5027-49A8-B1A1-7E2F3B98E9F5";
shapes = (
{
closed = 1;
nodes = (
(214,429,o),
(270,526,o),
(270,601,cs),
(270,648,o),
(248,686,o),
(197,686,cs),
(112,686,o),
(57,589,o),
(57,514,cs),
(57,467,o),
(79,429,o),
(128,429,cs,{
name = .hr01;
})
);
},
{
closed = 1;
nodes = (
(117,458,o),
(106,483,o),
(106,515,cs),
(106,573,o),
(141,653,o),
(183,653,cs),
(209,653,o),
(220,627,o),
(220,595,cs),
(220,538,o),
(186,458,o),
(144,458,cs)
);
},
{
closed = 1;
nodes = (
(232,391,o),
(199,387,o),
(176,387,cs),
(142,387,o),
(106,391,o),
(76,391,cs),
(40,391,o),
(12,385,o),
(7,360,c),
(7,355,ls),
(7,350,o),
(8,345,o),
(10,340,c,{
name = .hr02;
}),
(22,344,o),
(37,345,o),
(59,345,cs,{
name = .hr03;
}),
(103,345,o),
(134,340,o),
(166,340,cs,{
name = .hr04;
}),
(196,340,o),
(248,348,o),
(256,382,c),
(256,384,o),
(257,387,o),
(257,389,cs),
(257,392,o),
(256,395,o),
(255,397,c)
);
}
);
width = 258;
}
);
unicode = 186;
},
{
glyphname = zero;
lastChange = "2024-02-02 15:06:18 +0000";
layers = (
{
hints = (
{
horizontal = 1;
place = (-19, 70);
place = (-19, 70);
type = Stem;
},
{
horizontal = 1;
place = (387, 69);
place = (387, 69);
type = Stem;
},
{
place = (30, 81);
place = (30, 81);
type = Stem;
},
{
place = (442, 78);
place = (442, 78);
type = Stem;
}
);
layerId = "EE525628-5027-49A8-B1A1-7E2F3B98E9F5";
shapes = (
{
closed = 1;
nodes = (
(181,451,o),
(44,307,o),
(44,163,cs),
(44,58,o),
(119,-13,o),
(220,-13,cs),
(375,-13,o),
(514,137,o),
(514,281,cs),
(514,384,o),
(437,451,o),
(336,451,cs)
);
},
{
closed = 1;
nodes = (
(395,396,o),
(450,352,o),
(450,274,cs),
(450,156,o),
(351,43,o),
(234,43,cs),
(162,43,o),
(111,87,o),
(111,167,cs),
(111,285,o),
(204,396,o),
(322,396,cs)
);
}
);
width = 550;
}
);
unicode = 48;
},
{
glyphname = one;
lastChange = "2024-02-02 15:06:20 +0000";
layers = (
{
hints = (
{
horizontal = 1;
place = (0, 31);
place = (0, 31);
type = Stem;
},
{
horizontal = 1;
place = (407, 31);
place = (407, 31);
type = Stem;
},
{
place = (-26, 416);
place = (-26, 416);
type = Stem;
}
);
layerId = "EE525628-5027-49A8-B1A1-7E2F3B98E9F5";
shapes = (
{
closed = 1;
nodes = (
(263,394,ls),
(266,407,o),
(271,411,o),
(279,411,cs),
(349,411,ls),
(354,411,o),
(358,419,o),
(358,426,cs),
(358,436,o),
(357,441,o),
(354,441,cs),
(316,441,o),
(283,438,o),
(226,438,cs),
(181,438,o),
(105,439,o),
(105,439,c),
(98,438,o),
(95,424,o),
(95,417,cs),
(95,412,o),
(96,409,o),
(99,409,cs),
(160,409,ls),
(166,409,o),
(172,407,o),
(172,389,cs),
(172,377,o),
(169,357,o),
(161,325,cs),
(91,45,l),
(87,32,o),
(82,28,o),
(74,28,cs),
(4,28,ls),
(-2,28,o),
(-5,11,o),
(-5,6,cs),
(-5,2,o),
(-4,-2,o),
(-1,-2,cs),
(37,-2,o),
(71,1,o),
(128,1,c),
(128,1,o),
(230,0,o),
(249,0,cs),
(253,0,o),
(259,7,o),
(259,20,cs),
(259,25,o),
(257,30,o),
(254,30,cs),
(193,30,ls),
(187,30,o),
(182,34,o),
(182,50,cs),
(182,63,o),
(186,84,o),
(194,118,cs)
);
}
);
width = 378;
}
);
unicode = 49;
},
{
glyphname = two;
lastChange = "2024-02-02 15:06:42 +0000";
layers = (
{
hints = (
{
horizontal = 1;
place = (0, 75);
place = (0, 75);
type = Stem;
},
{
horizontal = 1;
place = (385, 71);
place = (385, 71);
type = Stem;
},
{
place = (297, 105);
place = (297, 105);
type = Stem;
}
);
layerId = "EE525628-5027-49A8-B1A1-7E2F3B98E9F5";
shapes = (
{
closed = 1;
nodes = (
(-21,18,o),
(-25,12,o),
(-25,8,cs),
(-25,2,o),
(-22,0,o),
(-18,0,c),
(50,4,o),
(104,6,o),
(147,6,cs),
(279,6,o),
(301,-14,o),
(301,-62,c),
(301,-62,o),
(303,-64,o),
(305,-63,cs),
(361,-32,o),
(370,-3,o),
(370,15,cs),
(370,55,o),
(311,67,o),
(246,67,cs),
(185,67,o),
(119,56,o),
(92,50,c),
(90,55,l),
(234,134,o),
(397,229,o),
(397,346,cs),
(397,402,o),
(337,450,o),
(257,450,cs),
(153,450,o),
(68,377,o),
(68,316,cs),
(68,288,o),
(85,266,o),
(115,266,cs),
(132,266,o),
(149,273,o),
(163,282,c),
(157,299,o),
(154,317,o),
(154,333,cs),
(154,380,o),
(183,408,o),
(227,408,cs),
(279,408,o),
(302,375,o),
(302,330,cs),
(302,246,o),
(166,138,o),
(-14,22,cs)
);
}
);
width = 435;
}
);
unicode = 50;
},
{
glyphname = three;
lastChange = "2024-02-02 15:06:44 +0000";
layers = (
{
hints = (
{
horizontal = 1;
place = (-320, 62);
place = (-320, 62);
type = Stem;
},
{
horizontal = 1;
place = (334, 91);
place = (334, 91);
type = Stem;
},
{
horizontal = 1;
place = (456, 20);
place = (456, 20);
type = Stem;
},
{
place = (136, 20);
place = (136, 20);
type = Stem;
},
{
place = (288, 89);
place = (288, 89);
type = Stem;
}
);
layerId = "EE525628-5027-49A8-B1A1-7E2F3B98E9F5";
shapes = (
{
closed = 1;
nodes = (
(62,-243,o),
(25,-214,o),
(25,-147,c),
(12,-140,o),
(-1,-137,o),
(-12,-137,cs),
(-44,-137,o),
(-66,-160,o),
(-66,-184,cs),
(-66,-235,o),
(1,-279,o),
(98,-279,cs),
(261,-279,o),
(400,-146,o),
(400,-29,cs),
(400,34,o),
(359,93,o),
(259,123,c),
(337,168,o),
(422,250,o),
(422,328,cs),
(422,410,o),
(353,450,o),
(272,450,cs),
(169,450,o),
(60,376,o),
(60,305,cs),
(60,276,o),
(84,262,o),
(109,262,cs),
(128,262,o),
(146,270,o),
(156,287,c),
(149,300,o),
(146,313,o),
(146,325,cs),
(146,375,o),
(202,410,o),
(250,410,cs),
(303,410,o),
(325,367,o),
(325,315,cs),
(325,238,o),
(257,166,o),
(205,133,c),
(153,133,o),
(97,112,o),
(97,84,cs),
(97,75,o),
(105,68,o),
(119,68,cs),
(134,68,o),
(178,82,o),
(218,101,c),
(278,71,o),
(304,15,o),
(304,-43,cs),
(304,-140,o),
(231,-243,o),
(122,-243,cs)
);
}
);
width = 491;
}
);
unicode = 51;
},
{
glyphname = four;
lastChange = "2024-02-02 15:07:03 +0000";
layers = (
{
hints = (
{
horizontal = 1;
place = (0, 75);
place = (0, 75);
type = Stem;
},
{
place = (-13, 460);
place = (-13, 460);
type = Stem;
}
);
layerId = "EE525628-5027-49A8-B1A1-7E2F3B98E9F5";
shapes = (
{
closed = 1;
nodes = (
(243,-16,l),
(219,-104,o),
(205,-172,o),
(192,-222,cs),
(189,-234,o),
(184,-241,o),
(170,-241,cs),
(92,-241,ls),
(83,-241,o),
(75,-247,o),
(75,-257,cs),
(75,-267,o),
(80,-270,o),
(84,-270,c),
(84,-270,o),
(206,-269,o),
(235,-269,cs),
(270,-269,o),
(358,-270,o),
(358,-270,c),
(372,-270,o),
(381,-264,o),
(381,-255,cs),
(381,-246,o),
(375,-241,o),
(369,-241,cs),
(307,-241,ls),
(292,-241,o),
(289,-219,o),
(289,-209,cs),
(289,-178,o),
(311,-107,o),
(338,5,c),
(436,5,ls),
(449,5,o),
(456,29,o),
(456,40,cs),
(456,48,o),
(454,53,o),
(448,53,cs),
(350,53,l),
(384,190,ls),
(429,373,o),
(460,443,o),
(460,455,cs),
(460,466,o),
(447,472,o),
(427,472,c),
(0,51,ls),
(-12,39,o),
(-20,27,o),
(-20,14,cs),
(-20,8,o),
(-17,5,o),
(-12,5,cs),
(248,5,l)
);
},
{
closed = 1;
nodes = (
(327,327,l),
(330,327,l),
(330,327,o),
(319,291,o),
(311,257,cs),
(259,51,l),
(54,51,l)
);
}
);
width = 525;
}
);
unicode = 52;
},
{
glyphname = five;
lastChange = "2024-02-02 15:06:49 +0000";
layers = (
{
hints = (
{
horizontal = 1;
place = (-325, 20);
place = (-325, 20);
type = Stem;
},
{
horizontal = 1;
place = (342, 89);
place = (342, 89);
type = Stem;
},
{
horizontal = 1;
place = (448, 20);
place = (448, 20);
type = Stem;
},
{
place = (259, 90);
place = (259, 90);
type = Stem;
}
);
layerId = "EE525628-5027-49A8-B1A1-7E2F3B98E9F5";
shapes = (
{
closed = 1;
nodes = (
(348,369,l),
(440,381,o),
(479,478,o),
(479,490,cs),
(479,495,o),
(475,497,o),
(471,497,cs),
(467,497,o),
(461,495,o),
(457,490,cs),
(442,471,o),
(413,453,o),
(373,450,cs),
(141,431,l),
(141,431,o),
(113,342,o),
(85,255,cs),
(71,211,o),
(58,176,o),
(58,170,cs),
(58,165,o),
(64,163,o),
(70,163,cs),
(79,163,o),
(86,173,o),
(97,173,cs),
(259,173,o),
(313,75,o),
(313,-18,cs),
(313,-127,o),
(224,-242,o),
(86,-242,cs),
(26,-242,o),
(-27,-214,o),
(-39,-142,c),
(-82,-142,o),
(-100,-170,o),
(-100,-198,cs),
(-100,-247,o),
(-43,-284,o),
(49,-284,cs),
(254,-284,o),
(390,-118,o),
(390,29,cs),
(390,142,o),
(310,244,o),
(121,253,c),
(154,352,l)
);
}
);
width = 475;
}
);
unicode = 53;
},
{
glyphname = six;
lastChange = "2024-02-02 15:06:51 +0000";
layers = (
{
hints = (
{
horizontal = 1;
place = (-13, 47);
place = (-13, 47);
type = Stem;
},
{
horizontal = 1;
place = (411, 29);
place = (411, 29);
type = Stem;
},
{
horizontal = 1;
place = (757, 20);
place = (757, 20);
type = Stem;
},
{
place = (12, 100);
place = (12, 100);
type = Stem;
}
);
layerId = "EE525628-5027-49A8-B1A1-7E2F3B98E9F5";
shapes = (
{
closed = 1;
nodes = (
(223,299,o),
(227,294,o),
(234,294,cs),
(242,294,o),
(264,308,o),
(293,308,cs),
(352,308,o),
(374,257,o),
(374,211,cs),
(374,126,o),
(327,24,o),
(239,24,cs),
(185,24,o),
(140,83,o),
(140,176,cs),
(140,431,o),
(351,591,o),
(565,673,cs),
(568,674,o),
(571,678,o),
(571,681,cs),
(571,689,o),
(564,695,o),
(556,693,cs),
(296,645,o),
(38,439,o),
(38,194,cs),
(38,72,o),
(130,-13,o),
(227,-13,cs),
(346,-13,o),
(478,81,o),
(478,202,cs),
(478,276,o),
(418,352,o),
(329,352,cs),
(282,352,o),
(223,329,o),
(223,305,cs)
);
}
);
width = 521;
}
);
unicode = 54;
},
{
glyphname = seven;
lastChange = "2024-02-02 15:06:31 +0000";
layers = (
{
hints = (
{
horizontal = 1;
place = (356, 82);
place = (356, 82);
type = Stem;
},
{
horizontal = 1;
place = (449, 20);
place = (449, 20);
type = Stem;
},
{
place = (7, 492);
place = (7, 492);
type = Stem;
}
);
layerId = "EE525628-5027-49A8-B1A1-7E2F3B98E9F5";
shapes = (
{
closed = 1;
nodes = (
(538,439,o),
(533,443,o),
(526,443,cs),
(504,443,o),
(472,437,o),
(390,437,cs),
(171,437,l),
(176,447,o),
(181,453,o),
(181,458,cs),
(181,464,o),
(168,470,o),
(161,470,cs),
(158,470,o),
(155,469,o),
(154,467,cs),
(150,460,o),
(142,439,o),
(108,388,cs),
(88,358,o),
(58,319,o),
(58,313,cs),
(58,308,o),
(67,302,o),
(79,302,cs),
(82,302,o),
(87,303,o),
(88,305,cs),
(99,321,o),
(104,328,o),
(111,333,cs),
(144,358,o),
(192,361,o),
(307,361,cs),
(446,361,l),
(313,237,o),
(30,-50,o),
(30,-233,cs),
(30,-266,o),
(53,-280,o),
(79,-280,cs),
(97,-280,o),
(117,-274,o),
(133,-263,c),
(132,-253,o),
(132,-244,o),
(132,-235,cs),
(132,-38,o),
(396,274,o),
(527,411,cs),
(531,416,o),
(538,422,o),
(538,432,cs)
);
}
);
width = 508;
}
);
unicode = 55;
},
{
glyphname = eight;
lastChange = "2024-02-02 15:05:54 +0000";
layers = (
{
hints = (
{
horizontal = 1;
place = (-15, 55);
place = (-15, 55);
type = Stem;
},
{
horizontal = 1;
place = (712, 61);
place = (712, 61);
type = Stem;
},
{
place = (-9, 80);
place = (-9, 80);
type = Stem;
},
{
place = (132, 88);
place = (132, 88);
type = Stem;
},
{
place = (314, 96);
place = (314, 96);
type = Stem;
},
{
place = (424, 72);
place = (424, 72);
type = Stem;
}
);
layerId = "EE525628-5027-49A8-B1A1-7E2F3B98E9F5";
shapes = (
{
closed = 1;
nodes = (
(28,52,o),
(90,-13,o),
(186,-13,cs),
(308,-13,o),
(433,76,o),
(433,195,cs),
(433,270,o),
(371,332,o),
(331,364,c),
(429,419,o),
(493,493,o),
(493,564,cs),
(493,630,o),
(432,685,o),
(344,685,cs),
(232,685,o),
(117,576,o),
(117,482,cs),
(117,420,o),
(148,377,o),
(194,339,c),
(114,288,o),
(28,227,o),
(28,129,cs)
);
},
{
closed = 1;
nodes = (
(155,34,o),
(109,82,o),
(109,150,cs),
(109,228,o),
(162,279,o),
(220,319,c),
(276,286,o),
(342,222,o),
(342,151,cs),
(342,79,o),
(282,34,o),
(214,34,cs)
);
},
{
closed = 1;
nodes = (
(384,639,o),
(411,591,o),
(411,549,cs),
(411,491,o),
(362,422,o),
(304,387,c),
(254,429,o),
(201,461,o),
(201,530,cs),
(201,582,o),
(261,639,o),
(321,639,cs)
);
}
);
width = 508;
}
);
unicode = 56;
},
{
glyphname = nine;
lastChange = "2024-02-02 15:06:35 +0000";
layers = (
{
hints = (
{
horizontal = 1;
place = (-333, 20);
place = (-333, 20);
type = Stem;
},
{
horizontal = 1;
place = (55, 59);
place = (55, 59);
type = Stem;
},
{
horizontal = 1;
place = (410, 47);
place = (410, 47);
type = Stem;
},
{
place = (45, 96);
place = (45, 96);
type = Stem;
},
{
place = (378, 96);
place = (378, 96);
type = Stem;
}
);
layerId = "EE525628-5027-49A8-B1A1-7E2F3B98E9F5";
shapes = (
{
closed = 1;
nodes = (
(295,138,o),
(291,143,o),
(284,143,cs),
(276,143,o),
(254,129,o),
(225,129,cs),
(166,129,o),
(144,180,o),
(144,226,cs),
(144,311,o),
(191,413,o),
(279,413,cs),
(333,413,o),
(378,354,o),
(378,261,cs),
(378,6,o),
(146,-183,o),
(-68,-265,cs),
(-71,-266,o),
(-74,-270,o),
(-74,-273,cs),
(-74,-281,o),
(-67,-287,o),
(-59,-285,cs),
(201,-237,o),
(480,-2,o),
(480,243,cs),
(480,365,o),
(388,450,o),
(291,450,cs),
(172,450,o),
(40,356,o),
(40,235,cs),
(40,161,o),
(100,85,o),
(189,85,cs),
(236,85,o),
(295,108,o),
(295,132,cs)
);
}
);
width = 539;
}
);
unicode = 57;
},
{
glyphname = zero.lf;
lastChange = "2024-02-02 15:12:08 +0000";
layers = (
{
hints = (
{
horizontal = 1;
place = (-13, 23);
place = (-13, 23);
type = Stem;
},
{
horizontal = 1;
place = (649, 23);
place = (649, 23);
type = Stem;
},
{
place = (38, 100);
place = (38, 100);
type = Stem;
},
{
place = (382, 100);
place = (382, 100);
type = Stem;
}
);
layerId = "EE525628-5027-49A8-B1A1-7E2F3B98E9F5";
shapes = (
{
closed = 1;
nodes = (
(86,60,o),
(154,-13,o),
(239,-13,cs),
(383,-13,o),
(560,188,o),
(560,473,cs),
(560,603,o),
(502,679,o),
(400,679,cs),
(226,679,o),
(86,447,o),
(86,211,cs)
);
},
{
closed = 1;
nodes = (
(196,31,o),
(168,71,o),
(168,161,cs),
(168,357,o),
(255,635,o),
(392,635,cs),
(449,635,o),
(477,596,o),
(477,512,cs),
(477,273,o),
(367,31,o),
(248,31,cs)
);
}
);
width = 550;
}
);
},
{
glyphname = one.lf;
lastChange = "2024-02-02 15:11:37 +0000";
layers = (
{
hints = (
{
horizontal = 1;
place = (-2, 23);
place = (-2, 23);
type = Stem;
},
{
horizontal = 1;
place = (611, 20);
place = (611, 20);
type = Stem;
},
{
horizontal = 1;
place = (682, -20);
target = down;
type = TopGhost;
},
{
place = (175, 89);
place = (175, 89);
type = Stem;
}
);
layerId = "EE525628-5027-49A8-B1A1-7E2F3B98E9F5";
shapes = (
{
closed = 1;
nodes = (
(340,404,l),
(378,579,o),
(406,658,o),
(411,679,c),
(411,685,o),
(405,688,o),
(395,688,cs),
(377,688,o),
(314,604,o),
(119,533,cs),
(114,531,o),
(111,527,o),
(111,522,cs),
(111,515,o),
(116,508,o),
(124,508,cs),
(138,508,o),
(224,543,o),
(256,543,cs),
(269,543,o),
(273,533,o),
(273,521,cs),
(273,514,o),
(272,505,o),
(270,498,cs),
(176,53,ls),
(173,38,o),
(171,29,o),
(156,29,cs),
(61,29,ls),
(58,29,o),
(52,19,o),
(52,8,cs),
(52,3,o),
(53,-2,o),
(56,-2,cs),
(94,-2,o),
(164,1,o),
(221,1,cs),
(252,1,o),
(323,-1,o),
(359,-1,c),
(367,0,o),
(368,15,o),
(368,21,cs),
(368,27,o),
(366,32,o),
(363,32,cs),
(282,32,ls),
(276,32,o),
(271,37,o),
(271,55,cs),
(271,68,o),
(273,88,o),
(280,119,cs)
);
}
);
width = 442;
}
);
},
{
glyphname = two.lf;
lastChange = "2024-02-02 15:11:55 +0000";
layers = (
{
hints = (
{
horizontal = 1;
place = (0, 85);
place = (0, 85);
type = Stem;
},
{
horizontal = 1;
place = (387, 46);
place = (387, 46);
type = Stem;
},
{
horizontal = 1;
place = (649, 23);
place = (649, 23);
type = Stem;
},
{
place = (52, 67);
place = (52, 67);
type = Stem;
},
{
place = (372, 100);
place = (372, 100);
type = Stem;
},
{
place = (412, 21);
place = (412, 21);
type = Stem;
}
);
layerId = "EE525628-5027-49A8-B1A1-7E2F3B98E9F5";
shapes = (
{
closed = 1;
nodes = (
(23,18,o),
(19,12,o),
(19,8,cs),
(19,2,o),
(22,0,o),
(26,0,cs),
(259,0,ls),
(360,0,o),
(390,3,o),
(427,7,cs),
(478,13,o),
(522,34,o),
(522,79,cs),
(522,110,o),
(509,137,o),
(475,145,c),
(475,62,o),
(335,62,o),
(202,62,cs),
(176,62,o),
(153,61,o),
(153,61,c),
(152,64,l),
(314,179,o),
(541,368,o),
(541,525,cs),
(541,606,o),
(467,679,o),
(364,679,cs),
(234,679,o),
(123,577,o),
(123,509,cs),
(123,470,o),
(147,451,o),
(179,451,cs),
(196,451,o),
(213,459,o),
(227,467,c),
(221,484,o),
(218,502,o),
(218,518,cs),
(218,584,o),
(264,637,o),
(341,637,cs),
(405,637,o),
(436,575,o),
(436,509,cs),
(436,361,o),
(205,139,o),
(30,22,cs)
);
}
);
width = 563;
}
);
},
{
glyphname = three.lf;
lastChange = "2024-02-02 15:12:14 +0000";
layers = (
{
hints = (
{
horizontal = 1;
place = (-13, 23);
place = (-13, 23);
type = Stem;
},
{
horizontal = 1;
place = (346, 23);
place = (346, 23);
type = Stem;
},
{
horizontal = 1;
place = (439, 40);
place = (439, 40);
type = Stem;
},
{
horizontal = 1;
place = (640, 32);
place = (640, 32);
type = Stem;
},
{
place = (80, 62);
place = (80, 62);
type = Stem;
},
{
place = (343, 96);
place = (343, 96);
type = Stem;
},
{
place = (382, 100);
place = (382, 100);
type = Stem;
}
);
layerId = "EE525628-5027-49A8-B1A1-7E2F3B98E9F5";
shapes = (
{
closed = 1;
nodes = (
(404,102,o),
(320,23,o),
(236,23,cs),
(176,23,o),
(139,52,o),
(139,119,c),
(126,126,o),
(113,129,o),
(102,129,cs),
(70,129,o),
(48,106,o),
(48,82,cs),
(48,31,o),
(115,-13,o),
(212,-13,cs),
(335,-13,o),
(508,70,o),
(508,212,cs),
(508,312,o),
(438,355,o),
(369,365,c),
(447,410,o),
(527,479,o),
(527,557,cs),
(527,639,o),
(458,679,o),
(377,679,cs),
(274,679,o),
(165,605,o),
(165,534,cs),
(165,505,o),
(189,491,o),
(214,491,cs),
(233,491,o),
(251,499,o),
(261,516,c),
(254,529,o),
(251,542,o),
(251,554,cs),
(251,604,o),
(307,639,o),
(355,639,cs),
(408,639,o),
(430,596,o),
(430,544,cs),
(430,467,o),
(362,402,o),
(300,365,c),
(260,361,o),
(207,350,o),
(207,326,cs),
(207,317,o),
(215,310,o),
(229,310,cs),
(244,310,o),
(278,320,o),
(318,339,c),
(367,325,o),
(404,277,o),
(404,196,cs)
);
}
);
width = 538;
}
);
},
{
glyphname = four.lf;
lastChange = "2024-02-02 15:12:32 +0000";
layers = (
{
hints = (
{
horizontal = 1;
place = (-2, 23);
place = (-2, 23);
type = Stem;
},
{
horizontal = 1;
place = (214, 36);
place = (214, 36);
type = Stem;
},
{
horizontal = 1;
place = (676, -20);
target = down;
type = TopGhost;
},
{
place = (312, 85);
place = (312, 85);
type = Stem;
}
);
layerId = "EE525628-5027-49A8-B1A1-7E2F3B98E9F5";
shapes = (
{
closed = 1;
nodes = (
(305,135,l),
(288,53,ls),
(285,38,o),
(283,29,o),
(268,29,cs),
(173,29,ls),
(170,29,o),
(164,20,o),
(164,11,cs),
(164,1,o),
(165,-2,o),
(168,-2,cs),
(206,-2,o),
(276,1,o),
(333,1,cs),
(471,0,l),
(479,1,o),
(480,15,o),
(480,21,cs),
(480,27,o),
(478,32,o),
(475,32,cs),
(394,32,l),
(394,32,o),
(393,32,o),
(393,32,c),
(388,32,o),
(383,37,o),
(383,55,cs),
(383,68,o),
(385,88,o),
(392,119,cs),
(413,220,l),
(511,220,ls),
(525,220,o),
(530,243,o),
(530,253,cs),
(530,261,o),
(527,268,o),
(521,268,cs),
(423,268,l),
(452,404,ls),
(492,590,o),
(518,650,o),
(518,669,cs),
(518,679,o),
(505,686,o),
(485,686,c),
(74,266,ls),
(64,256,o),
(55,242,o),
(55,230,cs),
(55,224,o),
(58,220,o),
(63,220,cs),
(323,220,l)
);
},
{
closed = 1;
nodes = (
(390,541,l),
(390,541,o),
(391,540,o),
(391,539,cs),
(391,531,o),
(383,500,o),
(377,471,cs),
(333,266,l),
(128,266,l)
);
}
);
width = 562;
}
);
},
{
glyphname = five.lf;
lastChange = "2024-02-02 15:12:33 +0000";
layers = (
{
hints = (
{
horizontal = 1;
place = (-13, 23);
place = (-13, 23);
type = Stem;
},
{
horizontal = 1;
place = (388, 32);
place = (388, 32);
type = Stem;
},
{
horizontal = 1;
place = (541, 82);
place = (541, 82);
type = Stem;
},
{
horizontal = 1;
place = (682, -20);
target = down;
type = TopGhost;
},
{
place = (96, 33);
place = (96, 33);
type = Stem;
},
{
place = (372, 100);
place = (372, 100);
type = Stem;
}
);
layerId = "EE525628-5027-49A8-B1A1-7E2F3B98E9F5";
shapes = (
{
closed = 1;
nodes = (
(449,583,l),
(541,595,o),
(580,692,o),
(580,704,cs),
(580,709,o),
(576,711,o),
(572,711,cs),
(568,711,o),
(562,709,o),
(558,704,cs),
(543,685,o),
(514,667,o),
(474,664,cs),
(242,645,l),
(242,645,o),
(202,523,o),
(174,436,cs),
(160,392,o),
(147,357,o),
(147,351,cs),
(147,346,o),
(153,344,o),
(159,344,cs),
(168,344,o),
(176,347,o),
(182,354,cs),
(191,365,o),
(226,368,o),
(258,368,cs),
(358,368,o),
(414,287,o),
(414,205,cs),
(414,120,o),
(355,29,o),
(227,29,cs),
(167,29,o),
(114,57,o),
(102,129,c),
(59,129,o),
(41,101,o),
(41,73,cs),
(41,24,o),
(98,-13,o),
(190,-13,cs),
(381,-13,o),
(486,119,o),
(486,241,cs),
(486,346,o),
(414,443,o),
(283,443,cs),
(260,443,o),
(236,440,o),
(210,434,c),
(255,566,l)
);
}
);
width = 529;
}
);
},
{
glyphname = six.lf;
lastChange = "2024-02-02 15:12:21 +0000";
layers = (
{
hints = (
{
horizontal = 1;
place = (-13, 23);
place = (-13, 23);
type = Stem;
},
{
horizontal = 1;
place = (395, 32);
place = (395, 32);
type = Stem;
},
{
horizontal = 1;
place = (645, 27);
place = (645, 27);
type = Stem;
},
{
place = (49, 100);
place = (49, 100);
type = Stem;
},
{
place = (395, 100);
place = (395, 100);
type = Stem;
}
);
layerId = "EE525628-5027-49A8-B1A1-7E2F3B98E9F5";
shapes = (
{
closed = 1;
nodes = (
(253,299,o),
(257,294,o),
(264,294,cs),
(272,294,o),
(294,308,o),
(323,308,cs),
(382,308,o),
(404,257,o),
(404,211,cs),
(404,126,o),
(357,24,o),
(269,24,cs),
(215,24,o),
(170,83,o),
(170,176,cs),
(170,431,o),
(374,585,o),
(588,667,cs),
(591,668,o),
(594,672,o),
(594,675,cs),
(594,683,o),
(587,689,o),
(579,687,cs),
(319,639,o),
(68,439,o),
(68,194,cs),
(68,72,o),
(160,-13,o),
(257,-13,cs),
(376,-13,o),
(508,81,o),
(508,202,cs),
(508,276,o),
(448,352,o),
(359,352,cs),
(312,352,o),
(253,329,o),
(253,305,cs)
);
}
);
width = 530;
}
);
},
{
glyphname = seven.lf;
lastChange = "2024-02-02 15:12:23 +0000";
layers = (
{
hints = (
{
horizontal = 1;
place = (-13, 21);
target = up;
type = BottomGhost;
},
{
horizontal = 1;
place = (571, 85);
place = (571, 85);
type = Stem;
},
{
place = (32, 439);
place = (32, 439);
type = Stem;
}
);
layerId = "EE525628-5027-49A8-B1A1-7E2F3B98E9F5";
shapes = (
{
closed = 1;
nodes = (
(602,668,o),
(597,672,o),
(590,672,cs),
(568,672,o),
(536,666,o),
(454,666,cs),
(235,666,l),
(240,676,o),
(245,682,o),
(245,687,cs),
(245,693,o),
(232,699,o),
(225,699,cs),
(222,699,o),
(219,698,o),
(218,696,cs),
(214,689,o),
(206,668,o),
(172,617,cs),
(152,587,o),
(122,548,o),
(122,542,cs),
(122,537,o),
(131,531,o),
(143,531,cs),
(146,531,o),
(151,532,o),
(152,534,cs),
(163,550,o),
(168,557,o),
(175,562,cs),
(208,587,o),
(256,590,o),
(371,590,cs),
(510,590,l),
(377,466,o),
(124,217,o),
(124,34,cs),
(124,1,o),
(147,-13,o),
(173,-13,cs),
(191,-13,o),
(211,-7,o),
(227,4,c),
(226,14,o),
(226,23,o),
(226,32,cs),
(226,229,o),
(460,503,o),
(591,640,cs),
(595,645,o),
(602,651,o),
(602,661,cs)
);
}
);
width = 526;
}
);
},
{
glyphname = eight.lf;
lastChange = "2024-02-02 15:12:24 +0000";
layers = (
{
hints = (
{
horizontal = 1;
place = (-13, 23);
place = (-13, 23);
type = Stem;
},
{
horizontal = 1;
place = (649, 23);
place = (649, 23);
type = Stem;
},
{
place = (93, 74);
place = (93, 74);
type = Stem;
},
{
place = (116, 64);
place = (116, 64);
type = Stem;
},
{
place = (438, 68);
place = (438, 68);
type = Stem;
},
{
place = (465, 66);
place = (465, 66);
type = Stem;
}
);
layerId = "EE525628-5027-49A8-B1A1-7E2F3B98E9F5";
shapes = (
{
closed = 1;
nodes = (
(53,52,o),
(115,-13,o),
(211,-13,cs),
(333,-13,o),
(458,76,o),
(458,195,cs),
(458,270,o),
(396,332,o),
(356,364,c),
(454,419,o),
(518,490,o),
(518,561,cs),
(518,627,o),
(457,679,o),
(369,679,cs),
(257,679,o),
(142,573,o),
(142,479,cs),
(142,417,o),
(173,377,o),
(219,339,c),
(139,288,o),
(53,227,o),
(53,129,cs)
);
},
{
closed = 1;
nodes = (
(180,34,o),
(134,82,o),
(134,150,cs),
(134,228,o),
(187,279,o),
(245,319,c),
(301,286,o),
(367,222,o),
(367,151,cs),
(367,79,o),
(307,34,o),
(239,34,cs)
);
},
{
closed = 1;
nodes = (
(409,633,o),
(436,588,o),
(436,546,cs),
(436,488,o),
(387,422,o),
(329,387,c),
(279,429,o),
(226,458,o),
(226,527,cs),
(226,579,o),
(286,633,o),
(346,633,cs)
);
}
);
width = 513;
}
);
},
{
glyphname = nine.lf;
lastChange = "2024-02-02 15:12:05 +0000";
layers = (
{
hints = (
{
horizontal = 1;
place = (-13, 27);
place = (-13, 27);
type = Stem;
},
{
horizontal = 1;
place = (233, 32);
place = (233, 32);
type = Stem;
},
{
horizontal = 1;
place = (649, 23);
place = (649, 23);
type = Stem;
},
{
place = (29, 100);
place = (29, 100);
type = Stem;
},
{
place = (376, 100);
place = (376, 100);
type = Stem;
}
);
layerId = "EE525628-5027-49A8-B1A1-7E2F3B98E9F5";
shapes = (
{
closed = 1;
nodes = (
(367,367,o),
(363,372,o),
(356,372,cs),
(348,372,o),
(326,358,o),
(297,358,cs),
(238,358,o),
(216,409,o),
(216,455,cs),
(216,540,o),
(263,642,o),
(351,642,cs),
(405,642,o),
(450,583,o),
(450,490,cs),
(450,235,o),
(246,81,o),
(32,-1,cs),
(29,-2,o),
(26,-6,o),
(26,-9,cs),
(26,-17,o),
(33,-23,o),
(41,-21,cs),
(301,27,o),
(552,227,o),
(552,472,cs),
(552,594,o),
(460,679,o),
(363,679,cs),
(244,679,o),
(112,585,o),
(112,464,cs),
(112,390,o),
(172,314,o),
(261,314,cs),
(308,314,o),
(367,337,o),
(367,361,cs)
);
}
);
width = 540;
}
);
},
{
glyphname = fraction;
layers = (
{
hints = (
{
horizontal = 1;
place = (-18, 21);
target = up;
type = BottomGhost;
},
{
horizontal = 1;
place = (480, -20);
target = down;
type = TopGhost;
}
);
layerId = "EE525628-5027-49A8-B1A1-7E2F3B98E9F5";
shapes = (
{
closed = 1;
nodes = (
(434,463,l),
(434,463,o),
(424,480,o),
(408,480,cs),
(399,480,o),
(392,476,o),
(379,460,c),
(34,-1,l),
(44,-13,o),
(52,-18,o),
(61,-18,cs),
(72,-18,o),
(80,-10,o),
(92,6,cs)
);
}
);
width = 438;
}
);
unicode = 8260;
},
{
glyphname = onehalf;
layers = (
{
hints = (
{
horizontal = 1;
place = (-33, 21);
target = up;
type = BottomGhost;
},
{
horizontal = 1;
place = (-22, 21);
target = up;
type = BottomGhost;
},
{
horizontal = 1;
place = (0, 42);
place = (0, 42);
type = Stem;
},
{
horizontal = 1;
place = (178, 144);
place = (178, 144);
type = Stem;
},
{
horizontal = 1;
place = (293, 29);
place = (293, 29);
type = Stem;
},
{
horizontal = 1;
place = (350, 26);
place = (350, 26);
type = Stem;
},
{
horizontal = 1;
place = (642, 26);
place = (642, 26);
type = Stem;
},
{
horizontal = 1;
place = (701, -20);
target = down;
type = TopGhost;
},
{
place = (403, 68);
place = (403, 68);
type = Stem;
},
{
place = (580, 68);
place = (580, 68);
type = Stem;
}
);
layerId = "EE525628-5027-49A8-B1A1-7E2F3B98E9F5";
shapes = (
{
closed = 1;
nodes = (
(724,684,l,{
name = .hr01;
}),
(724,684,o),
(714,701,o),
(698,701,cs),
(689,701,o),
(683,698,o),
(668,682,cs),
(33,-16,l),
(43,-28,o),
(49,-33,o),
(58,-33,cs),
(69,-33,o),
(77,-25,o),
(90,-11,c),
(90,-10,o),
(91,-10,o),
(91,-9,c)
);
},
{
closed = 1;
nodes = (
(348,14,o),
(345,10,o),
(344,6,c),
(344,2,o),
(347,0,o),
(350,0,cs),
(589,0,l),
(585,-16,l),
(585,-17,o),
(593,-22,o),
(598,-22,cs,{
name = .hr02;
}),
(604,-22,o),
(610,-20,o),
(611,-16,cs),
(619,20,o),
(630,59,o),
(643,96,c),
(643,97,o),
(641,102,o),
(631,102,cs),
(624,102,o),
(617,100,o),
(616,96,cs),
(606,69,l),
(574,49,o),
(534,42,o),
(470,42,cs),
(452,42,o),
(444,41,o),
(444,41,c),
(443,44,l),
(524,89,o),
(648,162,o),
(648,250,cs),
(648,297,o),
(608,322,o),
(549,322,cs),
(492,322,o),
(403,269,o),
(403,210,cs),
(403,190,o),
(419,178,o),
(437,178,cs),
(450,178,o),
(465,184,o),
(476,196,c),
(474,199,o),
(471,210,o),
(471,221,cs),
(471,261,o),
(504,293,o),
(541,293,cs,{
name = .hr03;
}),
(567,293,o),
(580,278,o),
(580,255,cs),
(580,164,o),
(421,55,o),
(353,17,cs)
);
},
{
closed = 1;
nodes = (
(249,631,l),
(250,639,o),
(254,642,o),
(260,642,cs),
(310,642,ls),
(316,642,o),
(319,658,o),
(319,663,cs),
(319,667,o),
(318,670,o),
(315,670,cs),
(288,670,o),
(256,668,o),
(215,668,cs),
(184,668,o),
(167,669,o),
(128,669,cs),
(121,669,o),
(119,655,o),
(119,650,cs),
(119,645,o),
(121,641,o),
(124,641,cs),
(167,641,ls),
(172,641,o),
(176,638,o),
(176,624,cs),
(176,614,o),
(174,600,o),
(169,577,cs),
(129,387,ls),
(127,379,o),
(123,376,o),
(117,376,cs),
(67,376,ls),
(62,376,o),
(59,356,o),
(59,352,cs),
(59,349,o),
(60,348,o),
(62,348,cs),
(89,348,o),
(114,350,o),
(155,350,cs),
(186,350,o),
(211,349,o),
(249,349,cs),
(256,349,o),
(257,366,o),
(257,370,cs),
(257,374,o),
(256,377,o),
(254,377,cs),
(210,377,ls),
(205,377,o),
(201,377,o),
(201,392,cs),
(201,400,o),
(202,412,o),
(206,432,cs)
);
}
);
width = 724;
}
);
unicode = 189;
},
{
glyphname = onequarter;
layers = (
{
hints = (
{
horizontal = 1;
place = (-64, 154);
place = (-64, 154);
type = Stem;
},
{
horizontal = 1;
place = (-66, 21);
target = up;
type = BottomGhost;
},
{
horizontal = 1;
place = (57, 33);
place = (57, 33);
type = Stem;
},
{
horizontal = 1;
place = (350, 26);
place = (350, 26);
type = Stem;
},
{
horizontal = 1;
place = (642, 26);
place = (642, 26);
type = Stem;
},
{
horizontal = 1;
place = (701, -20);
target = down;
type = TopGhost;
}
);
layerId = "EE525628-5027-49A8-B1A1-7E2F3B98E9F5";
shapes = (
{
closed = 1;
nodes = (
(724,684,o),
(714,701,o),
(698,701,cs),
(689,701,o),
(683,698,o),
(668,682,cs),
(33,-16,l),
(43,-28,o),
(49,-33,o),
(58,-33,cs),
(69,-33,o),
(77,-25,o),
(90,-11,c),
(90,-10,o),
(91,-10,o),
(724,684,c,{
name = .hr01;
})
);
},
{
closed = 1;
nodes = (
(250,631,l),
(251,639,o),
(255,642,o),
(261,642,cs),
(311,642,ls),
(317,642,o),
(320,658,o),
(320,663,cs),
(320,667,o),
(319,670,o),
(316,670,cs),
(289,670,o),
(257,668,o),
(216,668,cs),
(185,668,o),
(168,669,o),
(129,669,cs),
(122,669,o),
(120,655,o),
(120,650,cs),
(120,645,o),
(122,641,o),
(125,641,cs),
(168,641,ls),
(173,641,o),
(177,638,o),
(177,624,cs),
(177,614,o),
(175,600,o),
(170,577,cs),
(130,387,ls),
(128,379,o),
(124,376,o),
(118,376,cs),
(68,376,ls),
(63,376,o),
(60,356,o),
(60,352,cs),
(60,349,o),
(61,348,o),
(63,348,cs),
(90,348,o),
(115,350,o),
(156,350,cs),
(187,350,o),
(212,349,o),
(250,349,cs),
(257,349,o),
(258,366,o),
(258,370,cs),
(258,374,o),
(257,377,o),
(255,377,cs),
(211,377,ls),
(206,377,o),
(202,377,o),
(202,392,cs),
(202,400,o),
(203,412,o),
(207,432,cs)
);
},
{
closed = 1;
nodes = (
(462,-28,ls),
(460,-38,o),
(455,-45,o),
(447,-45,cs),
(418,-45,ls),
(416,-45,o),
(413,-51,o),
(412,-59,c),
(412,-63,o),
(413,-66,o),
(415,-66,cs),
(441,-66,o),
(453,-64,o),
(492,-64,cs,{
name = .hr02;
}),
(547,-64,l),
(552,-63,o),
(554,-54,o),
(554,-50,cs),
(554,-46,o),
(553,-42,o),
(550,-42,c),
(520,-43,l),
(542,57,l,{
name = .hr03;
}),
(594,57,ls),
(605,57,o),
(608,74,o),
(608,82,cs),
(608,88,o),
(606,91,o),
(601,91,cs),
(549,91,l),
(558,134,ls),
(584,256,o),
(600,300,o),
(603,314,c),
(603,325,o),
(595,329,o),
(581,329,c),
(334,90,ls),
(325,82,o),
(321,75,o),
(321,65,cs),
(321,61,o),
(322,57,o),
(327,57,cs),
(480,57,l)
);
},
{
closed = 1;
nodes = (
(515,229,l),
(518,228,l),
(487,90,l),
(371,90,l)
);
}
);
width = 724;
}
);
unicode = 188;
},
{
glyphname = threequarters;
layers = (
{
hints = (
{
horizontal = 1;
place = (-64, 154);
place = (-64, 154);
type = Stem;
},
{
horizontal = 1;
place = (-66, 21);
target = up;
type = BottomGhost;
},
{
horizontal = 1;
place = (57, 33);
place = (57, 33);
type = Stem;
},
{
horizontal = 1;
place = (278, 20);
place = (278, 20);
type = Stem;
},
{
horizontal = 1;
place = (466, -20);
target = down;
type = TopGhost;
},
{
horizontal = 1;
place = (650, 22);
place = (650, 22);
type = Stem;
},
{
horizontal = 1;
place = (701, -20);
target = down;
type = TopGhost;
},
{
place = (100, 51);
place = (100, 51);
type = Stem;
},
{
place = (247, 51);
place = (247, 51);
type = Stem;
}
);
layerId = "EE525628-5027-49A8-B1A1-7E2F3B98E9F5";
shapes = (
{
closed = 1;
nodes = (
(728,684,l,{
name = .hr01;
}),
(728,684,o),
(718,701,o),
(702,701,cs),
(693,701,o),
(687,698,o),
(672,682,cs),
(37,-16,l),
(47,-28,o),
(53,-33,o),
(62,-33,cs),
(73,-33,o),
(81,-24,o),
(95,-9,cs)
);
},
{
closed = 1;
nodes = (
(105,298,o),
(84,321,o),
(84,358,c),
(76,361,o),
(69,363,o),
(63,363,cs),
(44,363,o),
(33,350,o),
(33,330,cs),
(33,302,o),
(70,278,o),
(124,278,cs),
(215,278,o),
(298,337,o),
(298,413,cs),
(298,452,o),
(270,478,o),
(214,495,c),
(257,519,o),
(306,564,o),
(306,606,cs),
(306,650,o),
(266,672,o),
(221,672,cs),
(164,672,o),
(100,637,o),
(100,594,cs),
(100,578,o),
(116,570,o),
(130,570,cs),
(140,570,o),
(151,575,o),
(157,585,c),
(153,592,o),
(151,599,o),
(151,605,cs),
(151,631,o),
(182,650,o),
(209,650,cs),
(239,650,o),
(247,627,o),
(247,600,cs),
(247,558,o),
(213,518,o),
(184,501,c),
(155,501,o),
(123,492,o),
(123,475,cs),
(123,470,o),
(128,466,o),
(136,466,cs),
(144,466,o),
(169,474,o),
(192,483,c),
(224,468,o),
(240,437,o),
(240,406,cs),
(240,351,o),
(199,298,o),
(138,298,cs)
);
},
{
closed = 1;
nodes = (
(467,-28,ls),
(465,-38,o),
(460,-45,o),
(452,-45,cs),
(423,-45,ls),
(421,-45,o),
(418,-51,o),
(417,-59,c),
(417,-63,o),
(418,-66,o),
(420,-66,cs),
(446,-66,o),
(458,-64,o),
(497,-64,cs,{
name = .hr02;
}),
(552,-64,l),
(557,-63,o),
(559,-54,o),
(559,-50,cs),
(559,-46,o),
(558,-42,o),
(555,-42,c),
(525,-43,l),
(547,57,l,{
name = .hr03;
}),
(599,57,ls),
(610,57,o),
(613,74,o),
(613,82,cs),
(613,88,o),
(611,91,o),
(606,91,cs),
(554,91,l),
(563,134,ls),
(589,256,o),
(605,300,o),
(608,314,c),
(608,325,o),
(600,329,o),
(586,329,c),
(339,90,ls),
(330,82,o),
(326,75,o),
(326,65,cs),
(326,61,o),
(327,57,o),
(332,57,cs),
(485,57,l)
);
},
{
closed = 1;
nodes = (
(520,229,l),
(523,228,l),
(492,90,l),
(376,90,l)
);
}
);
width = 728;
}
);
unicode = 190;
},
{
glyphname = onesuperior;
layers = (
{
hints = (
{
horizontal = 1;
place = (350, 26);
place = (350, 26);
type = Stem;
},
{
horizontal = 1;
place = (348, 21);
target = up;
type = BottomGhost;
},
{
horizontal = 1;
place = (349, 21);
target = up;
type = BottomGhost;
},
{
horizontal = 1;
place = (642, 26);
place = (642, 26);
type = Stem;
},
{
horizontal = 1;
place = (669, -20);
target = down;
type = TopGhost;
},
{
horizontal = 1;
place = (670, -20);
target = down;
type = TopGhost;
}
);
layerId = "EE525628-5027-49A8-B1A1-7E2F3B98E9F5";
shapes = (
{
closed = 1;
nodes = (
(211,631,l,{
name = .hr01;
}),
(212,639,o),
(216,642,o),
(222,642,cs),
(272,642,ls),
(275,642,o),
(279,650,o),
(280,657,cs),
(282,664,o),
(281,670,o),
(277,670,cs,{
name = .hr02;
}),
(250,670,o),
(218,668,o),
(177,668,cs,{
name = .hr03;
}),
(146,668,o),
(129,669,o),
(90,669,cs,{
name = .hr04;
}),
(86,669,o),
(83,663,o),
(82,657,cs),
(80,649,o),
(81,641,o),
(86,641,cs),
(129,641,ls),
(137,641,o),
(143,633,o),
(131,577,cs),
(91,387,ls),
(89,379,o),
(85,376,o),
(79,376,cs),
(29,376,ls),
(27,376,o),
(24,368,o),
(22,360,cs),
(21,354,o),
(20,348,o),
(24,348,cs,{
name = .hr05;
}),
(51,348,o),
(76,350,o),
(117,350,cs,{
name = .hr06;
}),
(148,350,o),
(173,349,o),
(211,349,cs,{
name = .hr07;
}),
(215,349,o),
(217,355,o),
(218,361,cs),
(220,369,o),
(220,377,o),
(216,377,cs),
(172,377,ls),
(165,377,o),
(157,377,o),
(168,432,c)
);
}
);
width = 276;
}
);
unicode = 185;
},
{
glyphname = twosuperior;
layers = (
{
hints = (
{
horizontal = 1;
place = (328, 21);
target = up;
type = BottomGhost;
},
{
horizontal = 1;
place = (350, 42);
place = (350, 42);
type = Stem;
},
{
horizontal = 1;
place = (452, -20);
target = down;
type = TopGhost;
},
{
horizontal = 1;
place = (528, 144);
place = (528, 144);
type = Stem;
},
{
horizontal = 1;
place = (643, 29);
place = (643, 29);
type = Stem;
},
{
place = (71, 69);
place = (71, 69);
type = Stem;
},
{
place = (248, 68);
place = (248, 68);
type = Stem;
}
);
layerId = "EE525628-5027-49A8-B1A1-7E2F3B98E9F5";
shapes = (
{
closed = 1;
nodes = (
(17,364,o),
(13,360,o),
(12,356,c),
(12,353,o),
(13,350,o),
(18,350,cs),
(257,350,l),
(253,334,l),
(253,330,o),
(259,328,o),
(266,328,cs),
(272,328,o),
(279,330,o),
(279,334,c),
(287,370,o),
(298,409,o),
(311,446,c),
(311,447,o),
(304,452,o),
(300,452,cs),
(293,452,o),
(285,450,o),
(284,446,cs),
(275,419,l),
(242,399,o),
(203,392,o),
(139,392,cs),
(121,392,o),
(113,391,o),
(113,391,c),
(111,394,l),
(194,440,o),
(316,512,o),
(316,601,cs),
(316,647,o),
(275,672,o),
(217,672,cs),
(162,672,o),
(71,618,o),
(71,561,cs),
(71,541,o),
(87,528,o),
(106,528,cs),
(119,528,o),
(133,534,o),
(145,546,c),
(143,550,o),
(140,562,o),
(140,574,cs),
(140,614,o),
(175,643,o),
(209,643,cs,{
name = .hr02;
}),
(235,643,o),
(248,628,o),
(248,605,cs),
(248,513,o),
(87,403,o),
(22,367,cs,{
name = .hr01;
})
);
}
);
width = 338;
}
);
unicode = 178;
},
{
glyphname = threesuperior;
layers = (
{
hints = (
{
horizontal = 1;
place = (278, 20);
place = (278, 20);
type = Stem;
},
{
horizontal = 1;
place = (466, -20);
target = down;
type = TopGhost;
},
{
horizontal = 1;
place = (650, 22);
place = (650, 22);
type = Stem;
},
{
place = (90, 51);
place = (90, 51);
type = Stem;
},
{
place = (237, 51);
place = (237, 51);
type = Stem;
}
);
layerId = "EE525628-5027-49A8-B1A1-7E2F3B98E9F5";
shapes = (
{
closed = 1;
nodes = (
(95,298,o),
(74,321,o),
(74,358,c),
(66,361,o),
(59,363,o),
(53,363,cs),
(34,363,o),
(23,350,o),
(23,330,cs),
(23,302,o),
(60,278,o),
(114,278,cs),
(205,278,o),
(288,337,o),
(288,413,cs),
(288,452,o),
(260,478,o),
(204,495,c),
(247,519,o),
(296,564,o),
(296,606,cs),
(296,650,o),
(256,672,o),
(211,672,cs),
(154,672,o),
(90,637,o),
(90,594,cs),
(90,578,o),
(106,570,o),
(120,570,cs),
(130,570,o),
(141,575,o),
(147,585,c),
(143,592,o),
(141,599,o),
(141,605,cs),
(141,631,o),
(172,650,o),
(199,650,cs),
(229,650,o),
(237,627,o),
(237,600,cs),
(237,558,o),
(203,518,o),
(174,501,c),
(145,501,o),
(113,492,o),
(113,475,cs),
(113,470,o),
(118,466,o),
(126,466,cs),
(134,466,o),
(159,474,o),
(182,483,c),
(214,468,o),
(230,437,o),
(230,406,cs),
(230,351,o),
(189,298,o),
(128,298,cs)
);
}
);
width = 313;
}
);
unicode = 179;
},
{
glyphname = period;
kernLeft = period;
kernRight = period;
lastChange = "2024-02-02 15:13:09 +0000";
layers = (
{
hints = (
{
horizontal = 1;
place = (-13, 114);
place = (-13, 114);
type = Stem;
},
{
place = (73, 114);
place = (73, 114);
type = Stem;
}
);
layerId = "EE525628-5027-49A8-B1A1-7E2F3B98E9F5";
shapes = (
{
closed = 1;
nodes = (
(113,-13,o),
(137,15,o),
(137,46,cs),
(137,79,o),
(108,101,o),
(77,101,cs),
(46,101,o),
(23,73,o),
(23,43,cs),
(23,12,o),
(49,-13,o),
(80,-13,cs)
);
}
);
width = 260;
}
);
unicode = 46;
},
{
glyphname = comma;
kernLeft = comma;
kernRight = comma;
lastChange = "2024-02-02 15:13:50 +0000";
layers = (
{
hints = (
{
horizontal = 1;
place = (-164, 21);
target = up;
type = BottomGhost;
},
{
horizontal = 1;
place = (102, -20);
target = down;
type = TopGhost;
},
{
place = (72, 131);
place = (72, 131);
type = Stem;
},
{
place = (159, 44);
place = (159, 44);
type = Stem;
}
);
layerId = "EE525628-5027-49A8-B1A1-7E2F3B98E9F5";
shapes = (
{
closed = 1;
nodes = (
(11,-164,l,{
name = .hr01;
}),
(81,-125,o),
(143,-79,o),
(143,16,cs),
(143,59,o),
(116,102,o),
(69,102,cs),
(35,102,o),
(12,77,o),
(12,45,cs),
(12,23,o),
(24,5,o),
(38,-2,c),
(77,1,o),
(99,-8,o),
(99,-37,cs,{
name = .hr02;
}),
(99,-70,o),
(55,-117,o),
(0,-145,c)
);
}
);
width = 260;
}
);
unicode = 44;
},
{
glyphname = colon;
lastChange = "2024-02-02 14:35:50 +0000";
layers = (
{
hints = (
{
horizontal = 1;
place = (-13, 114);
place = (-13, 114);
type = Stem;
},
{
horizontal = 1;
place = (322, 114);
place = (322, 114);
type = Stem;
},
{
place = (83, 114);
place = (83, 114);
type = Stem;
},
{
place = (157, 114);
place = (157, 114);
type = Stem;
}
);
layerId = "EE525628-5027-49A8-B1A1-7E2F3B98E9F5";
shapes = (
{
closed = 1;
nodes = (
(113,-13,o),
(137,15,o),
(137,46,cs),
(137,79,o),
(108,101,o),
(77,101,cs),
(46,101,o),
(23,73,o),
(23,43,cs),
(23,12,o),
(49,-13,o),
(80,-13,cs,{
name = .hr01;
})
);
},
{
closed = 1;
nodes = (
(187,322,o),
(211,350,o),
(211,381,cs,{
name = .hr02;
}),
(211,414,o),
(182,436,o),
(151,436,cs),
(120,436,o),
(97,408,o),
(97,378,cs),
(97,347,o),
(123,322,o),
(154,322,cs)
);
}
);
width = 260;
}
);
unicode = 58;
},
{
glyphname = semicolon;
lastChange = "2024-02-02 14:47:38 +0000";
layers = (
{
hints = (
{
horizontal = 1;
place = (-164, 21);
target = up;
type = BottomGhost;
},
{
horizontal = 1;
place = (102, 220);
place = (102, 220);
type = Stem;
},
{
horizontal = 1;
place = (322, 114);
place = (322, 114);
type = Stem;
},
{
place = (72, 131);
place = (72, 131);
type = Stem;
},
{
place = (157, 114);
place = (157, 114);
type = Stem;
}
);
layerId = "EE525628-5027-49A8-B1A1-7E2F3B98E9F5";
shapes = (
{
closed = 1;
nodes = (
(187,322,o),
(211,350,o),
(211,381,cs),
(211,414,o),
(182,436,o),
(151,436,cs),
(120,436,o),
(97,408,o),
(97,378,cs),
(97,347,o),
(123,322,o),
(154,322,cs,{
name = .hr01;
})
);
},
{
closed = 1;
nodes = (
(11,-164,l),
(81,-125,o),
(143,-79,o),
(143,16,cs,{
name = .hr02;
}),
(143,59,o),
(116,102,o),
(69,102,cs),
(35,102,o),
(12,77,o),
(12,45,cs),
(12,23,o),
(24,5,o),
(38,-2,c),
(77,1,o),
(99,-8,o),
(99,-37,cs),
(99,-70,o),
(55,-117,o),
(0,-145,c)
);
}
);
width = 260;
}
);
unicode = 59;
},
{
glyphname = ellipsis;
kernLeft = period;
kernRight = period;
lastChange = "2024-02-02 12:39:06 +0000";
layers = (
{
hints = (
{
horizontal = 1;
place = (-13, 114);
place = (-13, 114);
type = Stem;
},
{
place = (110, 114);
place = (110, 114);
type = Stem;
},
{
place = (443, 114);
place = (443, 114);
type = Stem;
},
{
place = (776, 114);
place = (776, 114);
type = Stem;
}
);
layerId = "EE525628-5027-49A8-B1A1-7E2F3B98E9F5";
shapes = (
{
closed = 1;
nodes = (
(326,-13,o),
(350,15,o),
(350,46,cs),
(350,79,o),
(320,101,o),
(290,101,cs),
(259,101,o),
(236,73,o),
(236,43,cs),
(236,12,o),
(262,-13,o),
(293,-13,cs)
);
},
{
closed = 1;
nodes = (
(539,-13,o),
(563,15,o),
(563,46,cs),
(563,79,o),
(533,101,o),
(503,101,cs),
(472,101,o),
(449,73,o),
(449,43,cs),
(449,12,o),
(475,-13,o),
(506,-13,cs)
);
},
{
closed = 1;
nodes = (
(113,-13,o),
(137,15,o),
(137,46,cs),
(137,79,o),
(108,101,o),
(77,101,cs),
(46,101,o),
(23,73,o),
(23,43,cs),
(23,12,o),
(49,-13,o),
(80,-13,cs)
);
}
);
width = 686;
}
);
metricLeft = period;
metricRight = period;
unicode = 8230;
},
{
glyphname = exclam;
lastChange = "2024-02-02 14:30:02 +0000";
layers = (
{
hints = (
{
horizontal = 1;
place = (-15, 117);
place = (-15, 117);
type = Stem;
},
{
horizontal = 1;
place = (684, -20);
target = down;
type = TopGhost;
},
{
place = (50, 117);
place = (50, 117);
type = Stem;
},
{
place = (174, 107);
place = (174, 107);
type = Stem;
}
);
layerId = "EE525628-5027-49A8-B1A1-7E2F3B98E9F5";
shapes = (
{
closed = 1;
nodes = (
(198,373,o),
(291,510,o),
(291,627,cs),
(291,663,o),
(280,684,o),
(252,684,cs),
(234,684,o),
(208,675,o),
(174,656,c),
(180,628,o),
(184,594,o),
(184,550,cs),
(184,425,o),
(132,226,o),
(132,191,cs),
(132,176,o),
(140,169,o),
(150,169,cs),
(156,169,o),
(164,172,o),
(171,178,c)
);
},
{
closed = 1;
nodes = (
(60,10,o),
(85,-15,o),
(118,-15,cs),
(151,-15,o),
(177,10,o),
(177,43,cs),
(177,76,o),
(151,102,o),
(118,102,cs),
(85,102,o),
(60,76,o),
(60,43,cs)
);
}
);
width = 320;
}
);
unicode = 33;
},
{
glyphname = exclamdown;
lastChange = "2024-02-02 12:39:32 +0000";
layers = (
{
hints = (
{
horizontal = 1;
place = (-250, 21);
target = up;
type = BottomGhost;
},
{
horizontal = 1;
place = (334, 114);
place = (334, 114);
type = Stem;
},
{
place = (56, 106);
place = (56, 106);
type = Stem;
},
{
place = (169, 114);
place = (169, 114);
type = Stem;
}
);
layerId = "EE525628-5027-49A8-B1A1-7E2F3B98E9F5";
shapes = (
{
closed = 1;
nodes = (
(127,85,o),
(36,-62,o),
(36,-199,cs),
(36,-231,o),
(47,-250,o),
(73,-250,cs),
(91,-250,o),
(117,-241,o),
(151,-222,c),
(145,-196,o),
(142,-165,o),
(142,-125,cs),
(142,60,o),
(195,188,o),
(195,241,cs),
(195,257,o),
(186,265,o),
(174,265,cs),
(167,265,o),
(158,262,o),
(150,256,c)
);
},
{
closed = 1;
nodes = (
(149,360,o),
(175,334,o),
(206,334,cs),
(237,334,o),
(263,360,o),
(263,391,cs),
(263,422,o),
(237,448,o),
(206,448,cs),
(175,448,o),
(149,422,o),
(149,391,cs)
);
}
);
width = 317;
}
);
unicode = 161;
},
{
glyphname = question;
lastChange = "2024-02-02 15:13:31 +0000";
layers = (
{
hints = (
{
horizontal = 1;
place = (-13, 114);
place = (-13, 114);
type = Stem;
},
{
horizontal = 1;
place = (695, -20);
target = down;
type = TopGhost;
},
{
place = (90, 32);
place = (90, 32);
type = Stem;
},
{
place = (90, 105);
place = (90, 105);
type = Stem;
},
{
place = (370, 73);
place = (370, 73);
type = Stem;
}
);
layerId = "EE525628-5027-49A8-B1A1-7E2F3B98E9F5";
shapes = (
{
closed = 1;
nodes = (
(137,142,o),
(132,151,o),
(132,167,cs),
(132,321,o),
(453,296,o),
(453,511,cs),
(453,625,o),
(259,605,o),
(207,695,c),
(207,695,o),
(176,670,o),
(176,621,c),
(182,518,o),
(380,560,o),
(380,469,cs),
(380,339,o),
(100,368,o),
(100,182,cs),
(100,153,o),
(107,134,o),
(120,134,cs),
(129,134,o),
(137,142,o),
(137,142,c,{
name = .hr01;
})
);
},
{
closed = 1;
nodes = (
(181,-13,o),
(205,15,o),
(205,46,cs,{
name = .hr02;
}),
(205,79,o),
(176,101,o),
(145,101,cs),
(114,101,o),
(91,73,o),
(91,43,cs),
(91,12,o),
(117,-13,o),
(148,-13,cs)
);
}
);
width = 472;
}
);
unicode = 63;
},
{
glyphname = questiondown;
lastChange = "2024-02-02 12:39:36 +0000";
layers = (
{
hints = (
{
horizontal = 1;
place = (-339, 21);
target = up;
type = BottomGhost;
},
{
horizontal = 1;
place = (238, 114);
place = (238, 114);
type = Stem;
},
{
place = (33, 73);
place = (33, 73);
type = Stem;
},
{
place = (240, 105);
place = (240, 105);
type = Stem;
},
{
place = (313, 32);
place = (313, 32);
type = Stem;
}
);
layerId = "EE525628-5027-49A8-B1A1-7E2F3B98E9F5";
shapes = (
{
closed = 1;
nodes = (
(268,197,o),
(273,188,o),
(273,172,cs),
(273,18,o),
(-7,60,o),
(-7,-155,cs),
(-7,-269,o),
(187,-249,o),
(239,-339,c),
(239,-339,o),
(270,-314,o),
(270,-265,c),
(264,-162,o),
(66,-204,o),
(66,-113,cs),
(66,17,o),
(305,-29,o),
(305,157,cs),
(305,186,o),
(298,205,o),
(285,205,cs),
(276,205,o),
(268,197,o),
(268,197,c,{
name = .hr01;
})
);
},
{
closed = 1;
nodes = (
(224,352,o),
(200,324,o),
(200,293,cs,{
name = .hr02;
}),
(200,260,o),
(229,238,o),
(260,238,cs),
(291,238,o),
(314,266,o),
(314,296,cs),
(314,327,o),
(288,352,o),
(257,352,cs)
);
}
);
width = 392;
}
);
unicode = 191;
},
{
glyphname = periodcentered;
lastChange = "2024-02-02 15:10:01 +0000";
layers = (
{
hints = (
{
horizontal = 1;
place = (188, 131);
place = (188, 131);
type = Stem;
}
);
layerId = "EE525628-5027-49A8-B1A1-7E2F3B98E9F5";
shapes = (
{
closed = 1;
nodes = (
(55,218,o),
(77,188,o),
(112,188,cs),
(149,188,o),
(183,220,o),
(190,254,cs),
(198,291,o),
(174,319,o),
(139,319,cs),
(104,319,o),
(70,289,o),
(62,254,c)
);
}
);
width = 245;
}
);
unicode = 183;
},
{
glyphname = bullet;
lastChange = "2024-02-02 12:39:39 +0000";
layers = (
{
hints = (
{
horizontal = 1;
place = (170, 341);
place = (170, 341);
type = Stem;
},
{
place = (31, 344);
place = (31, 344);
type = Stem;
}
);
layerId = "EE525628-5027-49A8-B1A1-7E2F3B98E9F5";
shapes = (
{
closed = 1;
nodes = (
(290,225,o),
(346,279,o),
(346,347,cs),
(346,414,o),
(290,468,o),
(225,468,cs),
(157,468,o),
(100,414,o),
(100,347,cs),
(100,279,o),
(157,225,o),
(221,225,cs)
);
}
);
width = 397;
}
);
unicode = 8226;
},
{
glyphname = asterisk;
lastChange = "2024-02-02 15:13:21 +0000";
layers = (
{
hints = (
{
place = (144, 340);
place = (144, 340);
type = Stem;
}
);
layerId = "EE525628-5027-49A8-B1A1-7E2F3B98E9F5";
shapes = (
{
closed = 1;
nodes = (
(118,477,l),
(110,474,o),
(104,466,o),
(104,457,cs),
(104,446,o),
(110,436,o),
(122,436,cs),
(125,436,o),
(128,436,o),
(132,438,cs),
(287,526,l),
(287,526,o),
(246,373,o),
(246,363,cs),
(246,353,o),
(255,349,o),
(265,349,cs),
(273,349,o),
(287,352,o),
(290,364,c),
(318,529,l),
(430,442,l),
(434,440,o),
(438,439,o),
(442,439,cs),
(456,439,o),
(474,454,o),
(474,469,cs),
(474,475,o),
(471,480,o),
(465,484,c),
(338,553,l),
(494,625,ls),
(503,629,o),
(509,636,o),
(509,645,cs),
(509,654,o),
(503,662,o),
(493,662,cs),
(490,662,o),
(487,661,o),
(483,659,cs),
(329,575,l),
(354,678,o),
(370,724,o),
(370,737,cs),
(370,750,o),
(364,753,o),
(355,753,cs),
(345,753,o),
(329,747,o),
(327,738,c),
(327,738,o),
(314,657,o),
(297,576,c),
(189,668,ls),
(187,670,o),
(183,671,o),
(180,671,cs),
(166,671,o),
(151,656,o),
(148,642,cs),
(147,634,o),
(149,628,o),
(153,625,cs),
(279,551,l)
);
}
);
width = 479;
}
);
unicode = 42;
},
{
glyphname = numbersign;
lastChange = "2024-02-02 15:13:45 +0000";
layers = (
{
hints = (
{
horizontal = 1;
place = (-2, 21);
target = up;
type = BottomGhost;
},
{
horizontal = 1;
place = (231, 54);
place = (231, 54);
type = Stem;
},
{
horizontal = 1;
place = (404, 53);
place = (404, 53);
type = Stem;
},
{
horizontal = 1;
place = (456, -20);
target = down;
type = TopGhost;
},
{
horizontal = 1;
place = (688, -20);
target = down;
type = TopGhost;
}
);
layerId = "EE525628-5027-49A8-B1A1-7E2F3B98E9F5";
shapes = (
{
closed = 1;
nodes = (
(561,231,l,{
name = .hr01;
}),
(561,255,o),
(554,285,o),
(528,287,c),
(410,284,l),
(455,406,l),
(588,402,l),
(588,424,o),
(584,456,o),
(555,456,c),
(555,456,o),
(554,456,o),
(474,457,c,{
name = .hr02;
}),
(561,688,l),
(561,688,o),
(505,688,o),
(492,652,cs),
(423,458,l),
(297,459,l),
(383,688,l),
(383,688,o),
(327,688,o),
(314,652,cs),
(245,460,l),
(113,462,l),
(113,430,o),
(119,419,o),
(141,418,cs),
(230,415,l),
(181,278,l),
(55,275,l),
(55,241,o),
(60,231,o),
(79,231,cs),
(164,231,l),
(81,-2,l),
(112,-2,o),
(129,5,o),
(136,28,c),
(212,231,l),
(342,231,l),
(259,-2,l),
(290,-2,o),
(307,5,o),
(314,28,c),
(390,231,l)
);
},
{
closed = 1;
nodes = (
(280,413,l),
(405,408,l),
(361,283,l),
(230,279,l)
);
}
);
width = 573;
}
);
unicode = 35;
},
{
glyphname = slash;
lastChange = "2024-02-02 15:12:03 +0000";
layers = (
{
hints = (
{
horizontal = 1;
place = (-137, 21);
target = up;
type = BottomGhost;
},
{
horizontal = 1;
place = (766, -20);
target = down;
type = TopGhost;
}
);
layerId = "EE525628-5027-49A8-B1A1-7E2F3B98E9F5";
shapes = (
{
closed = 1;
nodes = (
(682,749,l),
(682,749,o),
(671,766,o),
(655,766,cs),
(646,766,o),
(639,762,o),
(627,746,cs),
(-23,-120,l),
(-14,-132,o),
(-6,-137,o),
(3,-137,cs),
(14,-137,o),
(23,-129,o),
(34,-113,c)
);
}
);
width = 610;
}
);
unicode = 47;
},
{
glyphname = backslash;
lastChange = "2024-02-02 15:12:27 +0000";
layers = (
{
hints = (
{
horizontal = 1;
place = (-137, 21);
target = up;
type = BottomGhost;
},
{
horizontal = 1;
place = (766, -20);
target = down;
type = TopGhost;
}
);
layerId = "EE525628-5027-49A8-B1A1-7E2F3B98E9F5";
shapes = (
{
closed = 1;
nodes = (
(441,-113,ls),
(446,-129,o),
(451,-137,o),
(462,-137,cs),
(471,-137,o),
(481,-132,o),
(496,-120,c),
(214,746,l),
(208,762,o),
(203,766,o),
(194,766,cs),
(178,766,o),
(161,749,o),
(161,749,c)
);
}
);
width = 604;
}
);
unicode = 92;
},
{
glyphname = periodcentered.loclCAT;
kernLeft = hyphen;
kernRight = hyphen;
lastChange = "2024-02-02 12:44:22 +0000";
layers = (
{
layerId = "EE525628-5027-49A8-B1A1-7E2F3B98E9F5";
shapes = (
{
closed = 1;
nodes = (
(6,218,o),
(35,188,o),
(70,188,cs),
(107,188,o),
(134,220,o),
(134,254,cs),
(134,291,o),
(104,319,o),
(69,319,cs),
(34,319,o),
(6,289,o),
(6,254,cs)
);
}
);
width = 130;
}
);
},
{
glyphname = periodcentered.loclCAT.case;
lastChange = "2024-02-02 12:44:38 +0000";
layers = (
{
layerId = "EE525628-5027-49A8-B1A1-7E2F3B98E9F5";
shapes = (
{
closed = 1;
nodes = (
(-54,358,o),
(-25,328,o),
(10,328,cs),
(47,328,o),
(74,360,o),
(74,394,cs),
(74,431,o),
(44,459,o),
(9,459,cs),
(-26,459,o),
(-54,429,o),
(-54,394,cs)
);
}
);
width = 30;
}
);
},
{
glyphname = hyphen;
lastChange = "2024-02-02 15:10:23 +0000";
layers = (
{
hints = (
{
horizontal = 1;
place = (181, 46);
place = (181, 46);
type = Stem;
},
{
horizontal = 1;
place = (214, 40);
place = (214, 40);
type = Stem;
}
);
layerId = "EE525628-5027-49A8-B1A1-7E2F3B98E9F5";
shapes = (
{
closed = 1;
nodes = (
(46,227,o),
(49,181,o),
(80,181,cs),
(134,181,o),
(200,210,o),
(278,214,c,{
name = .hr02;
}),
(279,220,o),
(280,225,o),
(280,230,cs),
(280,244,o),
(273,254,o),
(251,254,cs),
(205,254,o),
(140,225,o),
(46,227,c,{
name = .hr01;
})
);
}
);
width = 290;
}
);
unicode = 45;
},
{
glyphname = endash;
lastChange = "2024-02-02 12:39:48 +0000";
layers = (
{
hints = (
{
horizontal = 1;
place = (191, 67);
place = (191, 67);
type = Stem;
},
{
place = (0, 500);
place = (0, 500);
type = Stem;
}
);
layerId = "EE525628-5027-49A8-B1A1-7E2F3B98E9F5";
shapes = (
{
closed = 1;
nodes = (
(462,250,o),
(101,245,o),
(10,245,c),
(10,245,o),
(9,201,o),
(47,201,cs),
(509,201,l),
(512,235,o),
(497,250,o),
(462,250,c)
);
}
);
width = 520;
}
);
unicode = 8211;
},
{
glyphname = emdash;
lastChange = "2024-02-02 12:39:49 +0000";
layers = (
{
hints = (
{
horizontal = 1;
place = (191, 67);
place = (191, 67);
type = Stem;
},
{
place = (0, 1000);
place = (0, 1000);
type = Stem;
}
);
layerId = "EE525628-5027-49A8-B1A1-7E2F3B98E9F5";
shapes = (
{
closed = 1;
nodes = (
(961,250,o),
(101,245,o),
(10,245,c),
(10,245,o),
(9,201,o),
(47,201,cs),
(1008,201,l),
(1011,235,o),
(996,250,o),
(961,250,c)
);
}
);
width = 1020;
}
);
unicode = 8212;
},
{
glyphname = underscore;
lastChange = "2024-02-02 15:11:31 +0000";
layers = (
{
hints = (
{
horizontal = 1;
place = (-122, 41);
place = (-122, 41);
type = Stem;
},
{
horizontal = 1;
place = (-76, -20);
target = down;
type = TopGhost;
}
);
layerId = "EE525628-5027-49A8-B1A1-7E2F3B98E9F5";
shapes = (
{
closed = 1;
nodes = (
(428,-76,o),
(60,-81,o),
(-30,-81,c,{
name = .hr02;
}),
(-30,-81,o),
(-39,-122,o),
(-2,-122,cs),
(466,-122,l),
(476,-88,o),
(463,-76,o),
(428,-76,c,{
name = .hr01;
})
);
}
);
width = 500;
}
);
unicode = 95;
},
{
glyphname = parenleft;
kernLeft = parenleft;
kernRight = parenleft;
lastChange = "2024-02-02 12:36:28 +0000";
layers = (
{
hints = (
{
horizontal = 1;
place = (-407, 43);
place = (-407, 43);
type = Stem;
},
{
horizontal = 1;
place = (853, 43);
place = (853, 43);
type = Stem;
},
{
place = (63, 76);
place = (63, 76);
type = Stem;
}
);
layerId = "EE525628-5027-49A8-B1A1-7E2F3B98E9F5";
shapes = (
{
closed = 1;
nodes = (
(245,-364,o),
(139,-177,o),
(139,70,cs),
(139,407,o),
(392,853,o),
(650,853,cs),
(664,853,o),
(669,874,o),
(669,884,cs),
(669,892,o),
(666,896,o),
(660,896,cs),
(363,896,o),
(63,484,o),
(63,65,cs),
(63,-222,o),
(210,-407,o),
(382,-407,cs),
(395,-407,o),
(400,-386,o),
(400,-376,cs),
(400,-368,o),
(397,-364,o),
(391,-364,cs)
);
}
);
width = 542;
}
);
unicode = 40;
},
{
glyphname = parenright;
kernLeft = parenright;
kernRight = parenright;
lastChange = "2024-02-02 15:06:15 +0000";
layers = (
{
hints = (
{
horizontal = 1;
place = (-407, 43);
place = (-407, 43);
type = Stem;
},
{
horizontal = 1;
place = (853, 43);
place = (853, 43);
type = Stem;
},
{
place = (368, 76);
place = (368, 76);
type = Stem;
}
);
layerId = "EE525628-5027-49A8-B1A1-7E2F3B98E9F5";
shapes = (
{
closed = 1;
nodes = (
(-163,-365,o),
(-166,-384,o),
(-166,-395,cs),
(-166,-402,o),
(-164,-407,o),
(-158,-407,cs),
(101,-407,o),
(444,24,o),
(444,449,cs),
(444,728,o),
(290,896,o),
(117,896,cs),
(103,896,o),
(100,876,o),
(100,866,cs),
(100,858,o),
(103,853,o),
(109,853,cs),
(262,853,o),
(368,673,o),
(368,440,cs),
(368,86,o),
(81,-364,o),
(-149,-364,c)
);
}
);
width = 477;
}
);
unicode = 41;
},
{
glyphname = braceleft;
kernLeft = parenleft;
kernRight = parenleft;
lastChange = "2024-02-02 14:37:41 +0000";
layers = (
{
hints = (
{
horizontal = 1;
place = (682, -20);
target = down;
type = TopGhost;
},
{
place = (109, 64);
place = (109, 64);
type = Stem;
}
);
layerId = "EE525628-5027-49A8-B1A1-7E2F3B98E9F5";
shapes = (
{
closed = 1;
nodes = (
(142,270,l),
(475,350,o),
(171,844,o),
(594,844,cs),
(617,844,o),
(626,864,o),
(626,883,cs),
(626,890,o),
(625,896,o),
(620,896,cs),
(98,896,o),
(395,293,o),
(88,293,cs),
(75,293,o),
(59,295,o),
(59,295,c),
(44,293,o),
(38,267,o),
(38,255,cs),
(38,246,o),
(42,240,o),
(48,240,c),
(48,240,o),
(64,242,o),
(77,242,cs),
(151,242,o),
(174,207,o),
(174,155,cs),
(174,25,o),
(102,-90,o),
(102,-214,cs),
(102,-320,o),
(165,-407,o),
(343,-407,cs),
(355,-407,o),
(359,-382,o),
(359,-373,cs),
(359,-363,o),
(354,-355,o),
(339,-355,cs),
(199,-355,o),
(165,-309,o),
(165,-242,cs),
(165,-103,o),
(246,22,o),
(246,157,cs),
(246,216,o),
(218,262,o),
(141,265,c)
);
}
);
width = 521;
}
);
unicode = 123;
},
{
glyphname = braceright;
kernLeft = parenright;
kernRight = parenright;
lastChange = "2024-02-02 14:37:53 +0000";
layers = (
{
hints = (
{
horizontal = 1;
place = (682, -20);
target = down;
type = TopGhost;
},
{
place = (-5, 64);
place = (-5, 64);
type = Stem;
}
);
layerId = "EE525628-5027-49A8-B1A1-7E2F3B98E9F5";
shapes = (
{
closed = 1;
nodes = (
(356,265,l),
(256,261,o),
(206,188,o),
(189,107,cs),
(178,52,o),
(155,-90,o),
(143,-148,cs),
(119,-262,o),
(93,-355,o),
(-105,-355,cs),
(-128,-355,o),
(-137,-375,o),
(-137,-394,cs),
(-137,-401,o),
(-136,-407,o),
(-131,-407,cs),
(83,-407,o),
(184,-280,o),
(213,-146,cs),
(224,-93,o),
(246,41,o),
(256,88,cs),
(275,176,o),
(308,242,o),
(410,242,cs),
(423,242,o),
(439,240,o),
(439,240,c),
(454,242,o),
(459,262,o),
(459,275,cs),
(459,286,o),
(456,295,o),
(450,295,c),
(450,295,o),
(434,293,o),
(421,293,cs),
(347,293,o),
(324,328,o),
(324,380,cs),
(324,491,o),
(386,593,o),
(386,703,cs),
(386,809,o),
(323,896,o),
(145,896,cs),
(133,896,o),
(129,871,o),
(129,862,cs),
(129,852,o),
(134,844,o),
(149,844,cs),
(289,844,o),
(323,798,o),
(323,731,cs),
(323,607,o),
(251,498,o),
(251,379,cs),
(251,320,o),
(280,273,o),
(357,270,c)
);
}
);
width = 453;
}
);
unicode = 125;
},
{
glyphname = bracketleft;
kernLeft = parenleft;
kernRight = parenleft;
lastChange = "2024-02-02 12:36:28 +0000";
layers = (
{
hints = (
{
horizontal = 1;
place = (-397, 45);
place = (-397, 45);
type = Stem;
},
{
horizontal = 1;
place = (840, 46);
place = (840, 46);
type = Stem;
}
);
layerId = "EE525628-5027-49A8-B1A1-7E2F3B98E9F5";
shapes = (
{
closed = 1;
nodes = (
(365,-397,ls),
(373,-397,o),
(378,-386,o),
(381,-375,c),
(383,-363,o),
(383,-352,o),
(375,-352,cs),
(81,-352,l),
(334,840,l),
(628,840,ls),
(636,840,o),
(641,851,o),
(644,864,cs),
(646,874,o),
(646,886,o),
(638,886,cs),
(270,886,l),
(-2,-397,l)
);
}
);
width = 508;
}
);
unicode = 91;
},
{
glyphname = bracketright;
kernLeft = parenright;
kernRight = parenright;
lastChange = "2024-02-02 12:36:34 +0000";
layers = (
{
hints = (
{
horizontal = 1;
place = (-397, 45);
place = (-397, 45);
type = Stem;
},
{
horizontal = 1;
place = (840, 46);
place = (840, 46);
type = Stem;
}
);
layerId = "EE525628-5027-49A8-B1A1-7E2F3B98E9F5";
shapes = (
{
closed = 1;
nodes = (
(245,-397,l),
(518,886,l),
(150,886,ls),
(142,886,o),
(136,874,o),
(134,864,cs),
(131,851,o),
(132,840,o),
(140,840,cs),
(434,840,l),
(181,-352,l),
(-112,-352,ls),
(-120,-352,o),
(-126,-363,o),
(-128,-375,c),
(-131,-386,o),
(-130,-397,o),
(-122,-397,cs)
);
}
);
width = 508;
}
);
unicode = 93;
},
{
glyphname = quotesinglbase;
kernLeft = comma;
kernRight = comma;
lastChange = "2024-02-02 15:07:59 +0000";
layers = (
{
hints = (
{
horizontal = 1;
place = (-11, 106);
place = (-11, 106);
type = Stem;
},
{
horizontal = 1;
place = (-11, 21);
target = up;
type = BottomGhost;
},
{
place = (172, 41);
place = (172, 41);
type = Stem;
}
);
layerId = "EE525628-5027-49A8-B1A1-7E2F3B98E9F5";
shapes = (
{
closed = 1;
nodes = (
(34,-146,l,{
name = .hr01;
}),
(92,-107,o),
(136,-68,o),
(136,7,cs,{
name = .hr03;
}),
(136,45,o),
(113,95,o),
(68,95,cs),
(39,95,o),
(11,74,o),
(11,43,cs),
(11,15,o),
(32,-11,o),
(62,-11,cs),
(76,-11,o),
(85,-6,o),
(95,2,c),
(98,-63,o),
(68,-89,o),
(21,-129,c)
);
}
);
width = 254;
}
);
metricLeft = comma;
metricRight = comma;
unicode = 8218;
},
{
glyphname = quotedblbase;
kernLeft = comma;
kernRight = comma;
lastChange = "2024-02-02 15:04:03 +0000";
layers = (
{
hints = (
{
horizontal = 1;
place = (-11, 106);
place = (-11, 106);
type = Stem;
},
{
place = (136, 41);
place = (136, 41);
type = Stem;
},
{
place = (307, 41);
place = (307, 41);
type = Stem;
}
);
layerId = "EE525628-5027-49A8-B1A1-7E2F3B98E9F5";
shapes = (
{
closed = 1;
nodes = (
(11,-164,l),
(81,-125,o),
(143,-79,o),
(143,16,cs),
(143,59,o),
(116,102,o),
(69,102,cs),
(35,102,o),
(12,77,o),
(12,45,cs),
(12,23,o),
(24,5,o),
(38,-2,c),
(77,1,o),
(99,-8,o),
(99,-37,cs),
(99,-70,o),
(55,-117,o),
(0,-145,c)
);
},
{
closed = 1;
nodes = (
(181,-164,l),
(251,-125,o),
(313,-79,o),
(313,16,cs),
(313,59,o),
(286,102,o),
(239,102,cs),
(205,102,o),
(182,77,o),
(182,45,cs),
(182,23,o),
(194,5,o),
(208,-2,c),
(247,1,o),
(269,-8,o),
(269,-37,cs),
(269,-70,o),
(225,-117,o),
(170,-145,c)
);
}
);
width = 430;
}
);
metricLeft = comma;
metricRight = comma;
unicode = 8222;
},
{
glyphname = quotedblleft;
kernLeft = quotedblleft;
kernRight = quotedblleft;
lastChange = "2024-02-02 15:08:19 +0000";
layers = (
{
hints = (
{
horizontal = 1;
place = (441, 106);
place = (441, 106);
type = Stem;
},
{
horizontal = 1;
place = (665, -20);
target = down;
type = TopGhost;
},
{
horizontal = 1;
place = (682, -20);
target = down;
type = TopGhost;
},
{
place = (52, 41);
place = (52, 41);
type = Stem;
},
{
place = (223, 41);
place = (223, 41);
type = Stem;
}
);
layerId = "EE525628-5027-49A8-B1A1-7E2F3B98E9F5";
shapes = (
{
closed = 1;
nodes = (
(260,707,l),
(190,668,o),
(128,622,o),
(128,527,cs),
(128,484,o),
(155,441,o),
(202,441,cs),
(236,441,o),
(259,466,o),
(259,498,cs),
(259,520,o),
(247,538,o),
(233,545,c),
(194,542,o),
(172,551,o),
(172,580,cs),
(172,613,o),
(216,660,o),
(271,688,c)
);
},
{
closed = 1;
nodes = (
(435,707,l),
(365,668,o),
(303,622,o),
(303,527,cs),
(303,484,o),
(330,441,o),
(377,441,cs),
(411,441,o),
(434,466,o),
(434,498,cs),
(434,520,o),
(422,538,o),
(408,545,c),
(369,542,o),
(347,551,o),
(347,580,cs),
(347,613,o),
(391,660,o),
(446,688,c)
);
}
);
width = 440;
}
);
unicode = 8220;
},
{
glyphname = quotedblright;
kernLeft = quotedblright;
kernRight = quotedblright;
lastChange = "2024-02-02 15:08:35 +0000";
layers = (
{
hints = (
{
horizontal = 1;
place = (576, 106);
place = (576, 106);
type = Stem;
},
{
place = (136, 41);
place = (136, 41);
type = Stem;
},
{
place = (307, 41);
place = (307, 41);
type = Stem;
}
);
layerId = "EE525628-5027-49A8-B1A1-7E2F3B98E9F5";
shapes = (
{
closed = 1;
nodes = (
(306,416,l),
(376,455,o),
(438,501,o),
(438,596,cs),
(438,639,o),
(411,682,o),
(364,682,cs),
(330,682,o),
(307,657,o),
(307,625,cs),
(307,603,o),
(319,585,o),
(333,578,c),
(372,581,o),
(394,572,o),
(394,543,cs),
(394,510,o),
(350,463,o),
(295,435,c)
);
},
{
closed = 1;
nodes = (
(131,416,l),
(201,455,o),
(263,501,o),
(263,596,cs),
(263,639,o),
(236,682,o),
(189,682,cs),
(155,682,o),
(132,657,o),
(132,625,cs),
(132,603,o),
(144,585,o),
(158,578,c),
(197,581,o),
(219,572,o),
(219,543,cs),
(219,510,o),
(175,463,o),
(120,435,c)
);
}
);
width = 440;
}
);
unicode = 8221;
},
{
glyphname = quoteleft;
kernLeft = quotedblleft;
kernRight = quotedblleft;
lastChange = "2024-02-02 14:45:55 +0000";
layers = (
{
hints = (
{
horizontal = 1;
place = (441, 106);
place = (441, 106);
type = Stem;
},
{
horizontal = 1;
place = (665, -20);
target = down;
type = TopGhost;
},
{
horizontal = 1;
place = (682, -20);
target = down;
type = TopGhost;
},
{
place = (88, 41);
place = (88, 41);
type = Stem;
}
);
layerId = "EE525628-5027-49A8-B1A1-7E2F3B98E9F5";
shapes = (
{
closed = 1;
nodes = (
(260,707,l),
(190,668,o),
(128,622,o),
(128,527,cs),
(128,484,o),
(155,441,o),
(202,441,cs),
(236,441,o),
(259,466,o),
(259,498,cs),
(259,520,o),
(247,538,o),
(233,545,c),
(194,542,o),
(172,551,o),
(172,580,cs),
(172,613,o),
(216,660,o),
(271,688,c)
);
}
);
width = 265;
}
);
metricLeft = quotedblleft;
metricRight = quotedblleft;
unicode = 8216;
},
{
glyphname = quoteright;
kernLeft = quotedblright;
kernRight = quotedblright;
lastChange = "2024-02-02 14:35:23 +0000";
layers = (
{
hints = (
{
horizontal = 1;
place = (576, 106);
place = (576, 106);
type = Stem;
},
{
horizontal = 1;
place = (682, -20);
target = down;
type = TopGhost;
},
{
place = (172, 41);
place = (172, 41);
type = Stem;
}
);
layerId = "EE525628-5027-49A8-B1A1-7E2F3B98E9F5";
shapes = (
{
closed = 1;
nodes = (
(131,416,l),
(201,455,o),
(263,501,o),
(263,596,cs),
(263,639,o),
(236,682,o),
(189,682,cs),
(155,682,o),
(132,657,o),
(132,625,cs),
(132,603,o),
(144,585,o),
(158,578,c),
(197,581,o),
(219,572,o),
(219,543,cs),
(219,510,o),
(175,463,o),
(120,435,c)
);
}
);
width = 265;
}
);
metricLeft = quotedblright;
metricRight = quotedblright;
unicode = 8217;
},
{
glyphname = guillemotleft;
kernLeft = guillemotleft;
kernRight = guillemotleft;
lastChange = "2024-02-02 15:08:47 +0000";
layers = (
{
hints = (
{
horizontal = 1;
place = (59, 21);
target = up;
type = BottomGhost;
},
{
horizontal = 1;
place = (383, -20);
target = down;
type = TopGhost;
}
);
layerId = "EE525628-5027-49A8-B1A1-7E2F3B98E9F5";
shapes = (
{
closed = 1;
nodes = (
(9,221,o),
(90,149,o),
(150,59,c),
(161,68,o),
(167,76,o),
(169,85,cs),
(176,118,o),
(124,155,o),
(85,221,c),
(153,287,o),
(219,324,o),
(226,357,cs),
(228,366,o),
(226,374,o),
(219,383,c),
(121,293,o),
(9,221,o),
(9,221,c)
);
},
{
closed = 1;
nodes = (
(169,221,o),
(250,149,o),
(310,59,c),
(321,68,o),
(327,76,o),
(329,85,cs),
(336,118,o),
(284,155,o),
(245,221,c),
(313,287,o),
(379,324,o),
(386,357,cs),
(388,366,o),
(386,374,o),
(379,383,c),
(281,293,o),
(169,221,o),
(169,221,c)
);
}
);
width = 421;
}
);
unicode = 171;
},
{
glyphname = guillemotright;
kernLeft = guillemotright;
kernRight = guillemotright;
lastChange = "2024-02-02 15:08:56 +0000";
layers = (
{
hints = (
{
horizontal = 1;
place = (59, 21);
target = up;
type = BottomGhost;
},
{
horizontal = 1;
place = (383, -20);
target = down;
type = TopGhost;
}
);
layerId = "EE525628-5027-49A8-B1A1-7E2F3B98E9F5";
shapes = (
{
closed = 1;
nodes = (
(393,221,o),
(313,293,o),
(253,383,c),
(242,374,o),
(236,366,o),
(234,357,cs),
(227,324,o),
(279,287,o),
(317,221,c),
(250,155,o),
(184,118,o),
(177,85,cs),
(175,76,o),
(177,68,o),
(184,59,c),
(282,149,o),
(393,221,o),
(393,221,c)
);
},
{
closed = 1;
nodes = (
(233,221,o),
(153,293,o),
(93,383,c),
(82,374,o),
(76,366,o),
(74,357,cs),
(67,324,o),
(119,287,o),
(157,221,c),
(90,155,o),
(24,118,o),
(17,85,cs),
(15,76,o),
(17,68,o),
(24,59,c),
(122,149,o),
(233,221,o),
(233,221,c)
);
}
);
width = 400;
}
);
unicode = 187;
},
{
glyphname = guilsinglleft;
kernLeft = guillemotleft;
kernRight = guillemotleft;
lastChange = "2024-02-02 14:18:43 +0000";
layers = (
{
hints = (
{
horizontal = 1;
place = (70, 298);
place = (70, 298);
type = Stem;
},
{
place = (-35, 177);
place = (-35, 177);
type = Stem;
}
);
layerId = "EE525628-5027-49A8-B1A1-7E2F3B98E9F5";
shapes = (
{
closed = 1;
nodes = (
(11,221,o),
(92,149,o),
(152,59,c),
(163,68,o),
(169,76,o),
(171,85,cs),
(178,118,o),
(126,155,o),
(87,221,c),
(155,287,o),
(221,324,o),
(228,357,cs),
(230,366,o),
(228,374,o),
(221,383,c),
(123,293,o),
(11,221,o),
(11,221,c)
);
}
);
width = 270;
}
);
unicode = 8249;
},
{
glyphname = guilsinglright;
kernLeft = guillemotright;
kernRight = guillemotright;
lastChange = "2024-02-02 12:40:18 +0000";
layers = (
{
hints = (
{
horizontal = 1;
place = (74, 298);
place = (74, 298);
type = Stem;
},
{
place = (74, 177);
place = (74, 177);
type = Stem;
}
);
layerId = "EE525628-5027-49A8-B1A1-7E2F3B98E9F5";
shapes = (
{
closed = 1;
nodes = (
(267,221,o),
(187,293,o),
(127,383,c),
(116,374,o),
(110,366,o),
(108,357,cs),
(101,324,o),
(153,287,o),
(191,221,c),
(124,155,o),
(58,118,o),
(51,85,cs),
(49,76,o),
(51,68,o),
(58,59,c),
(156,149,o),
(267,221,o),
(267,221,c)
);
}
);
width = 288;
}
);
unicode = 8250;
},
{
glyphname = quotedbl;
kernLeft = quote;
kernRight = quote;
lastChange = "2024-02-02 14:46:10 +0000";
layers = (
{
hints = (
{
horizontal = 1;
place = (438, 21);
target = up;
type = BottomGhost;
},
{
horizontal = 1;
place = (682, -20);
target = down;
type = TopGhost;
},
{
place = (69, 90);
place = (69, 90);
type = Stem;
},
{
place = (216, 90);
place = (216, 90);
type = Stem;
}
);
layerId = "EE525628-5027-49A8-B1A1-7E2F3B98E9F5";
shapes = (
{
closed = 1;
nodes = (
(283,439,o),
(286,438,o),
(290,438,cs),
(294,438,o),
(299,439,o),
(303,442,c),
(319,509,o),
(376,606,o),
(376,645,cs),
(376,668,o),
(361,682,o),
(342,682,cs),
(293,682,o),
(286,625,o),
(286,590,cs),
(286,569,o),
(287,545,o),
(287,521,cs),
(287,495,o),
(286,468,o),
(279,442,c)
);
},
{
closed = 1;
nodes = (
(136,439,o),
(139,438,o),
(143,438,cs),
(147,438,o),
(152,439,o),
(156,442,c),
(172,509,o),
(229,606,o),
(229,645,cs),
(229,668,o),
(214,682,o),
(195,682,cs),
(146,682,o),
(139,625,o),
(139,590,cs),
(139,569,o),
(140,545,o),
(140,521,cs),
(140,495,o),
(139,468,o),
(132,442,c)
);
}
);
width = 378;
}
);
unicode = 34;
},
{
glyphname = quotesingle;
kernLeft = quote;
kernRight = quote;
lastChange = "2024-02-02 15:07:32 +0000";
layers = (
{
hints = (
{
horizontal = 1;
place = (416, 21);
target = up;
type = BottomGhost;
},
{
horizontal = 1;
place = (682, -20);
target = down;
type = TopGhost;
}
);
layerId = "EE525628-5027-49A8-B1A1-7E2F3B98E9F5";
shapes = (
{
closed = 1;
nodes = (
(136,439,o),
(139,438,o),
(143,438,cs),
(147,438,o),
(152,439,o),
(156,442,c),
(172,509,o),
(229,606,o),
(229,645,cs),
(229,668,o),
(214,682,o),
(195,682,cs),
(146,682,o),
(139,625,o),
(139,590,cs),
(139,569,o),
(140,545,o),
(140,521,cs),
(140,495,o),
(139,468,o),
(132,442,c)
);
}
);
width = 231;
}
);
metricLeft = quotedbl;
metricRight = quotedbl;
unicode = 39;
},
{
glyphname = florin;
layers = (
{
hints = (
{
horizontal = 1;
place = (-127, 27);
place = (-127, 27);
type = Stem;
},
{
horizontal = 1;
place = (484, 27);
place = (484, 27);
type = Stem;
},
{
horizontal = 1;
place = (755, 32);
place = (755, 32);
type = Stem;
},
{
place = (-44, 577);
place = (-44, 577);
type = Stem;
}
);
layerId = "EE525628-5027-49A8-B1A1-7E2F3B98E9F5";
shapes = (
{
closed = 1;
nodes = (
(355,461,ls),
(366,461,o),
(371,477,o),
(371,488,c),
(370,495,o),
(368,500,o),
(363,500,cs),
(255,500,l),
(311,660,o),
(352,744,o),
(414,744,cs),
(453,744,o),
(482,715,o),
(505,687,c),
(540,691,o),
(559,712,o),
(559,739,cs),
(559,788,o),
(494,797,o),
(460,797,cs),
(329,797,o),
(259,701,o),
(186,518,cs),
(176,494,o),
(127,494,o),
(91,494,cs),
(82,494,o),
(78,481,o),
(78,471,cs),
(78,465,o),
(81,461,o),
(85,461,cs),
(166,461,l),
(61,168,o),
(5,-164,o),
(-100,-164,cs),
(-134,-164,o),
(-156,-144,o),
(-185,-118,c),
(-204,-128,o),
(-211,-142,o),
(-211,-157,c),
(-210,-190,o),
(-177,-217,o),
(-135,-217,cs),
(60,-217,o),
(167,260,o),
(242,461,c)
);
}
);
width = 288;
}
);
unicode = 402;
},
{
glyphname = at;
layers = (
{
hints = (
{
horizontal = 1;
place = (-170, 39);
place = (-170, 39);
type = Stem;
},
{
horizontal = 1;
place = (-12, 61);
place = (-12, 61);
type = Stem;
},
{
horizontal = 1;
place = (-12, 75);
place = (-12, 75);
type = Stem;
},
{
horizontal = 1;
place = (-15, 21);
target = up;
type = BottomGhost;
},
{
horizontal = 1;
place = (408, 42);
place = (408, 42);
type = Stem;
},
{
horizontal = 1;
place = (557, 43);
place = (557, 43);
type = Stem;
},
{
place = (60, 65);
place = (60, 65);
type = Stem;
},
{
place = (250, 84);
place = (250, 84);
type = Stem;
},
{
place = (492, 88);
place = (492, 88);
type = Stem;
},
{
place = (894, 65);
place = (894, 65);
type = Stem;
}
);
layerId = "EE525628-5027-49A8-B1A1-7E2F3B98E9F5";
shapes = (
{
closed = 1;
nodes = (
(686,442,o),
(680,406,o),
(644,406,cs),
(630,406,o),
(606,450,o),
(532,450,cs),
(360,450,o),
(250,146,o),
(250,53,cs),
(250,7,o),
(278,-15,o),
(309,-15,cs),
(375,-15,o),
(499,149,o),
(565,241,c),
(567,239,o),
(492,64,o),
(492,21,cs),
(492,-10,o),
(521,-12,o),
(547,-12,cs,{
name = .hr02;
}),
(783,-12,o),
(959,203,o),
(959,378,cs),
(959,498,o),
(876,600,o),
(671,600,cs),
(328,600,o),
(60,293,o),
(60,67,cs),
(60,-65,o),
(155,-170,o),
(385,-170,cs),
(441,-170,o),
(529,-156,o),
(594,-133,cs),
(606,-129,o),
(620,-121,o),
(620,-108,cs),
(620,-102,o),
(616,-98,o),
(610,-98,cs),
(595,-98,o),
(542,-131,o),
(422,-131,cs),
(211,-131,o),
(125,-32,o),
(125,91,cs),
(125,292,o),
(347,557,o),
(641,557,cs),
(821,557,o),
(894,460,o),
(894,351,cs),
(894,210,o),
(772,49,o),
(597,49,cs),
(588,49,o),
(580,51,o),
(580,61,cs),
(580,81,o),
(630,245,o),
(681,350,cs),
(715,420,o),
(720,415,o),
(720,430,cs),
(720,437,o),
(716,442,o),
(709,442,cs,{
name = .hr01;
})
);
},
{
closed = 1;
nodes = (
(544,408,o),
(589,371,o),
(601,347,c),
(560,261,o),
(397,63,o),
(359,63,cs,{
name = .hr03;
}),
(342,63,o),
(334,80,o),
(334,101,cs),
(334,187,o),
(426,408,o),
(503,408,cs)
);
}
);
width = 976;
}
);
unicode = 64;
},
{
glyphname = ampersand;
lastChange = "2024-02-02 15:13:47 +0000";
layers = (
{
hints = (
{
horizontal = 1;
place = (-16, 84);
place = (-16, 84);
type = Stem;
},
{
horizontal = 1;
place = (275, 65);
place = (275, 65);
type = Stem;
},
{
horizontal = 1;
place = (452, 52);
place = (452, 52);
type = Stem;
},
{
horizontal = 1;
place = (751, 20);
place = (751, 20);
type = Stem;
},
{
place = (-17, 74);
place = (-17, 74);
type = Stem;
},
{
place = (420, 68);
place = (420, 68);
type = Stem;
},
{
place = (874, 99);
place = (874, 99);
type = Stem;
}
);
layerId = "EE525628-5027-49A8-B1A1-7E2F3B98E9F5";
shapes = (
{
closed = 1;
nodes = (
(159,411,o),
(173,365,o),
(193,320,c),
(124,279,o),
(56,201,o),
(56,117,cs),
(56,32,o),
(103,-13,o),
(194,-13,cs),
(274,-13,o),
(330,13,o),
(390,53,c),
(487,-33,o),
(605,-81,o),
(674,-81,cs),
(741,-81,o),
(820,3,o),
(820,16,cs),
(820,21,o),
(817,26,o),
(808,26,cs),
(796,26,o),
(775,-21,o),
(710,-21,cs),
(648,-21,o),
(557,32,o),
(463,110,c),
(557,195,o),
(607,325,o),
(618,442,c),
(707,458,o),
(845,503,o),
(845,619,cs),
(845,662,o),
(814,682,o),
(785,682,cs),
(777,682,o),
(768,680,o),
(761,677,c),
(766,663,o),
(767,651,o),
(767,637,cs),
(767,499,o),
(572,455,o),
(390,454,c),
(416,473,o),
(460,523,o),
(460,583,cs),
(460,632,o),
(430,671,o),
(370,671,cs),
(263,671,o),
(159,560,o),
(159,454,cs)
);
},
{
closed = 1;
nodes = (
(385,507,o),
(367,458,o),
(341,423,c),
(367,422,o),
(390,421,o),
(409,421,cs),
(466,421,o),
(497,425,o),
(529,429,c),
(531,413,o),
(532,397,o),
(532,381,cs),
(532,285,o),
(500,197,o),
(434,136,c),
(400,167,o),
(369,202,o),
(338,244,cs),
(256,358,o),
(225,448,o),
(225,490,cs),
(225,545,o),
(251,600,o),
(314,600,cs),
(360,600,o),
(385,572,o),
(385,542,cs)
);
},
{
closed = 1;
nodes = (
(140,205,o),
(164,252,o),
(208,288,c),
(228,251,o),
(251,215,o),
(272,184,cs),
(301,143,o),
(330,113,o),
(361,82,c),
(322,58,o),
(294,48,o),
(248,48,cs),
(183,48,o),
(140,99,o),
(140,161,cs)
);
}
);
width = 829;
}
);
unicode = 38;
},
{
glyphname = paragraph;
layers = (
{
hints = (
{
horizontal = 1;
place = (-228, 65);
place = (-228, 65);
type = Stem;
},
{
horizontal = 1;
place = (640, 33);
place = (640, 33);
type = Stem;
}
);
layerId = "EE525628-5027-49A8-B1A1-7E2F3B98E9F5";
shapes = (
{
closed = 1;
nodes = (
(282,168,ls),
(261,99,o),
(180,-163,o),
(105,-163,cs),
(47,-163,o),
(-3,-113,o),
(-3,-113,c),
(-26,-123,o),
(-44,-142,o),
(-44,-169,cs),
(-44,-207,o),
(-12,-228,o),
(33,-228,cs),
(113,-228,o),
(233,-169,o),
(296,-54,cs),
(329,5,o),
(359,82,o),
(387,177,cs),
(500,552,ls),
(523,629,o),
(538,640,o),
(547,640,cs),
(607,640,ls),
(617,640,o),
(622,652,o),
(622,666,c),
(621,670,o),
(619,673,o),
(615,673,cs),
(560,673,o),
(517,671,o),
(488,671,cs),
(373,671,ls),
(186,671,o),
(116,585,o),
(89,495,c),
(83,479,o),
(80,462,o),
(79,446,c),
(79,437,o),
(78,428,o),
(78,420,c),
(82,357,o),
(119,307,o),
(209,307,cs),
(229,307,o),
(255,311,o),
(279,319,c),
(313,414,o),
(383,634,o),
(383,634,c),
(384,636,o),
(422,637,o),
(422,637,c)
);
}
);
width = 522;
}
);
unicode = 182;
},
{
glyphname = section;
layers = (
{
hints = (
{
horizontal = 1;
place = (-204, 60);
place = (-204, 60);
type = Stem;
},
{
horizontal = 1;
place = (664, 50);
place = (664, 50);
type = Stem;
},
{
place = (91, 79);
place = (91, 79);
type = Stem;
},
{
place = (231, 74);
place = (231, 74);
type = Stem;
},
{
place = (262, 62);
place = (262, 62);
type = Stem;
},
{
place = (393, 85);
place = (393, 85);
type = Stem;
}
);
layerId = "EE525628-5027-49A8-B1A1-7E2F3B98E9F5";
shapes = (
{
closed = 1;
nodes = (
(91,243,o),
(231,158,o),
(231,1,cs),
(231,-61,o),
(209,-144,o),
(138,-144,cs),
(100,-144,o),
(50,-98,o),
(40,-46,c),
(5,-68,o),
(-19,-93,o),
(-19,-127,cs),
(-19,-167,o),
(18,-204,o),
(97,-204,cs),
(169,-204,o),
(220,-161,o),
(220,-161,c),
(370,-127,o),
(478,-49,o),
(478,102,cs),
(478,279,o),
(324,417,o),
(324,546,cs,{
name = .hr02;
}),
(324,599,o),
(350,664,o),
(407,664,cs),
(457,664,o),
(486,628,o),
(503,573,c),
(535,590,o),
(566,614,o),
(566,647,cs),
(566,683,o),
(529,714,o),
(457,714,cs),
(411,714,o),
(375,702,o),
(323,664,c),
(181,622,o),
(91,528,o),
(91,393,cs,{
name = .hr01;
})
);
},
{
closed = 1;
nodes = (
(272,588,o),
(262,546,o),
(262,507,cs),
(262,367,o),
(393,247,o),
(393,86,cs),
(393,-14,o),
(342,-91,o),
(251,-122,c),
(288,-62,o),
(305,-5,o),
(305,56,cs,{
name = .hr03;
}),
(305,226,o),
(170,340,o),
(170,460,cs),
(170,540,o),
(232,590,o),
(294,622,c)
);
}
);
width = 561;
}
);
unicode = 167;
},
{
glyphname = copyright;
layers = (
{
hints = (
{
horizontal = 1;
place = (24, 35);
place = (24, 35);
type = Stem;
},
{
horizontal = 1;
place = (142, 37);
place = (142, 37);
type = Stem;
},
{
horizontal = 1;
place = (485, 32);
place = (485, 32);
type = Stem;
},
{
horizontal = 1;
place = (485, 38);
place = (485, 38);
type = Stem;
},
{
horizontal = 1;
place = (596, 35);
place = (596, 35);
type = Stem;
},
{
place = (40, 42);
place = (40, 42);
type = Stem;
},
{
place = (163, 73);
place = (163, 73);
type = Stem;
},
{
place = (476, 183);
place = (476, 183);
type = Stem;
},
{
place = (619, 40);
place = (619, 40);
type = Stem;
}
);
layerId = "EE525628-5027-49A8-B1A1-7E2F3B98E9F5";
shapes = (
{
closed = 1;
nodes = (
(223,631,o),
(40,454,o),
(40,262,cs),
(40,123,o),
(131,24,o),
(285,24,cs),
(493,24,o),
(659,207,o),
(659,399,cs),
(659,537,o),
(582,631,o),
(428,631,cs,{
name = .hr01;
})
);
},
{
closed = 1;
nodes = (
(549,596,o),
(619,516,o),
(619,393,cs),
(619,215,o),
(465,59,o),
(292,59,cs),
(163,59,o),
(82,144,o),
(82,268,cs),
(82,448,o),
(248,596,o),
(422,596,cs)
);
},
{
closed = 1;
nodes = (
(432,212,l),
(405,191,o),
(374,179,o),
(346,179,cs),
(286,179,o),
(236,223,o),
(236,293,cs),
(236,390,o),
(299,485,o),
(406,485,cs),
(452,485,o),
(476,473,o),
(476,454,cs,{
name = .hr02;
}),
(476,445,o),
(473,435,o),
(471,429,cs),
(470,425,o),
(469,420,o),
(469,420,c),
(469,415,o),
(475,413,o),
(481,413,cs),
(489,413,o),
(504,416,o),
(504,427,cs),
(504,453,o),
(524,502,o),
(539,519,c),
(535,523,o),
(528,529,o),
(522,529,cs),
(510,529,o),
(517,517,o),
(484,517,c),
(440,522,ls),
(433,523,o),
(424,523,o),
(418,523,cs,{
name = .hr03;
}),
(297,523,o),
(163,421,o),
(163,282,cs),
(163,196,o),
(238,142,o),
(333,142,cs),
(360,142,o),
(383,148,o),
(398,152,cs),
(404,153,o),
(409,155,o),
(412,156,c),
(410,138,l),
(412,136,o),
(425,134,o),
(427,134,cs),
(436,134,o),
(441,145,o),
(445,163,cs),
(450,182,o),
(459,212,o),
(475,241,c),
(471,251,o),
(465,257,o),
(458,257,cs),
(454,257,o),
(448,256,o),
(445,247,cs)
);
}
);
width = 699;
}
);
unicode = 169;
},
{
glyphname = registered;
layers = (
{
hints = (
{
horizontal = 1;
place = (24, 35);
place = (24, 35);
type = Stem;
},
{
horizontal = 1;
place = (145, 31);
place = (145, 31);
type = Stem;
},
{
horizontal = 1;
place = (145, 200);
place = (145, 200);
type = Stem;
},
{
horizontal = 1;
place = (495, 30);
place = (495, 30);
type = Stem;
},
{
horizontal = 1;
place = (596, 35);
place = (596, 35);
type = Stem;
},
{
place = (40, 42);
place = (40, 42);
type = Stem;
},
{
place = (448, 67);
place = (448, 67);
type = Stem;
},
{
place = (619, 40);
place = (619, 40);
type = Stem;
}
);
layerId = "EE525628-5027-49A8-B1A1-7E2F3B98E9F5";
shapes = (
{
closed = 1;
nodes = (
(223,631,o),
(40,454,o),
(40,262,cs),
(40,123,o),
(131,24,o),
(285,24,cs),
(493,24,o),
(659,207,o),
(659,399,cs),
(659,537,o),
(582,631,o),
(428,631,cs,{
name = .hr01;
})
);
},
{
closed = 1;
nodes = (
(309,176,o),
(292,181,o),
(276,181,c),
(298,209,o),
(314,266,o),
(323,303,c),
(328,321,l),
(330,320,o),
(336,320,o),
(340,319,c),
(405,202,o),
(437,145,o),
(481,145,cs),
(491,145,o),
(501,146,o),
(510,149,c),
(451,93,o),
(373,59,o),
(292,59,cs),
(163,59,o),
(82,144,o),
(82,268,cs),
(82,448,o),
(248,596,o),
(422,596,cs),
(549,596,o),
(619,516,o),
(619,393,cs),
(619,318,o),
(591,247,o),
(547,190,c),
(541,185,o),
(529,175,o),
(516,175,cs),
(495,175,o),
(464,220,o),
(453,239,cs),
(428,280,l),
(418,295,o),
(410,307,o),
(402,315,c),
(465,324,o),
(515,363,o),
(515,420,cs),
(515,491,o),
(447,525,o),
(369,525,cs),
(297,525,o),
(218,499,o),
(217,479,c),
(217,473,o),
(223,465,o),
(223,465,c),
(260,484,o),
(288,488,o),
(293,488,c),
(288,433,o),
(252,269,o),
(252,269,c),
(241,205,o),
(224,184,o),
(204,182,cs),
(177,179,o),
(174,159,o),
(174,152,c),
(177,155,o),
(192,158,o),
(200,158,cs),
(234,158,o),
(298,151,o),
(304,150,c),
(323,150,o),
(331,176,o),
(331,176,c)
);
},
{
closed = 1;
nodes = (
(356,473,ls),
(359,487,o),
(365,495,o),
(373,495,cs),
(412,495,o),
(448,467,o),
(448,422,c),
(445,374,o),
(407,345,o),
(364,345,cs,{
name = .hr02;
}),
(354,345,o),
(343,347,o),
(333,351,c)
);
}
);
width = 699;
}
);
unicode = 174;
},
{
glyphname = trademark;
layers = (
{
hints = (
{
horizontal = 1;
place = (273, 30);
place = (273, 30);
type = Stem;
},
{
horizontal = 1;
place = (637, 50);
place = (637, 50);
type = Stem;
},
{
horizontal = 1;
place = (652, 35);
place = (652, 35);
type = Stem;
},
{
horizontal = 1;
place = (657, 30);
place = (657, 30);
type = Stem;
},
{
place = (-107, 33);
place = (-107, 33);
type = Stem;
},
{
place = (34, 66);
place = (34, 66);
type = Stem;
},
{
place = (208, 33);
place = (208, 33);
type = Stem;
},
{
place = (347, 35);
place = (347, 35);
type = Stem;
},
{
place = (685, 66);
place = (685, 66);
type = Stem;
}
);
layerId = "EE525628-5027-49A8-B1A1-7E2F3B98E9F5";
shapes = (
{
closed = 1;
nodes = (
(238,645,l,{
name = .hr01;
}),
(268,642,o),
(302,639,o),
(334,639,cs),
(347,639,o),
(369,684,o),
(369,691,cs),
(369,694,o),
(367,698,o),
(360,698,cs),
(355,698,o),
(352,696,o),
(349,689,c),
(342,677,o),
(323,672,o),
(313,672,cs),
(310,672,o),
(299,673,o),
(287,674,cs),
(251,677,o),
(189,682,o),
(138,682,cs),
(64,682,o),
(21,630,o),
(21,595,cs),
(21,572,o),
(30,566,o),
(45,566,cs),
(56,566,o),
(72,573,o),
(84,587,c),
(75,605,o),
(74,612,o),
(74,621,cs),
(74,647,o),
(95,652,o),
(130,652,cs,{
name = .hr02;
}),
(158,652,o),
(172,650,o),
(172,646,cs),
(172,639,o),
(171,628,o),
(168,614,cs),
(118,375,l),
(112,359,o),
(112,355,o),
(98,355,cs),
(75,355,ls),
(70,355,o),
(63,353,o),
(63,341,cs),
(63,335,o),
(66,331,o),
(71,331,cs),
(78,331,o),
(84,332,o),
(91,332,c),
(103,333,o),
(118,333,o),
(145,333,cs),
(165,333,o),
(213,332,o),
(213,332,c),
(221,334,o),
(221,344,o),
(221,348,cs),
(221,353,o),
(217,355,o),
(214,355,cs),
(188,355,ls),
(182,355,o),
(182,371,o),
(186,396,c)
);
},
{
closed = 1;
nodes = (
(524,368,l),
(579,438,o),
(654,537,o),
(701,602,c),
(689,551,ls),
(671,480,o),
(648,390,o),
(640,364,cs),
(638,359,o),
(632,355,o),
(625,355,cs),
(604,355,ls),
(592,355,o),
(590,344,o),
(589,338,c),
(589,330,o),
(592,331,o),
(597,331,cs),
(609,331,o),
(623,332,o),
(637,332,cs),
(734,332,ls),
(742,332,o),
(747,337,o),
(748,344,c),
(748,351,o),
(744,355,o),
(738,355,cs),
(713,355,ls),
(711,355,o),
(711,357,o),
(711,365,cs),
(711,424,o),
(742,554,o),
(773,647,c),
(776,658,o),
(784,660,o),
(790,660,c),
(812,659,l),
(821,659,o),
(823,663,o),
(823,669,cs),
(823,673,o),
(824,674,o),
(824,676,cs),
(824,683,o),
(820,688,o),
(813,686,c),
(791,685,o),
(773,683,o),
(749,683,cs),
(737,683,o),
(725,683,o),
(714,684,c),
(695,632,o),
(632,552,o),
(557,454,c),
(557,454,o),
(524,578,o),
(524,637,cs,{
name = .hr03;
}),
(524,655,o),
(525,659,o),
(528,679,c),
(502,687,o),
(471,689,o),
(439,690,c),
(430,690,o),
(418,691,o),
(410,691,c),
(410,691,o),
(407,682,o),
(407,677,cs),
(407,665,o),
(414,668,o),
(425,668,cs),
(443,668,o),
(453,668,o),
(453,655,cs),
(453,628,o),
(416,543,o),
(397,501,cs),
(386,476,o),
(374,446,o),
(364,421,cs),
(342,366,l),
(338,359,o),
(333,355,o),
(322,355,cs),
(306,355,ls),
(299,355,o),
(294,348,o),
(294,341,cs),
(294,335,o),
(294,331,o),
(302,331,cs),
(309,331,o),
(317,332,o),
(325,332,c),
(335,333,o),
(346,333,o),
(359,333,cs),
(369,333,o),
(380,332,o),
(389,332,cs),
(414,332,ls),
(423,332,o),
(430,341,o),
(430,348,cs),
(430,354,o),
(428,355,o),
(421,355,cs),
(392,355,ls),
(389,355,o),
(387,356,o),
(387,360,c),
(389,375,o),
(411,434,o),
(435,496,c),
(444,517,o),
(460,554,o),
(471,586,c),
(483,508,o),
(501,441,o),
(515,397,c),
(509,389,o),
(499,371,o),
(499,371,c),
(505,363,o),
(516,361,o),
(523,367,c)
);
}
);
width = 826;
}
);
unicode = 8482;
},
{
glyphname = degree;
lastChange = "2024-02-02 15:13:41 +0000";
layers = (
{
hints = (
{
horizontal = 1;
place = (422, 32);
place = (422, 32);
type = Stem;
},
{
horizontal = 1;
place = (639, 33);
place = (639, 33);
type = Stem;
},
{
place = (14, 34);
place = (14, 34);
type = Stem;
},
{
place = (236, 34);
place = (236, 34);
type = Stem;
}
);
layerId = "EE525628-5027-49A8-B1A1-7E2F3B98E9F5";
shapes = (
{
closed = 1;
nodes = (
(370,628,o),
(328,672,o),
(268,672,cs),
(185,672,o),
(114,597,o),
(114,521,cs),
(114,465,o),
(155,422,o),
(215,422,cs),
(295,422,o),
(370,496,o),
(370,571,cs)
);
},
{
closed = 1;
nodes = (
(178,454,o),
(148,487,o),
(148,528,cs),
(148,588,o),
(203,639,o),
(260,639,cs),
(305,639,o),
(336,606,o),
(336,564,cs),
(336,505,o),
(277,454,o),
(222,454,cs)
);
}
);
width = 357;
}
);
unicode = 176;
},
{
glyphname = bar;
layers = (
{
hints = (
{
horizontal = 1;
place = (-250, 21);
target = up;
type = BottomGhost;
},
{
place = (70, 67);
place = (70, 67);
type = Stem;
}
);
layerId = "EE525628-5027-49A8-B1A1-7E2F3B98E9F5";
shapes = (
{
closed = 1;
nodes = (
(282,749,l),
(282,749,o),
(276,753,o),
(267,753,cs),
(246,753,o),
(237,741,o),
(233,721,cs),
(48,-147,l),
(55,-150,o),
(59,-151,o),
(63,-151,cs),
(83,-151,o),
(90,-139,o),
(94,-121,cs)
);
}
);
width = 204;
}
);
unicode = 124;
},
{
glyphname = brokenbar;
layers = (
{
hints = (
{
horizontal = 1;
place = (-151, 21);
target = up;
type = BottomGhost;
},
{
horizontal = 1;
place = (753, -20);
target = down;
type = TopGhost;
}
);
layerId = "EE525628-5027-49A8-B1A1-7E2F3B98E9F5";
shapes = (
{
closed = 1;
nodes = (
(71,-151,o),
(78,-139,o),
(82,-121,cs),
(157,232,l),
(157,232,o),
(117,236,o),
(111,210,cs),
(36,-147,l),
(43,-150,o),
(47,-151,o),
(51,-151,cs)
);
},
{
closed = 1;
nodes = (
(270,749,l),
(270,749,o),
(264,753,o),
(255,753,cs),
(234,753,o),
(225,741,o),
(221,721,cs),
(146,368,l),
(146,368,o),
(185,361,o),
(190,384,cs)
);
}
);
width = 254;
}
);
unicode = 166;
},
